{"glyphs":{"0":{"ha":794,"x_min":69,"x_max":725,"o":"m 725 497 q 644 113 725 240 q 396 -14 563 -14 q 153 116 236 -14 q 69 497 69 246 q 150 881 69 756 q 396 1007 231 1007 q 641 876 557 1007 q 725 497 725 746 m 183 497 q 234 182 183 281 q 396 83 285 83 q 559 183 508 83 q 610 497 610 283 q 559 810 610 711 q 396 910 508 910 q 234 812 285 910 q 183 497 183 714 z "},"1":{"ha":794,"x_min":128,"x_max":485,"o":"m 485 0 l 375 0 l 375 707 q 381 874 375 794 q 349 844 367 860 q 188 711 331 828 l 128 789 l 390 992 l 485 992 l 485 0 z "},"2":{"ha":794,"x_min":68,"x_max":719,"o":"m 719 0 l 68 0 l 68 97 l 329 360 q 486 532 449 481 q 543 632 524 583 q 563 738 563 681 q 514 863 563 817 q 381 910 465 910 q 263 889 318 910 q 140 815 208 868 l 81 892 q 379 1006 218 1006 q 599 934 519 1006 q 678 742 678 863 q 625 555 678 647 q 426 322 572 463 l 210 110 l 210 104 l 719 104 l 719 0 z "},"3":{"ha":794,"x_min":64,"x_max":713,"o":"m 682 758 q 629 603 682 664 q 478 522 576 543 l 478 517 q 655 440 597 501 q 713 281 713 379 q 615 63 713 139 q 335 -14 517 -14 q 191 -2 257 -14 q 64 40 125 10 l 64 147 q 201 99 128 115 q 339 82 274 82 q 596 283 596 82 q 313 464 596 464 l 215 464 l 215 561 l 314 561 q 498 613 431 561 q 565 754 565 664 q 515 868 565 826 q 381 910 465 910 q 258 892 315 910 q 126 826 200 874 l 69 903 q 210 978 131 951 q 378 1006 289 1006 q 602 940 522 1006 q 682 758 682 874 z "},"4":{"ha":794,"x_min":29,"x_max":767,"o":"m 767 228 l 619 228 l 619 0 l 511 0 l 511 228 l 29 228 l 29 326 l 500 997 l 619 997 l 619 331 l 767 331 l 767 228 m 511 331 l 511 660 q 518 879 511 757 l 513 879 q 451 771 481 814 l 142 331 l 511 331 z "},"5":{"ha":794,"x_min":90,"x_max":714,"o":"m 378 606 q 624 528 535 606 q 714 315 714 450 q 616 74 714 161 q 346 -14 518 -14 q 90 40 178 -14 l 90 149 q 208 101 138 118 q 347 83 279 83 q 533 140 467 83 q 599 303 599 196 q 344 510 599 510 q 172 490 281 510 l 114 528 l 151 992 l 644 992 l 644 888 l 247 888 l 222 590 q 378 606 300 606 z "},"6":{"ha":794,"x_min":79,"x_max":726,"o":"m 79 424 q 193 861 79 717 q 529 1006 307 1006 q 650 993 606 1006 l 650 896 q 531 913 597 913 q 287 813 371 913 q 194 501 203 714 l 203 501 q 439 618 278 618 q 649 538 572 618 q 726 318 726 457 q 642 75 726 164 q 414 -14 557 -14 q 169 102 260 -14 q 79 424 79 218 m 413 82 q 562 142 508 82 q 615 318 615 203 q 566 473 615 417 q 418 529 517 529 q 306 504 357 529 q 225 435 256 479 q 194 343 194 390 q 222 213 194 274 q 299 117 249 153 q 413 82 349 82 z "},"7":{"ha":794,"x_min":64,"x_max":724,"o":"m 193 0 l 604 888 l 64 888 l 64 992 l 724 992 l 724 901 l 318 0 l 193 0 z "},"8":{"ha":794,"x_min":71,"x_max":722,"o":"m 396 1006 q 611 942 532 1006 q 690 768 690 879 q 645 635 690 694 q 500 525 600 575 q 672 403 621 467 q 722 257 722 340 q 636 60 722 133 q 400 -14 550 -14 q 156 56 242 -14 q 71 253 71 125 q 278 518 71 424 q 144 633 185 571 q 103 769 103 694 q 183 942 103 878 q 396 1006 263 1006 m 182 250 q 238 124 182 169 q 397 78 294 78 q 555 126 499 78 q 611 256 611 174 q 558 372 611 321 q 374 472 506 424 q 227 376 272 429 q 182 250 182 324 m 394 914 q 262 874 310 914 q 214 765 214 833 q 253 658 214 703 q 401 568 293 613 q 539 656 499 608 q 579 765 579 703 q 530 874 579 833 q 394 914 481 914 z "},"9":{"ha":794,"x_min":72,"x_max":719,"o":"m 719 568 q 269 -14 719 -14 q 144 0 190 -14 l 144 97 q 268 79 199 79 q 514 180 431 79 q 604 489 597 281 l 596 489 q 497 403 558 433 q 358 374 435 374 q 149 452 226 374 q 72 672 72 531 q 158 916 72 826 q 386 1006 244 1006 q 563 953 488 1006 q 678 802 638 901 q 719 568 719 703 m 386 910 q 236 847 289 910 q 183 674 183 785 q 232 520 183 576 q 381 464 281 464 q 494 489 442 464 q 576 558 546 514 q 606 649 606 601 q 578 780 606 719 q 500 875 550 840 q 386 910 450 910 z "},"\u0000":{"ha":0,"x_min":0,"x_max":0,"o":""}," ":{"ha":351,"x_min":0,"x_max":0,"o":""},"!":{"ha":364,"x_min":121,"x_max":294,"o":"m 250 -146 q 230 -140 243 -146 q 211 -114 217 -133 l 208 -101 q 126 -29 149 -82 q 121 -4 121 -15 q 142 35 121 21 q 183 49 163 49 q 217 42 200 49 q 272 0 249 28 q 294 -50 290 -22 q 292 -76 294 -67 q 288 -78 290 -78 q 260 -67 275 -67 q 218 -101 222 -67 q 232 -131 218 -118 q 249 -136 240 -136 q 263 -133 256 -136 q 278 -111 278 -126 q 267 -90 278 -99 q 256 -89 264 -89 q 242 -103 242 -89 q 249 -112 242 -112 l 250 -112 q 254 -110 253 -112 l 253 -103 q 258 -101 253 -101 q 265 -112 265 -101 q 249 -124 260 -124 q 232 -108 235 -122 q 240 -85 232 -92 q 258 -78 249 -78 q 265 -79 263 -78 q 288 -106 282 -87 q 271 -139 288 -128 q 250 -146 261 -146 m 226 79 q 215 82 222 79 q 165 118 188 90 q 164 119 165 119 l 164 122 l 163 122 q 150 154 150 143 l 151 271 q 142 621 151 407 l 142 636 q 133 949 133 826 q 143 966 133 961 q 179 971 153 971 q 220 966 197 971 q 263 944 243 961 q 282 893 282 928 q 263 426 282 682 l 263 410 q 246 101 251 256 q 241 85 246 89 q 233 80 236 81 q 226 79 231 79 z "},"\"":{"ha":467,"x_min":64,"x_max":386,"o":"m 118 682 q 75 714 81 682 q 64 831 64 774 q 72 926 64 879 l 85 932 q 110 940 96 935 q 139 950 124 946 q 176 957 167 957 q 192 956 185 957 q 196 894 196 922 q 187 824 196 856 q 178 756 178 793 q 181 714 178 736 l 181 711 q 118 682 181 682 m 308 682 q 265 714 271 682 q 254 831 254 774 q 263 926 254 879 l 275 932 q 300 940 286 935 q 329 950 314 946 q 367 957 357 957 q 382 956 375 957 q 386 894 386 922 q 377 824 386 856 q 368 756 368 793 q 371 714 368 736 l 371 711 q 308 682 371 682 z "},"#":{"ha":931,"x_min":29,"x_max":901,"o":"m 514 -15 q 496 -10 504 -15 q 447 36 465 6 q 439 61 439 50 q 501 254 439 67 l 314 254 l 228 -3 q 207 -15 226 -15 q 189 -10 197 -15 q 140 36 158 6 q 133 61 133 49 l 133 68 q 192 246 190 242 q 194 254 194 250 l 104 254 q 85 260 94 254 q 36 306 56 274 q 29 332 29 321 q 36 347 29 344 q 228 350 43 350 l 278 504 l 104 504 q 85 510 94 504 q 36 556 54 525 q 29 582 29 571 l 29 588 q 50 600 35 600 l 310 600 l 396 857 q 417 869 401 869 q 436 865 426 869 q 483 818 467 847 q 492 794 492 804 q 429 600 492 788 l 617 600 l 703 857 q 724 869 708 869 q 743 865 733 869 q 790 818 772 849 q 799 794 799 804 q 736 600 799 788 l 828 600 q 847 596 838 600 q 894 549 876 579 q 901 521 901 531 q 881 504 901 504 l 704 504 l 685 449 q 653 350 669 399 l 828 350 q 847 346 838 350 q 894 299 876 329 q 901 272 901 281 l 901 267 q 881 254 897 254 l 621 254 l 535 -3 q 514 -15 531 -15 m 533 350 l 585 504 l 397 504 l 346 350 l 533 350 z "},"%":{"ha":761,"x_min":29,"x_max":732,"o":"m 189 431 q 99 464 139 431 q 31 576 42 507 l 29 593 q 46 663 29 626 q 93 728 63 700 q 192 769 135 769 q 257 751 225 769 q 338 661 313 721 q 347 610 347 636 q 342 571 347 590 q 295 485 326 524 q 215 433 264 447 q 189 431 201 431 m 135 528 q 171 539 154 529 q 231 604 208 564 q 251 661 246 631 l 250 672 l 242 674 q 203 660 221 669 q 146 600 171 642 q 126 528 126 565 l 135 528 m 571 113 q 482 144 522 113 q 414 257 426 188 l 413 274 q 429 344 413 307 q 478 410 446 381 q 572 450 521 450 q 640 433 608 450 q 722 342 697 401 q 732 290 732 317 q 726 251 732 271 q 679 168 711 204 q 571 113 635 113 m 519 208 q 615 285 576 217 q 635 342 631 311 l 635 354 l 626 354 q 564 322 592 349 q 510 222 518 281 l 511 208 l 519 208 m 271 -15 q 253 -10 261 -15 q 204 36 221 7 q 197 63 197 51 q 253 236 197 68 l 329 464 q 460 857 351 533 q 481 869 465 869 q 500 865 490 869 q 547 818 531 847 q 556 793 556 804 l 554 785 l 293 -3 q 271 -15 289 -15 z "},"'":{"ha":326,"x_min":64,"x_max":196,"o":"m 118 682 q 75 714 81 682 q 64 831 64 774 q 72 926 64 879 l 85 932 q 110 940 96 935 q 139 950 124 946 q 176 957 167 957 q 192 956 185 957 q 196 894 196 922 q 187 824 196 856 q 178 756 178 793 q 181 714 178 736 l 181 711 q 118 682 181 682 z "},"(":{"ha":331,"x_min":29,"x_max":382,"o":"m 365 -269 l 360 -269 q 329 -259 346 -269 q 279 -208 313 -249 q 124 35 185 -97 q 29 460 29 242 q 118 868 29 672 q 272 1107 178 999 q 282 1111 276 1111 l 289 1111 q 336 1085 313 1111 q 363 1033 363 1061 q 358 1019 363 1026 q 211 793 274 924 q 125 406 125 604 q 174 110 125 256 l 200 39 l 206 26 q 300 -133 251 -72 q 340 -183 325 -167 l 340 -185 q 354 -200 347 -193 q 369 -218 361 -207 q 382 -250 382 -236 q 365 -269 382 -269 z "},")":{"ha":411,"x_min":29,"x_max":382,"o":"m 128 -269 q 74 -243 99 -269 q 50 -207 57 -228 q 47 -192 47 -200 q 51 -178 47 -185 q 199 49 143 -76 q 285 440 285 239 q 236 732 285 596 q 221 777 229 756 q 207 810 213 799 q 206 814 206 811 l 208 806 l 207 810 q 204 815 206 814 q 158 903 183 860 q 81 1014 142 936 l 71 1025 q 69 1026 71 1026 q 56 1042 63 1035 q 42 1061 49 1049 q 29 1090 29 1079 q 33 1105 29 1099 q 44 1111 38 1111 l 50 1111 q 81 1101 64 1111 q 131 1050 97 1090 q 286 807 226 939 q 382 382 382 600 q 292 -26 382 169 q 139 -265 232 -157 q 128 -269 135 -269 z "},"*":{"ha":929,"x_min":28,"x_max":901,"o":"m 493 -10 q 482 -7 489 -10 q 432 29 454 1 q 417 65 417 49 l 417 311 l 206 100 q 189 92 199 92 q 169 108 178 92 q 160 151 160 124 l 161 169 q 175 206 161 192 l 349 379 l 50 379 q 29 392 35 379 l 28 400 q 31 410 28 404 q 67 460 39 438 q 103 475 86 475 l 349 475 l 138 686 q 129 703 129 693 q 143 721 129 714 q 189 732 165 732 l 207 731 q 243 717 229 731 l 417 543 l 417 842 q 429 863 417 857 l 438 864 l 447 863 q 497 825 475 853 q 513 789 513 806 l 513 543 l 724 754 q 740 763 731 763 q 758 749 751 763 q 769 703 769 726 l 768 685 q 754 649 768 663 l 581 475 l 879 475 q 900 463 894 475 l 901 456 l 900 444 q 863 394 890 417 q 826 379 843 379 l 581 379 l 792 168 q 800 151 800 161 q 784 131 800 140 q 740 122 768 122 l 722 124 q 686 138 700 124 l 513 311 l 513 13 q 500 -8 513 -3 l 493 -10 z "},"+":{"ha":765,"x_min":29,"x_max":736,"o":"m 411 72 q 400 75 407 72 q 350 111 372 83 q 335 147 335 131 l 335 757 q 347 778 335 772 l 356 779 l 365 778 q 415 740 396 768 q 431 704 431 721 l 431 94 q 418 74 431 79 l 411 72 m 661 378 l 51 378 q 31 390 36 378 l 29 399 q 32 408 29 403 q 68 458 40 436 q 104 474 88 474 l 714 474 q 735 461 729 474 l 736 454 l 735 443 q 697 393 725 415 q 661 378 678 378 z "},",":{"ha":285,"x_min":18,"x_max":254,"o":"m 22 -169 l 18 -153 q 25 -139 18 -144 q 83 -86 57 -115 q 126 -11 126 -40 q 113 3 126 3 l 92 1 q 28 81 28 1 q 75 200 28 136 q 167 251 121 251 q 200 244 183 251 q 254 164 254 225 l 253 142 q 69 -132 221 -3 q 22 -169 43 -156 z "},"-":{"ha":765,"x_min":29,"x_max":736,"o":"m 661 378 l 51 378 q 31 390 36 378 l 29 399 q 32 408 29 403 q 68 458 40 436 q 104 474 88 474 l 714 474 q 735 461 729 474 l 736 454 l 735 443 q 697 393 725 415 q 661 378 678 378 z "},".":{"ha":257,"x_min":21,"x_max":236,"o":"m 31 106 q 89 179 42 150 q 175 190 132 206 q 226 89 236 165 q 168 14 221 46 q 83 4 125 -12 q 31 106 21 28 z "},"/":{"ha":418,"x_min":31,"x_max":389,"o":"m 104 -15 q 86 -10 94 -15 q 38 36 54 7 q 31 63 31 51 q 86 236 31 68 l 163 464 q 293 857 185 533 q 314 869 299 869 q 333 865 324 869 q 381 818 364 847 q 389 793 389 804 l 388 785 l 126 -3 q 104 -15 122 -15 z "},":":{"ha":257,"x_min":21,"x_max":236,"o":"m 31 251 q 89 325 42 296 q 175 336 132 351 q 226 235 236 311 q 168 160 221 192 q 83 150 125 133 q 31 251 21 174 m 31 618 q 89 692 42 663 q 175 703 132 718 q 226 601 236 678 q 168 526 221 558 q 83 517 125 500 q 31 618 21 540 z "},";":{"ha":286,"x_min":19,"x_max":256,"o":"m 39 618 q 97 692 50 663 q 183 703 140 718 q 235 601 244 678 q 176 526 229 558 q 92 517 133 500 q 39 618 29 540 m 24 -79 l 19 -62 q 26 -49 19 -54 q 85 4 58 -25 q 128 79 128 50 q 114 93 128 93 l 93 92 q 29 171 29 92 q 76 290 29 226 q 168 342 122 342 q 201 335 185 342 q 256 254 256 315 l 254 232 q 71 -42 222 88 q 24 -79 44 -65 z "},"<":{"ha":743,"x_min":39,"x_max":665,"o":"m 88 503 l 665 733 l 663 717 q 655 674 658 694 q 646 636 651 653 l 642 622 q 636 614 642 617 l 193 432 l 636 250 q 642 242 642 247 l 646 229 q 655 190 651 211 q 663 147 658 169 l 665 131 l 39 378 l 88 503 z "},"=":{"ha":765,"x_min":29,"x_max":736,"o":"m 661 544 l 51 544 q 31 557 36 544 l 29 565 q 32 575 29 569 q 68 625 40 603 q 104 640 88 640 l 714 640 q 735 628 729 640 l 736 621 l 735 610 q 697 560 725 582 q 661 544 678 544 m 661 346 l 51 346 q 31 358 36 346 l 29 367 q 32 376 29 371 q 68 426 40 404 q 104 442 88 442 l 714 442 q 735 429 729 442 l 736 422 l 735 411 q 697 361 725 383 q 661 346 678 346 z "},">":{"ha":743,"x_min":79,"x_max":706,"o":"m 657 503 l 706 378 l 79 131 l 82 147 q 90 190 86 169 q 99 229 93 211 l 103 242 q 108 250 103 247 l 551 432 l 108 614 q 103 622 103 617 l 99 636 q 90 674 93 653 q 82 717 86 694 l 79 733 l 657 503 z "},"?":{"ha":675,"x_min":114,"x_max":610,"o":"m 292 -203 q 242 -161 253 -203 l 239 -147 q 136 -57 168 -125 q 129 -24 129 -39 q 157 25 129 6 q 207 40 181 40 q 249 32 228 40 q 319 -19 290 15 q 347 -93 347 -53 q 339 -118 347 -118 q 301 -103 322 -103 l 286 -104 q 251 -147 256 -114 q 269 -183 251 -168 q 290 -190 279 -190 q 306 -187 297 -190 q 325 -158 325 -176 q 322 -144 325 -151 q 313 -134 318 -137 q 301 -131 307 -131 q 281 -144 285 -131 l 281 -149 q 283 -157 281 -151 q 290 -162 286 -162 q 296 -157 293 -162 l 297 -157 l 294 -150 q 297 -147 294 -147 q 301 -146 300 -146 q 308 -149 306 -146 q 310 -157 310 -153 l 310 -160 q 289 -175 304 -175 q 268 -149 268 -171 q 278 -126 268 -135 q 301 -118 289 -118 l 310 -119 q 338 -153 332 -129 l 338 -158 q 317 -194 338 -179 q 292 -203 304 -203 m 250 67 q 175 101 203 67 q 133 225 133 154 q 171 354 133 293 q 306 492 225 436 q 385 544 361 531 q 458 610 421 569 q 511 682 496 651 q 514 719 514 701 q 494 779 510 751 q 401 868 458 835 q 333 892 369 886 q 247 850 282 889 q 211 764 211 811 q 219 719 211 747 q 247 740 232 732 q 271 749 261 749 l 279 747 q 368 700 329 732 q 396 647 396 678 q 364 577 396 610 q 288 536 332 544 q 269 535 279 535 q 233 540 251 535 q 164 583 193 553 q 114 710 114 640 q 117 743 114 726 q 213 914 136 844 q 381 988 289 988 q 492 953 438 988 q 560 894 531 929 q 610 768 610 838 q 603 715 610 742 q 557 618 589 663 q 403 479 503 542 l 325 428 l 269 382 l 261 371 q 235 326 242 343 q 229 282 229 310 q 238 235 229 263 l 251 236 q 306 178 272 236 q 325 142 325 151 q 308 106 325 124 q 285 82 299 92 q 250 67 265 67 z "},"@":{"ha":854,"x_min":29,"x_max":844,"o":"m 535 3 q 369 31 451 3 q 124 208 221 85 q 29 463 36 321 l 29 468 q 100 697 29 593 q 289 840 171 800 q 422 863 356 863 q 538 846 479 863 q 732 732 647 813 q 824 558 824 644 q 821 524 824 542 q 746 433 803 463 q 692 422 719 422 q 632 435 663 422 q 636 399 636 417 q 617 312 636 353 q 561 244 599 271 q 478 218 524 218 l 474 218 q 368 260 415 224 q 288 354 315 297 q 268 439 268 396 q 304 546 268 499 q 379 610 332 588 q 456 628 415 628 q 521 603 496 628 q 561 587 540 603 q 594 547 582 571 q 612 531 600 538 q 633 525 624 525 l 638 525 q 710 574 681 532 q 722 618 722 599 q 674 690 722 650 q 551 753 625 729 q 485 760 518 760 q 304 711 389 760 q 179 588 226 665 q 132 410 132 503 q 139 343 132 376 q 217 213 154 276 q 347 126 279 149 q 482 106 408 106 l 514 107 q 718 222 656 119 q 740 292 736 254 q 763 318 742 317 l 775 315 q 826 275 804 306 q 844 238 844 253 q 833 174 843 204 q 535 3 760 3 m 426 321 q 514 383 479 328 q 532 456 532 419 q 521 524 532 489 q 390 446 439 524 q 371 378 371 408 q 385 338 371 356 q 424 321 399 321 l 426 321 z "},"[":{"ha":289,"x_min":53,"x_max":333,"o":"m 311 -271 l 131 -271 q 110 -265 119 -271 q 69 -233 86 -254 q 53 -196 53 -211 l 53 1036 q 69 1073 53 1051 q 110 1106 86 1094 q 131 1111 119 1111 l 311 1111 q 333 1092 333 1111 q 325 1067 333 1078 q 294 1031 314 1046 q 258 1015 275 1015 l 150 1015 l 150 -175 l 258 -175 q 278 -179 268 -175 q 325 -226 308 -194 q 333 -250 333 -237 q 311 -271 333 -271 z "},"\\":{"ha":531,"x_min":90,"x_max":526,"o":"m 526 -233 l 525 -233 l 504 -225 q 490 -217 497 -224 l 461 -200 l 410 -162 l 403 -153 l 400 -143 q 395 -118 397 -131 q 389 -92 393 -106 l 372 -29 q 297 284 336 131 q 217 593 257 438 l 168 786 q 145 881 154 840 q 128 953 136 922 q 114 1010 121 985 q 99 1060 107 1036 l 94 1078 q 92 1087 94 1085 q 90 1093 90 1089 l 92 1096 l 113 1088 q 115 1086 114 1086 l 157 1061 q 178 1048 169 1054 q 199 1031 188 1042 l 207 1024 q 211 1017 211 1021 l 264 817 q 294 694 276 764 q 331 548 311 625 q 371 390 350 471 q 410 233 392 310 l 468 -1 l 522 -214 q 524 -223 522 -218 q 526 -233 526 -228 z "},"]":{"ha":363,"x_min":29,"x_max":308,"o":"m 232 -271 l 50 -271 q 29 -250 29 -271 q 36 -226 29 -236 q 67 -190 49 -206 q 103 -175 90 -175 l 213 -175 l 213 1015 l 103 1015 q 85 1021 93 1015 q 36 1067 54 1036 q 29 1092 29 1076 q 50 1111 29 1111 l 232 1111 q 253 1106 243 1111 q 292 1074 276 1094 q 308 1036 308 1053 l 308 -196 q 292 -233 308 -212 q 253 -265 276 -254 q 232 -271 243 -271 z "},"^":{"ha":515,"x_min":21,"x_max":399,"o":"m 156 1028 l 251 1061 l 399 725 l 360 718 q 339 721 349 719 q 319 725 329 722 l 318 725 q 290 747 301 725 l 211 914 l 146 761 q 117 739 135 739 l 115 739 q 97 735 107 736 q 76 732 86 733 l 21 721 l 156 1028 z "},"_":{"ha":1176,"x_min":39,"x_max":1138,"o":"m 133 0 q 106 15 122 0 q 78 43 89 29 l 72 49 q 39 97 50 74 q 542 99 39 99 q 1054 97 1053 99 q 1111 43 1085 68 q 1138 3 1138 18 q 1136 0 1138 0 l 133 0 z "},"`":{"ha":317,"x_min":11,"x_max":221,"o":"m 25 989 q 12 1033 11 1007 q 18 1082 13 1058 q 31 1122 24 1106 q 38 1135 38 1138 l 199 925 q 213 894 207 913 q 219 857 218 876 q 219 819 221 838 q 215 788 218 800 l 207 749 l 25 989 z "},"{":{"ha":304,"x_min":29,"x_max":290,"o":"m 214 -269 l 207 -269 q 139 -226 165 -260 q 100 -107 100 -179 q 138 46 100 -46 q 174 150 158 86 q 178 197 178 174 q 156 279 178 238 q 35 406 119 336 q 31 413 31 408 l 29 419 l 31 426 q 35 433 31 431 q 156 560 119 503 q 178 642 178 601 q 174 689 178 665 q 138 793 158 753 q 100 946 100 885 q 139 1067 100 1018 q 207 1108 165 1099 l 214 1108 q 239 1101 226 1108 q 286 1053 271 1082 q 290 1029 290 1042 q 278 1013 290 1015 q 214 963 239 1004 q 196 893 196 926 q 200 849 196 871 q 243 729 214 794 q 274 613 265 674 q 275 586 275 600 q 201 419 275 500 q 275 253 275 339 q 243 110 275 190 l 233 86 q 196 -54 196 0 q 214 -124 196 -87 q 278 -174 239 -165 q 290 -190 290 -176 q 286 -214 290 -203 q 239 -262 271 -243 q 214 -269 226 -269 z "},"|":{"ha":201,"x_min":53,"x_max":149,"o":"m 129 -11 q 118 -8 125 -11 q 68 28 90 0 q 53 64 53 47 l 53 840 q 65 861 53 856 l 74 863 l 83 861 q 133 824 114 851 q 149 788 149 804 l 149 11 q 136 -10 149 -4 l 129 -11 z "},"}":{"ha":319,"x_min":29,"x_max":290,"o":"m 114 -269 l 106 -269 q 81 -262 93 -269 q 46 -231 60 -250 q 29 -194 32 -212 q 42 -174 29 -176 q 107 -124 81 -165 q 124 -54 124 -90 q 88 86 124 -3 q 78 110 82 97 q 46 253 46 185 q 119 419 46 343 q 46 586 46 496 q 78 729 46 654 q 88 753 82 742 q 119 849 107 800 q 124 893 124 871 q 106 963 124 929 q 42 1013 82 1004 q 29 1033 29 1015 q 36 1053 31 1043 q 81 1101 51 1083 q 106 1108 93 1108 l 114 1108 q 181 1067 154 1099 q 221 949 221 1017 q 182 793 221 882 l 181 788 q 146 689 160 739 q 142 642 142 665 q 165 560 142 604 q 286 433 201 503 q 290 426 289 431 l 290 413 q 286 406 289 408 q 165 279 201 336 q 142 197 142 235 q 146 150 142 174 q 181 51 160 100 l 182 46 q 214 -53 203 -1 q 221 -110 221 -81 q 181 -226 221 -178 q 114 -269 154 -260 z "},"~":{"ha":597,"x_min":31,"x_max":569,"o":"m 106 368 q 86 374 96 368 q 39 419 56 389 q 31 444 31 431 q 51 483 31 460 q 144 518 94 518 q 229 507 188 518 l 268 499 q 389 482 328 482 l 400 482 q 478 515 453 486 q 488 519 481 519 q 506 518 497 519 q 564 463 544 503 q 569 444 569 454 q 564 428 569 436 q 431 386 526 386 q 301 406 385 386 l 267 414 q 194 422 232 422 q 128 382 151 417 q 126 381 126 382 q 106 368 122 368 z "},"·":{"ha":271,"x_min":29,"x_max":242,"o":"m 126 347 q 85 369 104 351 q 56 401 67 386 l 39 424 q 29 449 29 435 q 42 484 29 471 q 74 504 56 497 q 113 513 93 511 q 144 515 132 515 q 167 507 156 513 q 190 489 179 501 l 239 432 q 242 417 242 424 l 242 413 q 225 381 242 394 l 189 357 q 126 347 168 347 z "},"×":{"ha":699,"x_min":26,"x_max":672,"o":"m 299 428 q 107 615 165 558 q 38 686 72 651 q 31 710 26 696 q 43 721 35 717 q 60 728 51 725 q 107 731 82 735 q 126 727 115 731 q 143 717 136 724 l 264 596 q 284 575 271 589 q 313 546 297 561 q 341 515 328 529 q 361 494 354 501 l 364 492 q 411 543 388 519 q 522 652 464 594 q 624 754 579 710 q 647 761 633 765 q 658 749 654 757 q 665 732 663 740 q 668 685 672 710 q 665 666 668 676 q 654 649 661 656 q 601 594 628 622 q 533 528 567 561 l 481 475 l 431 428 l 481 379 l 533 326 q 601 260 567 293 q 654 206 628 232 q 665 188 661 199 q 668 169 668 178 q 665 122 672 144 q 658 106 663 114 q 647 93 654 97 q 624 100 633 89 q 522 202 579 144 q 411 311 464 260 q 364 363 388 335 l 361 360 q 341 339 354 353 q 313 308 328 325 q 284 279 297 293 q 264 258 271 265 l 143 138 q 126 127 136 131 q 107 124 115 124 q 60 126 82 119 q 43 133 51 129 q 31 144 35 138 q 38 168 26 158 q 107 239 72 203 q 299 428 165 296 z "},"÷":{"ha":765,"x_min":28,"x_max":738,"o":"m 38 422 q 68 458 49 443 q 85 469 75 464 q 104 474 96 474 l 714 474 q 735 461 729 474 q 735 445 738 454 q 728 429 732 436 q 697 393 717 408 q 681 383 690 388 q 661 378 671 378 l 51 378 q 31 390 36 378 q 31 406 28 397 q 38 422 33 415 m 293 251 q 351 325 304 296 q 438 336 394 351 q 489 235 499 311 q 431 160 483 192 q 346 150 388 133 q 293 251 283 174 m 293 618 q 351 692 304 663 q 438 703 394 718 q 489 601 499 678 q 431 526 483 558 q 346 517 388 500 q 293 618 283 540 z "},"­":{"ha":519,"x_min":39,"x_max":481,"o":"m 481 382 l 147 382 q 105 398 125 382 q 69 433 85 414 q 47 465 54 451 q 39 481 39 479 l 335 482 q 368 475 350 482 q 432 435 403 461 q 481 382 446 422 z "},"–":{"ha":908,"x_min":38,"x_max":869,"o":"m 147 382 q 105 398 125 382 q 69 433 85 414 q 46 467 54 451 q 39 481 38 482 l 724 482 q 756 475 739 482 q 790 458 774 468 q 821 435 807 447 q 843 413 835 422 l 869 382 l 147 382 z "},"—":{"ha":1099,"x_min":38,"x_max":1060,"o":"m 147 382 q 105 398 125 382 q 69 433 85 414 q 46 467 54 451 q 39 481 38 482 l 914 482 q 947 475 929 482 q 981 458 964 468 q 1011 435 997 447 q 1033 413 1025 422 l 1060 382 l 147 382 z "},"‘":{"ha":343,"x_min":39,"x_max":275,"o":"m 190 607 q 136 637 163 622 q 88 669 110 651 q 52 712 65 688 q 39 771 39 736 q 65 860 39 813 q 161 971 90 907 q 170 978 167 975 q 176 982 174 982 l 182 978 l 179 971 q 144 931 164 956 q 124 865 124 906 l 126 842 q 147 792 132 813 q 183 755 163 771 q 226 726 203 739 q 272 700 250 714 l 275 697 l 272 692 q 268 685 271 689 l 268 686 q 258 674 267 686 q 238 647 250 661 q 213 619 226 632 q 190 607 200 607 z "},"’":{"ha":346,"x_min":26,"x_max":250,"o":"m 29 644 q 26 651 26 647 l 31 657 q 51 668 42 660 q 92 685 60 676 l 101 699 q 121 721 115 711 q 131 744 126 731 l 133 753 q 135 767 135 760 q 136 781 136 774 q 126 835 135 807 q 96 889 117 863 l 54 942 l 54 946 q 76 963 67 958 q 92 969 86 968 q 102 972 99 971 q 107 976 106 972 l 119 982 q 144 989 136 989 l 150 989 q 160 994 150 993 q 188 976 172 994 q 217 932 204 957 q 240 881 231 907 q 250 842 250 856 q 216 740 250 782 q 107 671 182 699 l 47 649 q 33 644 43 644 l 29 644 z "},"“":{"ha":575,"x_min":71,"x_max":519,"o":"m 175 626 q 138 663 156 644 q 104 701 119 681 q 80 745 89 722 q 71 796 71 768 q 99 869 71 833 q 161 931 126 904 q 228 975 196 958 q 268 992 260 992 l 271 985 l 267 979 q 222 948 239 964 q 194 916 204 932 q 182 884 185 900 q 179 854 179 868 q 206 774 179 808 l 279 693 l 281 689 l 214 642 q 194 632 207 638 q 175 626 181 626 m 414 626 q 376 663 394 644 q 343 701 358 681 q 319 745 328 722 q 310 796 310 768 q 338 869 310 833 q 400 931 365 904 q 467 975 435 958 q 507 992 499 992 l 510 985 l 506 979 q 460 948 478 964 q 433 916 443 932 q 421 884 424 900 q 418 854 418 868 q 444 774 418 808 l 518 693 l 519 689 l 453 642 q 433 632 446 638 q 414 626 419 626 z "},"”":{"ha":575,"x_min":25,"x_max":481,"o":"m 28 650 q 25 657 25 653 l 29 663 q 49 674 40 665 q 90 690 58 682 l 100 704 q 119 726 114 717 q 129 750 125 736 l 132 758 q 134 772 133 765 q 135 786 135 779 q 124 840 133 813 q 94 894 115 868 l 53 947 l 53 951 q 75 969 65 964 q 91 975 85 974 q 101 977 97 976 q 106 982 104 978 l 118 988 q 143 994 135 994 l 149 994 q 158 1000 149 999 q 187 981 171 1000 q 216 938 203 963 q 239 887 229 913 q 249 847 249 861 q 215 746 249 788 q 106 676 181 704 l 46 654 q 32 650 42 650 l 28 650 m 260 650 q 257 657 257 653 l 261 663 q 281 674 272 665 q 322 690 290 682 l 332 704 q 351 726 346 717 q 361 750 357 736 l 364 758 q 366 772 365 765 q 367 786 367 779 q 356 840 365 813 q 326 894 347 868 l 285 947 l 285 951 q 307 969 297 964 q 323 975 317 974 q 333 977 329 976 q 338 982 336 978 l 350 988 q 375 994 367 994 l 381 994 q 390 1000 381 999 q 419 981 403 1000 q 448 938 435 963 q 471 887 461 913 q 481 847 481 861 q 447 746 481 788 q 338 676 413 704 l 278 654 q 264 650 274 650 l 260 650 z "},"অ":{"ha":1074,"x_min":-22,"x_max":1096,"o":"m 907 439 l 907 801 l 728 801 q 794 688 767 747 q 854 474 849 576 q 907 439 882 458 m 1014 0 q 963 33 981 0 q 953 69 953 49 l 953 78 l 943 82 q 911 92 921 88 l 907 93 l 907 358 q 850 399 883 382 q 832 343 844 369 q 713 228 790 263 q 554 194 636 194 l 542 194 q 211 315 375 201 q 32 510 81 403 q 29 522 29 517 q 53 543 29 543 q 74 536 60 543 q 75 535 74 535 q 133 499 106 521 q 172 439 172 464 q 169 425 172 429 l 176 421 q 232 378 196 401 q 233 376 233 378 q 299 340 254 363 l 324 329 q 493 290 421 290 l 524 292 q 732 406 669 303 q 757 510 757 453 q 719 681 757 590 q 706 711 715 696 q 674 768 688 747 q 672 772 674 769 q 667 779 669 774 l 628 829 q 624 832 626 829 q 618 839 622 835 q 565 889 592 868 q 406 596 418 671 q 411 554 406 571 q 413 551 413 553 q 415 546 413 549 q 418 540 418 543 l 419 540 q 423 537 421 538 q 429 535 425 536 q 474 528 447 528 q 504 536 490 531 q 492 574 492 556 l 492 579 q 519 668 496 629 l 521 671 q 568 704 536 704 q 638 668 601 704 q 676 579 675 632 q 638 482 674 524 q 521 432 592 432 q 428 457 472 432 q 329 563 363 494 q 308 644 310 603 q 360 786 308 707 l 369 801 l 0 801 l -22 864 l 407 864 q 503 999 493 999 q 544 983 522 999 q 678 864 618 931 l 1074 864 l 1096 801 l 1021 801 l 1021 136 l 1019 128 q 972 99 989 122 q 961 64 961 82 q 964 46 961 56 q 1014 8 979 8 q 1047 21 1032 8 q 1063 51 1063 33 q 1050 82 1063 69 q 1029 89 1040 89 q 1001 72 1010 89 l 1000 65 q 1011 47 1000 53 q 1025 54 1025 47 l 1025 58 l 1021 58 q 1025 63 1021 63 q 1028 61 1026 63 q 1032 57 1031 60 l 1031 50 q 1014 39 1026 39 q 999 47 1006 39 q 992 65 992 54 q 1003 88 992 78 q 1028 97 1014 97 q 1056 85 1044 97 q 1071 57 1068 74 q 1043 7 1071 25 q 1014 0 1029 0 z "},"আ":{"ha":1294,"x_min":-22,"x_max":1317,"o":"m 1233 -131 q 1185 -101 1204 -131 q 1174 -61 1174 -82 l 1174 -53 l 1126 -37 l 1126 801 l 1021 801 q 1019 128 1021 132 q 978 105 994 124 q 961 64 961 86 q 964 46 961 54 q 1014 8 976 13 q 1049 21 1032 8 q 1063 53 1063 35 q 1051 79 1063 68 q 1028 90 1039 90 q 1000 64 1006 90 q 1011 47 1000 54 l 1014 47 q 1025 54 1025 47 q 1025 57 1025 56 q 1024 58 1025 58 q 1021 58 1022 58 q 1024 63 1021 63 q 1032 56 1032 61 q 1015 39 1029 39 q 999 47 1007 39 q 992 65 992 54 q 1003 88 992 78 q 1029 97 1014 97 q 1058 85 1046 97 q 1071 54 1069 72 q 1043 7 1071 26 q 1014 0 1029 0 q 997 3 1006 0 q 953 71 953 26 l 953 78 q 907 93 943 82 l 907 358 l 900 364 q 850 399 883 381 q 832 343 844 369 q 713 230 792 265 q 551 194 635 194 l 542 194 q 364 233 453 194 q 211 315 283 267 q 32 510 82 400 q 29 524 29 517 q 36 538 29 533 q 49 543 43 543 q 72 536 60 543 l 75 535 q 133 499 107 519 q 172 438 172 467 q 169 425 171 426 l 181 417 q 206 396 192 406 q 232 378 231 378 q 233 376 233 378 q 310 335 271 354 l 319 332 q 492 290 421 290 l 524 292 q 654 329 593 297 q 732 406 704 358 q 758 510 756 449 q 750 586 758 547 q 719 681 738 635 q 674 768 707 713 q 672 769 674 769 q 628 829 667 779 q 622 835 626 829 q 565 889 592 869 q 446 699 503 796 q 406 596 415 651 l 407 567 q 418 540 411 553 l 429 535 q 474 528 439 528 q 504 536 490 531 q 492 574 492 558 q 519 668 494 628 q 567 704 536 704 q 636 669 603 704 q 676 583 676 633 q 638 482 675 528 q 551 435 601 443 l 521 432 q 428 457 472 432 q 329 563 363 496 q 310 642 311 601 q 358 782 310 708 l 369 801 l 0 801 l -22 864 l 407 864 q 492 994 449 931 q 504 1000 494 1000 q 544 983 526 997 q 678 864 624 926 l 1126 864 l 1242 935 l 1242 864 l 1294 864 l 1317 801 l 1242 801 l 1242 6 l 1239 -1 q 1197 -25 1214 -7 q 1181 -65 1181 -43 q 1185 -85 1181 -75 q 1233 -122 1197 -118 q 1267 -109 1251 -122 q 1282 -78 1282 -96 q 1269 -49 1282 -62 q 1249 -40 1260 -40 q 1221 -58 1232 -40 l 1219 -65 q 1231 -82 1219 -76 l 1235 -82 q 1246 -76 1246 -82 q 1244 -72 1246 -72 q 1242 -72 1243 -72 q 1244 -68 1242 -68 q 1253 -75 1253 -69 q 1235 -92 1249 -92 q 1219 -84 1226 -92 q 1211 -65 1211 -76 q 1222 -42 1211 -53 q 1250 -33 1235 -33 q 1277 -46 1265 -33 q 1290 -76 1289 -58 q 1263 -124 1290 -104 q 1233 -131 1249 -131 m 907 439 l 907 801 l 728 801 q 813 648 778 733 q 854 474 847 563 q 907 439 882 458 z "},"ই":{"ha":710,"x_min":-151,"x_max":761,"o":"m 633 -46 l 631 -46 q 583 -19 607 -46 q 497 68 542 26 l 399 161 l 319 231 q 125 393 257 289 q 86 424 104 407 q 85 425 85 424 l 67 442 q 36 482 47 461 q 29 507 29 493 q 34 520 29 513 q 49 528 39 528 q 61 525 56 528 q 163 451 140 494 l 167 444 q 224 424 192 432 l 235 421 q 304 414 268 414 l 336 415 q 476 454 411 421 q 561 576 551 500 q 536 700 561 644 q 524 728 536 704 q 486 786 511 753 q 410 867 447 838 l 372 893 q 233 704 272 767 q 214 650 218 679 q 216 630 214 635 q 221 623 218 625 q 228 618 224 621 q 283 610 253 610 l 306 615 l 304 617 q 297 644 297 629 q 313 701 299 671 l 315 707 q 372 756 335 756 q 431 732 403 756 q 481 643 481 696 q 443 557 479 592 q 326 514 397 514 q 256 528 290 514 q 142 624 185 558 q 118 701 118 660 q 154 801 118 753 l 0 801 l -22 864 l 197 864 q 271 960 233 913 l 297 994 q 311 1000 303 1000 q 338 992 325 1000 q 525 839 444 929 q 629 911 589 853 q 644 960 640 935 q 642 993 644 976 q 609 1042 632 1019 q 564 1069 586 1064 q 465 1082 515 1082 q 333 1065 399 1079 l 307 1061 q 135 1039 199 1039 q 74 1043 104 1039 q -136 1165 -54 1065 q -151 1203 -151 1185 q -129 1222 -151 1222 q -68 1213 -100 1222 q -33 1206 -51 1208 q 0 1190 -15 1204 q 39 1138 32 1169 q 79 1136 58 1136 q 238 1156 136 1136 q 415 1178 347 1178 q 546 1156 482 1178 q 718 1004 663 1113 q 740 914 740 960 q 733 864 740 885 l 738 864 l 761 801 l 697 801 q 593 743 654 756 q 657 536 650 646 q 628 431 657 474 q 540 356 594 382 q 361 317 461 317 q 310 321 335 317 q 542 110 383 258 q 556 115 547 115 q 569 113 564 115 q 606 89 592 106 q 653 -25 653 40 q 633 -46 653 -44 z "},"ঈ":{"ha":911,"x_min":-150,"x_max":935,"o":"m 689 -1 q 668 4 679 -1 q 604 75 629 22 q 538 303 546 182 q 543 357 538 331 q 361 317 461 317 q 79 432 206 317 q 38 482 54 453 q 29 508 29 494 q 34 521 29 514 q 49 528 39 528 q 63 525 56 528 q 167 446 144 493 q 238 419 188 432 q 303 414 269 414 l 336 415 q 543 518 481 425 q 561 589 560 550 q 557 640 561 615 l 554 653 q 546 679 550 667 q 538 698 542 692 q 534 706 535 704 q 533 711 533 708 q 501 768 518 740 q 374 893 458 824 q 235 704 274 767 q 215 650 219 679 q 271 611 215 611 q 307 615 296 611 q 299 644 299 624 q 326 726 301 685 q 374 756 343 756 q 432 732 404 756 q 467 693 453 717 q 482 643 482 669 q 471 594 482 617 q 443 557 460 572 q 328 514 399 514 q 256 528 290 514 q 143 624 185 558 q 118 703 118 660 l 121 729 q 154 801 132 768 l 0 801 l -24 864 l 199 864 q 313 1000 297 1000 q 367 974 333 1000 q 525 839 457 917 q 629 911 593 853 q 644 969 644 939 l 643 993 q 624 1028 638 1013 q 574 1065 603 1051 l 564 1069 q 467 1082 515 1082 q 339 1067 403 1079 l 307 1061 q 135 1039 200 1039 q 75 1043 104 1039 q -135 1165 -54 1065 q -150 1203 -150 1185 q -129 1222 -150 1222 q -65 1213 -97 1222 l -47 1208 q 1 1190 -15 1204 q 39 1138 32 1169 q 79 1136 58 1136 q 239 1156 139 1136 q 415 1178 347 1178 q 544 1156 482 1178 q 651 1092 606 1135 q 718 1004 694 1056 q 742 913 742 960 q 735 864 740 889 l 911 864 l 935 801 l 699 801 q 593 743 656 756 q 658 538 653 640 l 700 579 q 765 657 738 614 q 788 728 783 690 q 808 740 790 740 q 843 725 822 740 l 844 724 q 875 689 864 710 q 883 665 883 678 l 882 656 q 765 471 871 564 l 758 465 q 664 356 704 417 q 635 250 636 301 q 646 169 635 207 q 664 160 650 168 q 708 97 703 133 l 710 61 q 706 11 710 36 q 689 -1 703 1 z "},"উ":{"ha":824,"x_min":-24,"x_max":846,"o":"m 467 25 q 363 44 414 25 q 201 154 272 83 q 42 479 76 293 q 29 608 29 535 l 29 617 q 46 706 29 663 q 64 718 53 718 q 89 711 76 718 q 139 654 125 692 q 149 608 149 632 q 143 581 149 594 q 126 568 138 568 l 125 539 q 165 332 125 443 q 251 203 193 267 q 368 125 310 140 q 411 122 389 122 q 501 146 460 122 q 619 275 575 196 q 697 526 685 393 l 697 535 q 658 511 678 521 l 650 507 q 513 468 586 475 q 508 467 511 467 q 470 443 486 461 q 454 404 454 425 q 458 385 454 394 q 507 347 472 351 q 542 360 526 347 q 556 392 556 375 q 544 419 556 408 q 522 429 533 429 q 494 411 506 429 l 493 404 q 504 388 493 394 l 508 388 q 519 396 519 388 l 519 399 l 515 399 q 516 402 515 401 q 522 401 517 403 q 526 396 526 400 q 508 378 522 378 q 492 386 500 378 q 485 404 485 394 q 496 428 485 417 q 524 436 508 436 q 550 424 539 436 q 564 397 561 413 q 538 347 564 364 q 507 340 522 340 q 460 369 476 340 q 447 417 447 388 q 401 432 438 421 l 401 801 l 0 801 l -24 864 l 614 864 q 692 925 664 878 q 706 975 706 950 q 692 1016 706 1000 q 657 1039 679 1032 q 596 1049 626 1049 q 457 1022 524 1044 q 351 986 406 1003 q 219 964 296 969 q 28 1042 111 964 q 1 1092 1 1067 q 15 1110 1 1108 q 44 1114 29 1113 l 67 1113 q 106 1110 86 1110 q 125 1106 115 1110 q 171 1060 153 1089 q 185 1061 174 1061 q 349 1104 269 1074 q 383 1117 365 1111 q 535 1144 478 1144 q 567 1143 551 1144 q 754 1039 688 1131 q 803 917 803 983 q 792 864 803 886 l 824 864 l 846 801 l 515 801 l 515 576 q 594 611 557 590 l 624 632 q 689 699 651 653 q 708 711 692 708 q 722 708 714 711 q 746 697 735 706 q 786 636 779 668 q 796 525 796 568 q 747 271 796 394 q 664 129 717 193 q 539 36 615 64 q 467 25 504 25 z "},"ঊ":{"ha":956,"x_min":-22,"x_max":979,"o":"m 599 25 q 494 44 546 25 q 344 143 410 79 q 67 526 161 299 q 33 633 44 579 q 29 671 29 653 q 53 718 29 718 q 114 679 90 711 q 143 606 143 646 q 132 571 143 581 q 161 489 142 528 l 179 451 q 161 592 161 518 q 164 658 161 636 q 196 718 172 718 q 221 711 208 718 q 271 654 257 692 q 281 608 281 632 q 275 581 281 594 q 258 568 269 568 l 257 539 q 297 332 257 440 q 355 235 317 283 q 444 155 393 188 q 549 122 494 122 q 633 146 593 124 q 751 275 707 196 q 829 526 817 393 l 829 535 q 790 511 810 521 l 782 507 q 644 468 717 475 q 640 467 643 467 q 602 443 618 461 q 586 404 586 425 q 590 385 586 394 q 639 347 603 350 q 674 360 658 347 q 688 392 688 375 q 676 419 688 408 q 654 429 665 429 q 626 411 638 429 l 625 404 q 636 388 625 394 l 640 388 q 651 394 651 388 q 651 397 651 396 q 650 399 651 399 q 647 399 649 399 q 650 403 647 403 q 658 396 658 401 q 640 378 654 378 q 624 386 632 378 q 617 404 617 394 q 628 426 617 417 q 656 436 640 436 q 683 424 671 436 q 696 393 694 411 q 668 347 696 364 q 639 340 654 340 q 590 368 608 340 q 579 408 579 388 l 579 417 q 572 420 575 419 q 532 432 569 421 l 532 801 l 0 801 l -22 864 l 746 864 q 824 925 796 879 q 838 975 838 953 q 825 1014 836 1000 q 790 1039 810 1033 l 789 1039 q 728 1049 761 1049 q 589 1022 661 1046 q 485 986 538 1003 q 351 964 419 967 q 160 1042 242 964 q 133 1092 135 1064 q 147 1111 133 1110 q 176 1114 160 1113 l 199 1113 q 238 1110 218 1110 q 257 1104 247 1110 q 303 1060 286 1088 q 317 1061 307 1061 q 481 1104 401 1074 q 667 1144 593 1144 l 697 1143 q 886 1039 817 1132 q 933 917 933 983 q 924 864 933 885 l 956 864 l 979 801 l 647 801 l 647 576 q 819 696 764 614 l 821 699 q 830 709 824 707 q 840 711 836 711 q 854 708 846 711 q 878 696 867 706 q 917 636 911 668 q 928 525 926 581 q 879 271 928 394 q 796 129 849 193 q 671 36 747 64 q 599 25 636 25 z "},"ঋ":{"ha":931,"x_min":29,"x_max":953,"o":"m 869 0 q 853 3 861 0 q 810 68 810 25 l 810 78 q 763 93 800 82 l 763 296 q 694 343 746 313 q 660 360 671 357 q 658 128 660 132 q 617 105 633 124 q 600 64 600 86 q 603 46 600 54 q 653 8 615 13 q 688 21 671 8 q 701 53 701 35 q 690 79 701 68 q 667 90 678 90 q 639 64 644 90 q 650 47 639 54 l 653 47 q 664 54 664 47 q 664 57 664 56 q 663 58 664 58 q 660 58 661 58 q 663 63 660 63 q 671 56 671 61 q 654 39 668 39 q 638 47 646 39 q 631 65 631 54 q 642 88 631 78 q 668 97 653 97 q 697 85 685 97 q 710 54 708 72 q 682 7 710 26 q 653 0 668 0 q 636 3 644 0 q 592 71 592 26 l 592 78 q 546 93 582 82 q 513 115 526 101 q 488 153 494 133 q 463 222 481 186 q 446 254 451 246 l 433 272 q 408 304 421 292 l 399 314 q 381 332 386 329 l 379 333 q 358 349 369 342 q 328 369 340 364 l 324 372 q 274 399 300 388 q 257 406 264 401 l 228 415 q 107 440 169 433 q 93 443 100 440 q 46 479 65 454 q 29 515 32 496 q 39 535 29 531 q 515 754 275 650 q 514 756 515 756 q 494 776 513 757 q 472 797 476 794 l 436 826 l 433 826 q 411 765 429 794 q 342 707 388 724 q 289 696 315 696 q 151 757 214 696 q 89 894 89 818 q 100 949 89 922 q 151 1010 117 988 q 200 1026 171 1026 q 236 1015 219 1026 q 281 976 264 1003 q 304 918 304 951 q 299 889 304 901 q 288 864 294 876 q 229 829 269 829 q 186 847 204 833 l 186 825 q 208 797 189 806 q 217 794 213 794 q 225 793 222 793 q 283 808 260 793 q 339 896 331 838 q 338 915 339 907 q 347 935 338 928 q 357 938 351 938 q 371 935 364 938 q 546 811 457 904 l 546 864 l 660 864 l 660 439 q 763 376 715 414 l 763 864 l 931 864 l 953 801 l 878 801 l 878 136 q 875 128 878 132 q 833 106 850 124 q 817 65 817 88 q 821 46 817 56 q 869 8 833 13 q 903 22 889 8 q 918 53 918 35 q 906 82 918 68 q 885 90 896 90 q 857 72 868 90 l 856 64 q 867 47 856 54 l 871 47 q 882 54 882 47 q 882 57 882 56 q 881 58 882 58 q 878 58 879 58 q 881 63 878 63 q 889 56 889 61 q 871 39 886 39 q 855 47 863 39 q 847 65 847 54 q 858 89 847 78 q 886 97 871 97 q 913 85 901 97 q 926 54 925 72 q 899 7 926 26 q 869 0 885 0 m 546 213 l 546 642 q 228 496 389 574 q 460 339 363 444 q 546 213 511 281 z "},"এ":{"ha":896,"x_min":29,"x_max":892,"o":"m 139 286 q 194 251 158 261 l 215 246 q 276 240 246 240 l 307 242 q 417 261 363 249 q 438 265 428 264 q 524 284 481 276 q 610 292 567 292 l 625 292 q 729 260 682 288 l 729 644 q 723 672 728 658 q 714 694 718 686 l 710 707 l 701 724 q 696 733 699 728 q 690 744 693 739 q 686 754 688 750 q 685 757 685 756 q 683 758 683 757 l 669 778 l 629 826 l 600 853 l 594 860 q 589 864 592 863 q 579 871 583 867 l 557 888 l 549 893 l 479 804 l 460 776 q 410 704 433 742 q 390 650 394 679 l 390 633 l 396 622 l 397 622 l 397 621 l 408 617 l 421 613 q 458 610 440 610 q 482 615 471 611 l 481 617 q 474 644 474 629 l 474 650 q 489 701 478 678 q 502 726 494 714 q 519 747 510 739 q 549 756 533 756 q 607 732 579 756 q 642 693 628 717 q 657 643 657 669 l 657 638 q 644 593 656 614 q 618 557 635 572 q 536 517 585 524 q 503 514 519 514 q 431 528 465 514 q 318 624 360 558 q 293 703 293 660 l 296 729 q 343 821 310 779 q 474 994 404 910 q 488 1000 479 1000 q 502 997 494 1000 q 514 992 510 994 q 606 929 563 965 q 706 832 651 893 q 802 701 761 771 q 843 568 843 631 l 843 136 q 840 128 843 132 q 800 106 817 124 q 783 64 783 88 q 786 46 783 56 q 824 10 797 19 l 836 8 q 871 21 854 8 q 885 53 885 36 q 872 82 885 68 q 850 90 861 90 q 824 72 833 90 l 822 64 q 832 47 822 53 l 836 47 q 844 49 840 47 q 847 54 847 50 l 847 57 q 847 58 847 58 q 845 58 846 58 q 843 58 844 58 q 844 62 843 61 q 846 63 844 63 l 850 61 q 854 56 854 60 l 853 50 q 838 39 847 39 q 822 46 829 39 q 814 65 814 56 q 824 89 814 78 q 850 97 836 97 l 853 97 q 878 85 868 97 q 892 57 889 74 l 892 53 q 865 7 892 26 q 836 0 850 0 q 819 3 828 0 q 775 68 775 25 l 775 78 l 765 82 q 740 90 750 86 q 733 92 736 90 q 731 93 732 92 l 729 93 l 729 175 l 726 181 l 726 185 l 721 186 l 717 189 l 704 192 q 663 196 683 196 l 638 194 q 490 167 564 185 l 472 163 q 326 144 400 144 l 315 144 q 172 183 239 146 q 50 308 92 226 q 29 397 29 351 q 39 450 29 424 q 57 463 46 463 l 71 460 q 149 390 124 440 q 160 347 160 369 q 153 321 160 333 q 149 313 151 315 q 142 308 146 310 l 129 308 l 133 296 q 138 289 136 292 l 139 286 z "},"ঐ":{"ha":1347,"x_min":29,"x_max":1319,"o":"m 1151 858 l 1119 889 q 1048 943 1079 925 q 975 978 1017 961 q 936 996 958 986 q 854 1031 896 1014 q 668 1114 760 1067 q 499 1236 576 1161 q 427 1322 460 1272 q 394 1428 394 1372 q 410 1486 394 1458 q 416 1495 411 1493 q 428 1499 421 1497 l 429 1499 q 539 1403 508 1479 q 546 1365 546 1385 q 542 1340 546 1350 q 531 1318 539 1331 q 518 1313 525 1313 l 513 1313 q 524 1297 521 1301 q 531 1289 528 1292 q 538 1283 533 1286 l 557 1264 l 558 1264 q 565 1258 563 1261 q 585 1242 576 1249 q 610 1225 594 1235 q 625 1215 617 1219 l 639 1207 q 684 1181 669 1189 q 713 1168 699 1174 q 757 1149 728 1163 l 824 1121 q 985 1051 906 1089 q 1132 960 1064 1014 q 1263 812 1207 899 q 1319 626 1319 725 q 1302 526 1317 568 q 1254 443 1288 485 q 1039 342 1163 342 q 843 407 935 342 l 843 136 q 840 128 843 132 q 800 106 817 124 q 783 64 783 88 q 836 8 783 18 q 869 21 854 8 q 885 51 885 33 q 874 78 885 67 q 850 90 864 90 q 822 64 824 90 q 836 47 822 50 q 844 49 840 47 q 847 54 847 50 q 847 58 847 57 q 843 58 846 58 q 844 62 843 61 q 846 63 844 63 l 846 61 q 852 60 850 61 q 854 56 854 60 q 838 39 851 39 q 821 47 828 39 q 814 65 814 56 q 853 97 814 94 q 880 85 869 97 q 892 53 890 72 q 874 15 892 31 q 836 0 857 0 q 792 22 808 0 q 775 68 775 44 l 775 78 q 743 90 756 86 q 735 92 738 90 q 731 93 732 92 l 729 93 l 729 175 q 727 179 728 176 q 726 185 726 182 q 713 189 718 186 q 691 194 701 192 q 663 196 681 196 q 504 169 576 190 q 421 152 464 160 q 326 144 378 144 q 163 188 238 146 q 50 308 88 229 q 29 397 29 351 q 35 440 29 418 q 57 463 40 463 q 149 390 121 449 q 160 349 160 369 q 156 325 160 336 q 142 308 151 314 l 129 308 q 163 271 136 290 q 215 246 190 251 q 276 240 246 240 q 444 267 369 246 q 524 284 483 276 q 610 292 564 292 q 729 260 678 292 l 729 644 q 715 697 725 675 q 697 734 706 718 q 681 763 688 750 l 646 808 q 603 851 617 838 q 582 869 589 864 q 568 881 575 875 q 549 893 561 885 l 479 804 l 457 774 q 390 650 407 718 q 391 639 390 643 q 393 628 392 635 l 393 626 l 394 624 l 396 624 l 396 622 l 421 613 q 458 610 440 610 q 482 615 471 611 q 475 628 476 621 q 474 644 474 636 q 489 701 475 676 q 513 740 497 724 q 549 756 528 756 q 622 720 586 756 q 657 643 657 685 q 604 545 651 576 q 503 514 557 514 q 398 544 446 514 q 318 624 350 574 q 293 704 293 661 q 309 766 297 742 q 343 821 321 790 q 474 994 404 910 q 488 1000 479 1000 q 502 997 494 1000 q 514 992 510 994 q 655 884 579 954 q 787 729 731 814 q 843 568 843 644 l 843 486 q 849 482 847 483 q 853 479 851 481 q 854 477 853 478 q 858 475 856 476 q 864 471 860 474 l 864 469 q 919 445 896 453 q 983 438 943 438 q 1150 509 1083 442 q 1222 679 1217 576 q 1215 751 1222 728 q 1183 815 1208 774 q 1172 829 1176 824 q 1164 840 1168 835 q 1153 857 1160 846 l 1151 858 z "},"ও":{"ha":806,"x_min":29,"x_max":778,"o":"m 561 35 q 494 42 528 35 q 144 281 301 79 q 57 426 92 349 q 38 478 46 454 q 29 538 31 503 q 47 556 29 554 q 76 547 65 554 q 150 461 111 525 q 158 435 158 449 q 156 427 157 432 q 150 419 154 422 q 140 415 146 417 q 174 350 160 372 l 176 346 q 228 275 189 324 l 258 243 q 317 193 286 217 q 335 181 326 188 q 371 161 353 169 l 382 157 q 510 132 439 132 q 618 161 567 133 q 664 203 646 176 q 681 258 678 229 q 677 297 681 279 q 667 329 674 314 q 655 342 661 336 q 642 351 649 347 l 624 361 q 622 363 622 361 q 542 383 582 378 q 486 394 506 383 q 444 436 460 408 q 443 438 443 436 q 435 463 435 450 q 436 473 435 467 q 443 479 438 479 q 457 483 449 483 l 489 479 l 524 479 q 600 503 565 483 q 679 639 675 544 q 676 666 679 651 q 669 693 674 681 q 661 714 665 706 q 606 801 646 750 q 594 813 600 807 q 584 824 589 818 q 574 833 579 829 q 567 841 569 838 q 561 844 564 844 l 561 846 q 529 871 546 858 q 494 894 513 883 l 413 792 q 351 707 379 750 q 335 646 335 679 l 338 638 l 364 626 l 393 625 q 428 629 418 625 q 419 653 419 640 q 436 713 424 690 q 475 760 447 743 q 496 765 485 765 q 528 757 513 765 q 600 681 581 733 q 604 651 604 667 q 565 568 603 603 q 447 528 518 528 q 376 542 411 528 q 269 624 311 567 q 238 713 238 664 q 288 826 244 775 q 421 994 350 914 q 433 1000 426 1000 q 460 992 446 1000 q 668 822 579 926 q 768 638 739 742 q 776 579 776 608 q 764 511 776 544 q 676 410 738 446 q 672 407 675 410 q 751 314 724 369 q 778 211 778 264 q 683 63 778 107 q 561 35 624 35 z "},"ঔ":{"ha":1071,"x_min":29,"x_max":1042,"o":"m 561 35 q 494 42 528 35 q 288 136 381 64 q 144 281 208 199 q 38 481 71 376 q 29 535 29 508 q 49 556 29 554 l 51 556 q 99 529 75 556 q 150 461 129 499 q 158 435 158 449 q 156 427 157 432 q 151 419 156 422 q 140 415 147 417 q 147 403 144 410 q 151 390 150 397 l 174 350 q 228 275 199 311 q 229 274 229 275 q 282 222 275 226 q 293 213 286 217 l 331 185 q 351 171 339 176 l 363 165 q 510 132 431 132 q 618 161 567 133 q 663 203 646 176 q 681 269 679 229 q 678 299 681 283 q 676 308 678 304 q 674 315 675 311 q 672 319 672 319 q 671 321 671 319 q 654 343 664 333 l 642 351 l 624 361 q 622 363 622 361 q 542 383 582 378 q 486 394 506 383 q 444 436 457 413 q 443 438 443 436 q 435 463 435 450 q 440 478 436 474 q 457 483 443 483 l 489 479 l 525 479 q 601 503 565 483 q 657 558 638 524 q 681 628 676 592 q 677 664 681 647 q 669 694 674 681 q 628 774 647 747 l 611 794 l 529 871 l 504 889 q 496 894 500 890 q 424 806 458 851 l 413 792 q 351 707 379 750 q 335 646 335 678 q 338 640 336 642 q 339 637 339 638 q 340 636 339 636 l 364 626 l 393 625 q 428 629 418 625 q 421 657 421 642 q 436 713 422 686 q 475 760 449 743 q 497 765 486 765 q 528 757 513 765 q 600 681 581 732 q 606 654 606 668 q 565 568 601 601 q 447 528 518 528 q 376 542 411 528 q 271 624 311 567 q 239 715 239 665 l 240 736 q 421 994 261 810 q 435 1000 426 1000 q 461 992 447 1000 q 668 822 581 926 q 768 638 739 742 q 776 581 776 610 q 740 465 776 518 q 915 588 853 486 q 944 699 943 639 q 935 768 944 740 q 925 794 931 782 q 905 833 907 829 q 890 851 903 836 q 854 890 874 874 q 800 933 844 900 l 799 933 q 796 935 799 935 q 703 985 767 957 q 575 1040 640 1014 q 431 1100 501 1068 q 221 1240 314 1154 q 132 1364 164 1294 q 118 1429 118 1396 q 136 1493 118 1465 q 150 1499 139 1499 q 164 1496 158 1499 q 236 1446 204 1482 q 268 1368 268 1410 q 253 1319 268 1343 q 243 1314 250 1314 l 236 1315 l 251 1297 q 260 1287 256 1292 q 269 1278 265 1282 q 276 1272 274 1275 q 281 1269 279 1269 q 318 1240 306 1247 q 328 1233 324 1238 l 374 1207 q 458 1167 450 1169 q 544 1131 501 1147 q 769 1029 678 1082 q 1024 747 958 921 q 1042 644 1042 697 q 965 454 1042 533 q 761 367 882 367 q 714 369 738 367 q 778 211 778 297 q 761 136 778 172 q 683 63 743 90 q 561 35 624 35 z "},"ক":{"ha":965,"x_min":-22,"x_max":988,"o":"m 651 0 q 635 3 643 0 q 592 68 592 25 l 592 78 q 549 92 582 82 q 488 153 497 118 q 472 199 482 176 l 468 213 l 442 261 q 424 285 432 272 l 413 300 q 386 326 400 314 q 360 348 372 338 q 335 365 347 358 q 272 399 307 383 l 244 410 q 107 440 185 432 q 92 443 99 440 q 81 449 85 446 q 29 519 35 475 q 36 533 29 528 l 40 536 q 546 768 340 679 l 546 801 l 0 801 l -22 864 l 965 864 l 988 801 l 660 801 l 660 788 q 728 774 694 785 q 886 653 828 739 q 936 499 936 581 q 875 350 936 410 q 824 318 853 328 q 804 315 814 315 q 763 326 782 315 q 696 399 719 353 q 676 457 676 431 q 694 503 676 483 q 793 535 731 535 q 817 533 806 535 q 838 526 828 531 q 839 554 839 531 q 835 592 839 575 q 825 625 832 610 l 814 639 q 738 688 782 676 q 682 692 710 692 l 660 688 l 660 136 q 657 128 660 132 q 617 106 633 124 q 600 64 600 88 q 603 46 600 56 q 651 8 617 13 q 685 22 671 8 q 700 53 700 35 q 688 82 700 68 q 667 90 678 90 q 639 72 650 90 l 638 64 q 649 47 638 54 l 653 47 q 664 54 664 47 q 664 57 664 56 q 663 58 664 58 q 660 58 661 58 q 663 63 660 63 q 671 56 671 61 q 653 39 668 39 q 637 47 644 39 q 629 65 629 54 q 640 89 629 78 q 668 97 653 97 q 695 85 683 97 q 708 54 707 72 q 682 7 708 26 q 651 0 667 0 m 546 213 l 546 642 q 226 496 389 574 q 458 339 361 444 q 546 213 510 281 z "},"খ":{"ha":764,"x_min":29,"x_max":788,"o":"m 704 0 q 688 3 696 0 q 643 71 643 26 l 643 78 l 633 82 q 588 97 594 93 q 542 142 560 111 q 504 194 529 164 l 464 235 l 406 279 l 361 306 l 300 336 l 275 346 q 174 375 225 365 l 169 376 q 110 386 140 379 q 43 438 65 396 q 35 464 35 453 q 43 478 38 475 q 56 482 49 482 q 122 473 89 478 q 192 468 156 468 l 231 469 q 360 506 300 475 q 442 626 431 547 q 431 701 442 671 l 424 717 q 407 740 415 733 q 408 714 408 729 q 388 631 407 671 q 263 528 347 550 q 232 525 247 525 q 171 538 201 525 q 51 640 96 571 q 29 724 29 679 q 40 779 29 751 q 129 869 68 842 q 157 875 143 875 q 258 815 215 875 q 275 765 275 792 q 226 699 268 718 q 181 688 204 688 l 165 689 q 133 703 149 692 q 125 672 128 689 l 126 650 l 128 647 q 143 631 131 639 q 182 622 156 622 q 231 638 208 625 q 289 698 268 661 q 311 775 310 735 q 308 808 310 800 q 300 826 306 817 q 283 864 286 847 q 301 888 283 885 q 329 879 314 888 q 479 751 421 829 q 538 582 538 672 q 468 435 538 490 q 360 383 419 397 q 597 175 506 304 l 597 864 l 764 864 l 788 801 l 711 801 q 710 128 711 132 q 668 105 685 124 q 651 64 651 86 q 654 46 651 54 q 704 8 667 13 q 739 21 722 8 q 753 53 753 35 q 741 79 753 68 q 718 90 729 90 q 690 64 696 90 q 701 47 690 54 l 704 47 q 715 54 715 47 q 715 57 715 56 q 714 58 715 58 q 711 58 713 58 q 714 63 711 63 q 722 56 722 61 q 706 39 719 39 q 690 47 697 39 q 682 65 682 54 q 693 88 682 78 q 719 97 704 97 q 748 85 736 97 q 761 54 760 72 q 733 7 761 26 q 704 0 718 0 z "},"গ":{"ha":689,"x_min":29,"x_max":713,"o":"m 629 0 q 613 3 621 0 q 568 68 568 25 l 568 78 q 561 81 564 81 q 522 93 558 82 q 519 651 522 640 q 470 722 506 692 q 369 789 435 753 q 289 815 333 813 q 226 797 256 814 q 156 725 183 771 q 129 664 144 704 l 140 664 q 195 667 168 664 q 250 669 222 669 q 392 622 335 669 q 465 494 465 564 l 463 472 q 435 418 456 442 q 393 375 415 394 q 297 333 346 333 q 258 340 278 333 q 197 401 215 358 l 194 415 q 215 435 194 435 q 235 429 225 433 l 246 429 q 324 478 282 435 q 369 550 361 511 q 363 564 369 561 q 353 568 357 567 q 347 569 349 569 q 301 574 325 574 q 246 571 272 574 q 194 567 219 568 q 150 572 172 567 q 54 633 90 582 q 29 700 29 665 q 42 754 32 735 l 46 765 q 201 910 94 886 l 229 913 q 335 885 285 913 q 515 765 433 839 q 522 758 518 761 l 522 864 l 689 864 l 713 801 l 636 801 l 636 136 q 633 128 636 132 q 593 106 610 124 q 576 64 576 88 q 579 46 576 56 q 629 8 592 13 q 664 21 647 8 q 678 53 678 36 q 665 82 678 68 q 643 90 654 90 q 615 64 621 90 q 625 47 615 53 l 629 47 q 640 54 640 47 q 640 57 640 56 q 639 58 640 58 q 636 58 638 58 q 639 63 636 63 q 647 56 647 61 q 631 39 644 39 q 615 47 622 39 q 607 65 607 54 q 616 88 607 78 q 644 97 625 97 q 672 85 661 97 q 685 53 683 72 q 658 7 685 26 q 629 0 643 0 z "},"ঘ":{"ha":704,"x_min":-24,"x_max":728,"o":"m 643 0 q 626 3 635 0 q 583 68 583 25 l 583 78 l 540 92 q 502 117 518 100 q 469 150 486 133 q 363 229 418 199 q 253 279 301 265 l 246 282 q 103 314 175 306 q 46 351 71 318 q 44 353 44 351 q 29 386 32 368 q 40 410 29 401 q 196 500 153 472 q 153 533 172 513 q 86 676 86 596 q 139 801 88 746 l 0 801 l -24 864 l 704 864 l 728 801 l 651 801 q 649 128 651 136 q 607 106 624 124 q 590 65 590 88 q 594 46 590 56 q 643 8 607 13 q 677 22 663 8 q 692 53 692 35 q 679 82 692 68 q 658 90 669 90 q 631 72 642 90 l 629 64 q 640 47 629 54 l 644 47 q 656 54 656 47 q 656 57 656 56 q 654 58 656 58 q 651 58 653 58 q 654 63 651 63 q 663 56 663 61 q 644 39 660 39 q 628 47 636 39 q 621 65 621 54 q 632 89 621 78 q 660 97 644 97 q 687 85 675 97 q 700 54 699 72 q 672 7 700 26 q 643 0 658 0 m 536 169 l 536 801 l 347 801 q 351 788 351 794 q 339 767 351 769 q 260 742 297 761 q 200 683 224 719 q 183 621 185 654 q 186 599 183 610 q 207 578 189 589 q 249 568 225 568 l 253 568 q 347 600 303 576 l 376 619 q 393 624 385 624 q 442 597 415 624 q 468 547 468 571 q 463 533 468 539 q 217 374 350 449 q 536 169 403 310 z "},"ঙ":{"ha":825,"x_min":10,"x_max":796,"o":"m 469 25 q 290 76 381 25 q 150 197 210 122 q 46 415 74 296 q 29 542 29 478 q 46 629 29 588 q 63 642 51 642 q 86 636 79 640 l 90 635 q 139 578 125 615 q 150 536 150 557 q 144 511 150 524 q 126 499 139 499 l 126 481 q 164 307 126 392 q 165 301 165 303 q 172 288 165 299 q 197 242 185 258 q 242 188 204 226 q 246 185 244 185 q 261 172 254 176 q 272 165 268 168 q 279 160 275 163 q 336 133 296 150 q 413 122 368 122 q 514 149 465 124 q 636 281 590 199 q 697 468 685 368 q 531 415 600 415 q 467 428 499 415 q 368 506 407 453 q 324 644 324 567 q 326 683 324 664 q 49 817 167 717 q 10 879 14 843 q 10 886 10 882 q 14 893 11 890 q 22 897 17 896 q 94 908 60 908 q 176 883 147 908 q 215 824 215 854 q 213 815 214 819 q 208 807 213 810 q 199 804 204 804 q 349 767 264 776 l 364 804 q 407 881 382 844 q 468 938 432 917 q 521 953 489 950 q 574 940 549 953 q 657 824 646 901 l 657 814 q 632 739 657 774 q 469 669 578 669 l 453 668 l 435 669 q 421 590 422 632 q 429 536 421 553 q 481 511 444 511 q 614 557 546 519 q 694 631 665 585 q 707 636 697 636 q 724 632 714 635 q 743 622 733 629 l 747 619 q 786 561 778 597 q 796 460 796 514 q 744 235 796 343 q 662 111 714 167 q 536 33 610 56 q 469 25 503 25 m 481 776 q 558 851 538 796 q 481 776 511 831 z "},"চ":{"ha":628,"x_min":-22,"x_max":651,"o":"m 160 0 q 143 3 151 0 q 99 68 99 25 l 99 78 q 92 81 94 81 q 53 93 89 82 l 53 801 l 0 801 l -22 864 l 628 864 l 651 801 l 167 801 l 167 743 l 168 742 q 235 697 175 728 q 349 679 286 679 l 385 681 q 439 690 413 682 q 472 700 456 693 q 483 704 478 704 q 569 626 536 699 q 599 489 599 561 q 596 444 599 467 q 488 238 576 324 q 354 156 429 183 q 157 126 271 126 q 121 103 135 121 q 107 64 107 85 q 110 46 107 54 q 158 8 124 13 q 194 21 178 8 q 208 53 208 36 q 196 82 208 68 q 174 90 185 90 q 146 72 156 90 l 144 65 q 156 47 144 54 l 160 47 q 171 54 171 47 q 171 57 171 56 q 169 58 171 58 q 167 58 168 58 q 169 63 167 63 q 178 56 178 61 q 160 39 175 39 q 144 47 151 39 q 138 64 138 54 q 175 97 138 97 q 203 85 192 97 q 215 54 214 72 q 189 7 215 26 q 160 0 174 0 m 167 225 q 338 276 257 235 l 344 281 q 371 299 358 289 q 475 428 440 351 q 501 544 500 482 q 499 592 501 568 l 493 592 q 403 583 449 583 q 167 658 264 583 l 167 225 z "},"ছ":{"ha":631,"x_min":-24,"x_max":654,"o":"m 561 -42 q 538 -36 547 -42 l 535 -35 q 444 22 486 -11 q 306 164 365 83 q 256 246 275 201 q 228 347 228 296 l 228 358 q 238 369 229 361 l 247 371 q 297 368 267 368 q 410 404 357 375 q 506 536 494 454 q 503 574 506 556 l 501 579 q 497 593 500 585 q 491 610 494 601 q 485 624 488 618 l 481 628 q 410 490 476 543 q 164 424 319 424 q 124 401 140 419 q 107 361 107 383 q 111 342 107 351 q 160 304 124 308 q 194 317 179 304 q 208 349 208 331 q 196 378 208 364 q 175 386 186 386 q 147 368 158 386 l 146 361 q 157 344 146 350 l 161 344 q 172 350 172 344 q 171 354 172 354 l 168 354 q 169 358 168 357 q 171 358 169 358 q 176 356 172 358 q 179 351 179 354 q 161 335 174 335 q 145 342 153 335 q 138 361 138 350 q 149 385 138 374 q 176 393 161 393 q 203 381 192 393 q 217 353 214 369 q 189 303 217 322 q 160 296 175 296 q 111 325 132 296 q 100 374 100 344 l 53 389 l 53 801 l 0 801 l -24 864 l 631 864 l 654 801 l 168 801 l 168 776 q 192 763 176 769 q 276 746 228 746 q 385 767 340 749 q 401 769 396 769 q 436 753 418 767 q 582 579 536 688 q 603 489 603 535 q 596 440 603 464 q 421 283 558 328 q 326 272 379 272 q 331 253 326 268 q 354 208 333 243 q 460 89 390 149 q 466 103 460 97 q 479 110 472 110 l 493 107 q 569 29 549 83 q 582 -17 579 7 q 561 -42 582 -37 m 168 524 q 301 563 238 529 q 378 653 361 597 q 333 650 356 650 q 168 697 239 650 l 168 524 z "},"জ":{"ha":1147,"x_min":-24,"x_max":1171,"o":"m 1031 -224 q 1003 -217 1017 -224 q 901 -124 942 -181 q 839 81 839 -40 q 847 176 839 129 q 965 469 871 328 q 664 654 782 510 q 607 744 631 696 q 500 582 539 661 l 493 567 q 472 501 478 536 l 475 496 q 486 482 479 490 q 541 454 506 463 q 613 446 576 446 l 638 447 q 733 475 689 451 l 735 476 q 746 481 739 481 q 758 479 754 481 q 765 478 761 478 q 773 474 768 478 q 782 471 778 471 q 817 442 803 460 q 832 405 831 424 q 836 369 833 386 l 836 343 q 824 220 836 282 q 771 107 811 158 q 678 41 733 61 q 565 21 624 21 q 269 138 404 28 q 93 329 165 219 q 49 413 67 371 q 29 488 31 456 q 51 507 29 506 q 78 497 65 506 q 146 426 113 474 q 163 389 163 404 q 149 369 163 376 l 147 369 q 176 321 156 353 q 235 250 193 294 q 269 217 246 238 q 342 164 333 169 q 361 154 351 158 q 440 127 400 136 q 519 118 481 118 q 632 147 576 119 q 738 349 728 207 l 739 357 q 665 350 701 350 q 569 363 617 350 q 410 461 465 386 q 376 556 376 501 q 400 643 378 599 l 403 649 q 497 801 447 735 l 0 801 l -24 864 l 1147 864 l 1171 801 l 672 801 q 674 797 672 800 q 675 786 675 793 q 676 771 675 779 l 678 768 q 688 738 681 753 q 735 667 710 694 l 751 650 q 832 594 792 613 l 844 589 q 1003 558 907 558 q 1043 560 1024 558 q 1063 554 1051 560 q 1101 521 1085 540 q 1118 483 1118 501 q 1113 468 1118 475 q 1004 300 1046 386 q 936 25 942 171 q 942 -49 936 -12 q 960 -42 947 -42 q 996 -58 981 -44 q 1053 -185 1053 -103 l 1053 -190 q 1047 -212 1051 -201 q 1031 -224 1042 -222 z "},"ঝ":{"ha":929,"x_min":-24,"x_max":953,"o":"m 869 0 q 853 3 861 0 q 808 68 808 25 l 808 78 q 763 93 799 82 l 763 296 l 761 296 q 758 300 760 299 q 756 301 757 301 q 721 328 739 315 l 713 333 q 693 344 703 340 q 660 360 665 358 l 660 136 q 657 128 660 132 q 617 106 633 124 q 600 64 600 88 q 603 46 600 56 q 651 8 617 13 q 685 22 671 8 q 700 53 700 35 q 688 82 700 68 q 667 90 678 90 q 639 72 650 90 l 638 64 q 649 47 638 54 l 653 47 q 664 54 664 47 q 664 57 664 56 q 663 58 664 58 q 660 58 661 58 q 663 63 660 63 q 671 56 671 61 q 653 39 668 39 q 637 47 644 39 q 629 65 629 54 q 640 89 629 78 q 668 97 653 97 q 695 85 683 97 q 708 54 707 72 q 682 7 708 26 q 651 0 667 0 q 635 3 643 0 q 592 68 592 25 l 592 78 q 546 93 582 82 q 511 115 526 101 q 488 153 492 138 q 474 197 482 176 q 457 233 465 217 l 446 251 l 413 300 q 341 357 388 326 q 256 406 294 388 l 226 415 q 107 440 171 433 q 92 443 99 440 q 35 496 53 460 q 29 519 31 503 q 32 529 29 525 l 40 536 q 546 768 340 679 l 546 801 l 0 801 l -24 864 l 660 864 l 660 439 q 763 376 713 413 l 763 864 l 929 864 l 953 801 l 876 801 q 875 128 876 136 q 833 106 850 124 q 817 64 817 88 q 819 46 817 56 q 869 8 832 13 q 904 21 888 8 q 918 53 918 35 q 906 79 918 68 q 883 90 894 90 q 856 64 861 90 q 865 47 856 53 l 869 47 q 881 54 881 47 q 881 57 881 56 q 879 58 881 58 q 876 58 878 58 q 879 63 876 63 q 888 56 888 61 q 871 39 885 39 q 855 47 863 39 q 847 65 847 54 q 856 88 847 78 q 885 97 865 97 q 913 85 901 97 q 925 53 925 72 q 899 7 925 26 q 869 0 883 0 m 546 213 l 546 642 q 226 496 389 574 q 458 339 361 444 q 546 213 510 281 z "},"ঞ":{"ha":1196,"x_min":28,"x_max":1167,"o":"m 835 0 q 818 3 826 0 q 775 68 775 25 l 775 78 l 728 93 l 728 175 l 725 185 l 715 189 q 661 196 689 196 q 499 169 594 193 l 471 163 q 326 144 399 144 q 171 183 240 146 q 50 308 92 226 q 28 396 28 350 q 39 450 28 424 q 57 463 46 463 l 71 460 q 149 390 122 440 q 160 347 160 369 q 153 321 160 333 q 142 308 151 313 l 129 308 l 140 293 q 181 257 151 278 q 193 251 188 253 q 275 240 233 240 q 433 265 339 243 q 610 292 546 292 q 728 260 674 290 l 728 644 q 676 761 724 690 q 547 893 617 853 q 408 704 447 767 q 389 646 390 672 q 398 624 389 633 q 419 613 407 614 q 458 610 438 610 l 481 615 l 481 617 q 472 640 472 628 q 488 701 476 679 l 490 707 q 547 756 510 756 q 606 732 579 756 q 656 643 656 696 q 618 557 654 590 q 501 514 572 514 q 431 528 465 514 q 317 624 360 558 q 293 703 293 660 q 342 821 300 768 q 486 1000 468 1000 q 513 992 500 1000 q 711 826 614 936 q 807 689 768 763 q 844 714 824 704 q 914 732 876 731 q 1047 669 988 732 q 1104 532 1104 614 q 1099 475 1101 488 q 1161 381 1147 439 q 1167 339 1167 361 q 1140 269 1167 299 q 1058 214 1108 229 q 997 204 1029 204 q 932 214 964 204 q 843 260 882 229 l 843 136 l 840 128 q 799 106 815 124 q 782 65 782 88 q 786 46 782 56 q 835 8 797 13 q 868 22 853 8 q 883 53 883 35 q 872 79 883 68 q 849 90 860 90 q 821 64 826 90 q 832 47 821 54 l 836 47 q 847 54 847 47 q 847 57 847 56 q 846 58 847 58 q 843 58 844 58 q 846 63 843 63 q 851 60 849 61 q 853 50 853 60 q 836 39 847 39 q 820 47 828 39 q 813 65 813 54 q 824 89 813 78 q 851 97 836 97 q 878 85 867 97 q 892 54 890 72 q 864 7 892 26 q 835 0 850 0 m 951 300 q 1014 321 985 304 q 1069 392 1063 349 l 1069 410 q 1038 411 1054 411 l 1019 410 q 1002 415 1011 410 q 986 425 993 419 q 960 452 969 438 q 947 483 950 467 q 949 497 947 490 q 963 504 951 503 q 997 526 982 507 q 1008 585 1006 547 q 1004 618 1008 601 q 988 633 997 631 q 971 635 979 635 q 918 619 942 633 q 843 493 851 579 l 843 340 q 910 303 876 310 q 951 300 931 300 z "},"ট":{"ha":714,"x_min":-90,"x_max":736,"o":"m 306 44 q 54 197 71 44 l 53 197 l 53 801 l 0 801 l -24 864 l 522 864 q 600 925 572 879 q 614 975 614 949 q 601 1015 613 1001 q 565 1039 585 1035 q 504 1049 538 1049 q 365 1022 440 1046 q 261 986 314 1003 q 128 964 197 967 q -64 1042 18 964 q -90 1092 -89 1064 q -77 1111 -90 1110 q -47 1114 -64 1113 l -25 1113 q 15 1110 -7 1110 q 33 1104 24 1110 q 79 1060 63 1088 q 93 1061 83 1061 q 254 1103 176 1072 l 293 1117 q 443 1144 381 1144 q 664 1039 581 1144 q 711 917 711 983 q 700 864 711 886 l 714 864 l 736 801 l 168 801 l 168 249 q 190 178 168 200 q 241 149 213 156 q 288 143 269 143 l 303 143 q 553 299 468 163 q 589 429 586 356 q 569 503 589 481 q 531 529 549 526 l 529 529 q 496 532 513 532 q 410 510 449 531 q 347 426 360 479 l 351 433 q 404 468 368 465 q 490 417 453 468 q 511 367 511 393 q 490 322 511 346 q 422 294 460 294 q 356 312 389 294 q 301 354 324 329 q 265 408 279 379 q 250 469 250 438 q 290 569 251 526 q 359 615 319 600 q 439 629 399 629 l 467 628 q 658 486 599 606 q 685 372 685 432 q 672 286 685 329 q 567 131 643 193 q 396 51 492 69 q 306 44 367 44 z "},"ঠ":{"ha":782,"x_min":-22,"x_max":804,"o":"m 421 28 q 317 43 368 28 q 140 151 217 75 q 32 329 64 228 q 29 343 29 336 q 34 356 29 349 q 47 363 39 363 l 79 361 q 253 464 192 367 q 286 596 285 526 q 282 654 286 624 q 265 700 271 689 l 247 732 q 208 772 240 742 q 174 801 175 801 l 0 801 l -22 864 l 129 864 q 54 944 86 899 q 3 1093 3 1021 q 17 1160 3 1126 q 35 1172 24 1172 q 72 1157 51 1172 q 104 1121 93 1142 q 113 1094 113 1106 l 111 1088 q 100 1047 103 1068 q 108 989 100 1007 q 119 965 113 978 q 138 940 126 953 q 139 939 138 939 q 147 930 143 933 q 153 925 151 926 q 156 922 154 924 q 164 915 158 921 l 242 864 l 782 864 l 804 801 l 356 801 l 406 775 q 597 651 507 724 q 732 471 688 579 q 753 354 753 414 q 730 230 753 290 q 660 123 707 169 q 550 52 613 76 q 421 28 488 28 m 386 124 q 619 267 543 140 q 657 413 653 331 q 651 465 657 439 l 635 496 q 567 576 617 525 q 421 689 517 626 q 317 744 369 715 q 383 550 379 654 q 354 404 383 478 q 250 294 319 332 q 136 264 197 264 l 140 256 q 228 171 179 207 q 307 129 276 135 q 368 124 338 124 l 386 124 z "},"ড":{"ha":825,"x_min":-24,"x_max":849,"o":"m 468 25 q 364 44 415 25 q 203 154 271 83 q 42 479 76 293 q 29 608 29 544 q 46 706 29 660 q 65 718 53 718 q 90 711 78 718 q 139 656 126 692 q 149 608 149 632 q 126 568 149 568 l 125 543 q 139 426 125 485 q 225 240 163 333 q 411 122 303 122 q 501 146 460 124 q 619 275 578 196 q 697 526 686 393 l 699 535 q 514 468 615 478 q 471 442 486 461 q 456 403 456 424 q 458 385 456 393 q 508 349 471 353 q 543 360 528 349 q 557 392 557 375 q 545 419 557 408 q 522 429 533 429 q 494 404 500 429 q 506 388 494 394 l 510 388 q 519 394 519 388 q 519 397 519 396 q 517 399 519 399 q 519 403 517 403 q 526 396 525 401 q 510 378 522 378 q 494 386 501 378 q 486 404 486 394 q 496 426 486 417 q 524 436 506 436 q 552 424 540 436 q 565 393 564 411 q 538 347 565 364 q 508 340 524 340 q 492 343 500 340 q 459 369 471 350 q 447 410 447 389 l 447 417 q 440 420 443 419 q 401 432 438 421 l 401 801 l 0 801 l -24 864 l 825 864 l 849 801 l 517 801 l 517 578 q 689 696 632 610 l 690 699 q 699 709 693 707 q 710 711 706 711 q 746 696 726 711 q 786 636 781 669 q 792 600 790 618 q 796 519 796 560 q 747 271 796 392 q 666 128 717 193 q 540 36 615 64 q 468 25 506 25 z "},"ঢ":{"ha":714,"x_min":-24,"x_max":738,"o":"m 306 44 q 53 197 69 44 l 53 801 l 0 801 l -24 864 l 714 864 l 738 801 l 168 801 l 168 249 q 190 178 168 200 q 241 149 213 156 q 288 143 269 143 l 303 143 q 553 299 469 163 q 588 424 586 357 q 532 529 588 514 l 529 531 l 496 532 q 410 510 450 531 q 347 426 360 479 l 354 438 q 406 468 369 465 q 453 453 431 468 q 492 415 475 438 q 510 367 510 393 q 489 324 510 342 q 421 294 458 294 q 356 312 388 294 q 302 353 324 329 q 265 406 281 378 q 250 467 250 435 q 290 569 251 528 q 359 615 319 600 q 439 629 399 629 l 467 628 q 658 486 597 606 q 685 372 683 433 q 672 286 685 329 q 567 131 642 193 q 396 51 492 69 q 306 44 367 44 z "},"ণ":{"ha":717,"x_min":29,"x_max":740,"o":"m 657 0 q 640 3 649 0 q 608 30 619 11 q 596 69 596 49 l 596 78 q 589 81 592 81 q 550 93 586 82 l 550 647 l 542 704 l 538 717 q 525 749 535 729 q 454 819 501 794 q 414 824 433 824 q 251 779 324 819 q 154 685 190 746 q 125 583 128 638 q 149 515 125 542 q 203 488 174 488 q 249 497 226 489 l 242 506 q 215 568 219 533 q 258 647 215 614 q 329 682 294 682 q 354 678 342 682 q 422 627 396 661 q 451 551 447 593 q 422 479 451 511 q 251 392 356 394 q 151 422 199 392 q 75 497 104 453 q 29 638 29 563 q 35 693 29 665 q 122 836 56 778 q 274 910 190 892 q 354 919 314 919 q 550 833 475 917 l 550 864 l 717 864 l 740 801 l 664 801 l 664 136 q 661 129 664 132 q 621 106 638 124 q 604 64 604 88 q 607 46 604 56 q 657 8 619 13 q 692 21 675 8 q 706 53 706 36 q 693 82 706 68 q 671 90 682 90 q 643 64 649 90 q 653 49 643 54 l 658 49 q 668 54 668 49 q 667 58 668 58 q 664 58 665 58 q 667 63 664 63 q 675 56 675 61 q 658 39 672 39 q 642 47 650 39 q 635 65 635 56 q 644 89 635 78 q 672 97 657 97 q 700 85 689 97 q 713 53 711 72 q 686 7 713 26 q 657 0 671 0 z "},"ত":{"ha":883,"x_min":-24,"x_max":906,"o":"m 556 60 l 547 60 q 406 85 475 60 q 172 209 276 125 q 32 375 67 293 q 29 389 29 382 q 39 406 29 399 q 50 408 44 408 q 71 403 60 408 l 75 401 q 133 364 107 386 q 174 303 174 332 l 169 292 q 268 222 213 254 q 424 163 332 186 q 497 156 460 156 q 656 194 586 160 q 757 353 749 251 l 758 379 q 725 533 758 443 q 649 624 689 594 q 583 654 608 654 l 581 654 q 446 563 492 644 q 407 461 417 515 l 407 454 q 411 438 408 447 q 420 418 414 428 q 438 401 426 408 q 467 394 449 394 q 506 401 488 394 q 492 439 492 421 l 492 444 q 528 547 499 504 q 568 569 540 569 q 621 550 597 569 q 671 483 656 524 q 676 447 676 465 q 638 347 676 393 q 521 297 586 297 l 511 297 q 354 389 414 310 q 310 511 310 443 q 375 674 310 585 q 447 731 404 711 q 536 751 490 751 q 677 705 615 747 q 774 596 739 663 q 854 319 854 449 l 854 301 q 807 167 850 219 q 703 89 764 114 q 556 60 631 60 m 906 801 l 0 801 l -24 864 l 883 864 l 906 801 z "},"থ":{"ha":728,"x_min":29,"x_max":751,"o":"m 668 0 q 651 3 660 0 q 619 30 631 11 q 607 69 607 49 l 607 78 q 567 90 586 86 q 506 142 531 101 q 404 240 472 196 q 278 299 336 285 q 126 315 203 314 q 107 321 117 315 q 60 367 75 338 q 51 390 51 379 l 53 399 q 74 411 57 411 q 129 414 101 411 q 307 461 224 419 q 379 531 351 486 q 406 639 403 575 q 396 697 406 675 l 394 703 q 347 762 378 740 q 292 783 315 783 q 221 758 254 778 q 142 683 172 731 q 126 633 128 660 q 147 597 126 606 l 164 596 l 163 613 q 178 654 163 631 q 211 690 194 678 q 247 703 228 703 q 289 689 269 703 q 335 639 319 671 q 346 600 346 621 q 333 561 343 578 q 261 506 308 521 q 222 500 242 500 q 146 518 183 500 q 64 590 99 542 q 29 690 29 638 q 38 736 29 714 q 185 869 82 833 q 244 881 214 881 q 289 875 267 881 q 396 810 350 857 q 501 586 496 714 q 485 482 501 528 q 356 354 451 396 q 436 308 399 336 q 561 178 511 254 l 561 864 l 728 864 l 751 801 l 675 801 l 675 136 q 672 129 675 132 q 632 106 649 124 q 615 64 615 88 q 618 46 615 56 q 668 8 631 13 q 703 21 686 8 q 717 51 717 35 q 704 82 717 68 q 682 90 693 90 q 654 64 660 90 q 664 49 654 54 l 669 49 q 679 54 679 49 q 678 58 679 58 q 675 58 676 58 q 678 63 675 63 q 686 56 686 61 q 669 39 683 39 q 653 47 661 39 q 646 65 646 54 q 655 88 646 78 q 683 97 664 97 q 711 85 700 97 q 724 53 722 72 q 697 7 724 26 q 668 0 682 0 z "},"দ":{"ha":639,"x_min":-24,"x_max":663,"o":"m 571 18 q 506 61 538 21 l 481 94 q 404 349 404 213 q 458 611 404 478 q 328 549 392 586 q 235 485 278 522 q 174 421 199 458 q 161 415 169 415 q 122 392 138 410 q 107 351 107 374 q 110 333 107 342 q 160 296 122 300 q 194 308 178 296 q 208 339 208 322 q 196 369 208 356 q 174 378 185 378 q 146 353 151 378 q 156 336 146 343 l 160 336 q 171 343 171 336 q 171 346 171 344 q 169 347 171 347 q 167 347 168 347 q 171 350 167 350 q 178 344 176 350 q 160 326 174 326 q 145 335 153 326 q 138 353 138 343 q 147 375 138 365 q 175 385 156 385 q 203 372 192 385 q 215 342 215 360 q 189 294 215 313 q 158 289 174 289 q 110 317 129 289 q 99 357 99 336 l 99 365 q 53 381 89 369 l 53 801 l 0 801 l -24 864 l 639 864 l 663 801 l 167 801 l 167 588 q 326 681 243 643 q 525 739 421 725 l 533 740 q 560 732 549 740 q 594 700 585 714 q 610 663 604 686 l 608 656 l 583 607 q 503 336 519 479 q 501 296 501 317 q 521 169 501 226 l 521 168 q 539 176 526 174 q 551 174 544 176 q 597 140 579 163 q 615 82 615 117 q 596 26 615 43 q 571 18 586 18 z "},"ধ":{"ha":713,"x_min":29,"x_max":736,"o":"m 651 0 q 603 29 622 0 q 592 69 592 49 l 592 78 l 582 82 l 546 93 q 499 133 518 104 q 485 161 489 147 q 474 200 481 181 q 390 313 450 256 q 272 399 331 371 q 257 406 264 401 q 107 440 178 432 q 92 443 99 440 q 44 479 64 454 q 29 515 29 500 q 31 528 29 525 q 101 565 33 532 q 254 638 208 617 q 153 734 194 675 q 106 867 113 793 l 106 874 q 142 999 106 943 q 239 1088 179 1056 q 331 1113 282 1113 l 356 1110 q 448 1073 404 1103 q 517 994 492 1043 q 536 922 536 960 l 533 896 q 438 769 517 821 q 386 750 417 750 q 317 783 350 750 q 283 849 283 815 q 313 900 289 879 q 394 939 356 935 q 425 928 411 938 q 439 974 436 949 q 419 1006 436 997 q 385 1015 403 1015 l 381 1015 q 228 911 283 1001 q 203 821 206 868 q 237 733 203 774 q 342 693 271 693 q 388 699 364 693 q 546 768 467 732 l 546 864 l 713 864 l 736 801 l 660 801 l 660 136 q 657 129 660 132 q 617 106 633 124 q 600 64 600 88 q 603 46 600 56 q 651 8 617 13 q 688 21 671 8 q 701 53 701 36 q 689 82 701 68 q 667 90 678 90 q 638 64 643 90 q 654 49 638 50 q 664 54 664 49 q 663 58 664 58 q 660 58 661 58 q 663 63 660 63 q 671 56 671 61 q 653 39 668 39 q 638 47 644 39 q 631 64 631 54 q 668 97 631 97 q 696 85 685 97 q 708 54 707 72 q 682 7 708 26 q 651 0 667 0 m 546 213 l 546 642 q 226 496 374 567 q 546 213 447 407 z "},"ন":{"ha":717,"x_min":-24,"x_max":740,"o":"m 656 0 q 607 29 626 0 q 596 69 596 49 l 596 78 q 589 81 592 81 q 550 93 586 82 l 550 382 l 542 439 q 503 522 529 494 q 453 554 478 550 q 406 558 429 558 l 390 558 q 154 421 228 542 q 126 318 128 372 q 131 280 126 300 q 156 241 135 260 q 203 222 176 222 q 249 233 226 224 q 242 240 244 236 q 215 303 215 269 q 253 378 215 344 l 258 383 q 329 417 297 417 q 354 413 342 417 q 421 363 394 397 q 451 288 447 328 q 423 214 451 247 q 358 157 394 181 q 254 126 311 126 q 152 157 200 126 q 75 232 104 188 q 29 372 29 299 q 35 428 29 400 q 122 571 56 514 q 351 654 221 654 l 367 654 q 467 631 419 654 q 550 568 514 608 l 550 801 l 0 801 l -24 864 l 717 864 l 740 801 l 664 801 l 664 136 q 661 129 664 132 q 621 106 638 124 q 604 64 604 88 q 607 46 604 56 q 656 8 621 13 q 692 21 675 8 q 706 53 706 36 q 693 82 706 68 q 671 90 682 90 q 642 64 647 90 q 658 49 642 50 q 668 54 668 49 q 667 58 668 58 q 664 58 665 58 q 667 63 664 63 q 675 56 675 61 q 657 39 672 39 q 642 47 649 39 q 635 64 635 54 q 672 97 635 97 q 700 85 689 97 q 713 54 711 72 q 686 7 713 26 q 656 0 671 0 z "},"প":{"ha":724,"x_min":29,"x_max":747,"o":"m 664 0 q 647 3 656 0 q 615 31 626 11 q 603 71 603 50 l 603 78 q 557 93 593 82 l 557 644 l 531 626 q 396 519 460 578 q 265 378 328 454 q 251 374 260 374 q 207 394 226 376 q 182 425 192 407 q 174 449 174 436 l 175 457 q 192 546 189 500 q 188 572 190 558 q 177 592 186 585 q 158 599 168 599 q 132 592 146 597 q 131 590 132 590 q 114 585 126 585 q 90 594 101 585 q 65 611 78 603 q 42 649 50 626 q 29 719 29 683 q 74 851 29 789 q 269 940 147 940 q 424 900 351 940 q 557 788 503 857 l 557 864 l 724 864 l 747 801 l 671 801 l 671 136 q 669 129 671 131 q 628 105 644 124 q 611 64 611 86 q 614 46 611 54 q 664 8 626 13 q 699 21 682 8 q 713 53 713 35 q 701 79 713 68 q 678 90 689 90 q 650 64 656 90 q 665 49 650 50 q 672 50 669 49 q 675 56 675 51 q 674 58 675 58 q 671 58 672 58 q 674 63 671 63 q 682 56 682 61 q 665 39 679 39 q 649 47 657 39 q 642 65 642 54 q 653 88 642 78 q 679 97 664 97 q 708 85 696 97 q 721 54 719 72 q 693 7 721 26 q 664 0 679 0 m 271 568 q 506 753 371 671 q 451 807 492 781 q 325 844 392 844 q 218 817 268 843 q 129 692 140 768 q 182 671 157 686 q 271 568 242 632 z "},"ফ":{"ha":967,"x_min":-24,"x_max":990,"o":"m 643 0 q 594 29 614 0 q 583 69 583 49 l 583 78 l 574 82 q 547 90 557 86 q 540 92 542 90 q 503 116 519 99 q 469 150 486 133 q 385 214 439 179 q 246 282 307 264 q 103 314 179 304 q 88 317 97 314 q 79 322 79 321 q 51 344 63 332 q 29 394 29 368 q 33 406 29 403 q 92 440 64 421 l 108 451 q 335 613 225 526 l 333 614 q 265 694 318 653 q 108 747 196 747 l 94 747 q 63 763 82 747 l 60 764 q 26 801 38 779 l 0 801 l -24 864 l 967 864 l 990 801 l 225 801 q 288 764 258 785 q 432 568 388 686 q 435 561 433 565 q 436 547 436 557 q 426 531 436 539 q 211 375 301 436 q 538 169 400 313 l 536 711 q 549 729 536 724 q 632 742 590 742 q 728 726 681 742 q 888 614 825 696 q 938 474 938 549 q 931 425 938 449 q 874 342 915 375 q 807 314 843 317 q 694 394 744 314 q 676 449 676 422 q 699 490 676 472 q 794 515 735 515 q 817 515 806 515 q 839 508 829 514 l 840 531 q 814 601 840 574 q 776 628 794 619 q 689 644 742 644 q 651 642 661 644 l 651 136 q 649 129 651 132 q 608 106 625 124 q 592 64 592 88 q 594 46 592 56 q 643 8 608 13 q 677 22 663 8 q 692 53 692 35 q 679 82 692 68 q 658 90 669 90 q 631 72 642 90 l 629 64 q 646 49 629 50 q 656 54 656 49 q 654 58 656 58 q 651 58 653 58 q 654 63 651 63 q 663 56 663 61 q 644 39 660 39 q 628 47 636 39 q 621 65 621 54 q 632 89 621 78 q 660 97 644 97 q 687 85 675 97 q 700 54 699 72 q 674 7 700 26 q 643 0 658 0 z "},"ব":{"ha":713,"x_min":-24,"x_max":736,"o":"m 653 0 q 636 3 644 0 q 603 31 615 11 q 592 71 592 50 l 592 78 q 546 93 582 82 q 513 115 526 101 q 488 153 494 133 q 466 214 481 183 q 448 250 451 244 q 413 300 444 256 q 399 314 406 307 q 358 350 393 321 l 335 365 l 324 372 q 272 399 300 388 q 257 406 264 401 q 172 429 215 419 q 107 440 129 439 q 93 443 100 440 q 44 479 65 454 q 29 515 29 500 q 39 535 29 531 q 546 768 290 657 l 546 801 l 0 801 l -24 864 l 713 864 l 736 801 l 660 801 q 658 129 660 136 q 617 106 633 124 q 600 64 600 88 q 603 46 600 56 q 653 8 615 13 q 688 21 671 8 q 701 53 701 35 q 690 79 701 68 q 667 90 678 90 q 639 64 644 90 q 649 49 639 54 l 654 49 q 664 54 664 49 q 663 58 664 58 q 660 58 661 58 q 663 63 660 63 q 671 56 671 61 q 654 39 668 39 q 638 47 646 39 q 631 65 631 54 q 642 88 631 78 q 668 97 653 97 q 696 85 685 97 q 710 57 707 74 q 682 7 710 28 q 653 0 667 0 m 546 213 l 546 642 q 228 496 389 574 q 460 339 363 444 q 546 213 511 282 z "},"ভ":{"ha":883,"x_min":-24,"x_max":906,"o":"m 557 60 l 546 60 q 397 88 469 60 q 168 213 272 129 q 32 375 81 278 q 29 389 29 382 q 39 406 29 399 q 50 408 44 408 q 71 403 60 408 l 75 401 q 133 364 107 386 q 174 303 174 332 l 169 292 q 233 243 200 264 q 288 211 243 236 l 319 197 q 424 163 374 175 q 497 156 460 156 q 656 194 586 160 q 757 353 749 251 l 758 375 q 750 453 758 414 q 553 310 690 310 l 528 311 q 308 443 393 328 q 258 588 258 507 q 265 638 258 613 q 318 726 278 692 q 450 776 375 776 q 533 753 493 776 q 599 694 572 731 q 625 611 625 657 q 586 506 625 551 q 549 474 572 486 q 494 454 524 454 q 425 490 450 460 q 390 563 390 524 q 410 613 390 590 q 503 654 450 654 l 528 650 l 529 658 q 528 678 529 669 l 497 679 q 426 657 460 675 q 354 540 364 621 q 357 500 354 519 q 394 446 365 472 q 499 407 438 407 q 574 425 539 408 q 653 520 628 460 q 678 638 678 581 q 681 651 678 647 q 687 657 683 654 q 697 660 690 660 q 729 649 713 658 l 738 642 q 766 610 757 628 q 783 576 775 593 q 839 432 819 507 q 854 319 854 376 q 797 156 854 218 q 557 60 711 60 m 906 801 l 0 801 l -24 864 l 883 864 l 906 801 z "},"ম":{"ha":678,"x_min":-22,"x_max":701,"o":"m 618 0 q 601 3 610 0 q 569 31 581 11 q 557 71 557 50 l 557 78 q 511 93 547 82 l 511 314 l 503 372 q 482 438 494 406 q 433 492 463 469 q 378 519 403 515 q 329 524 354 524 l 313 524 q 150 422 203 511 q 126 339 129 383 q 160 269 126 300 q 235 238 193 238 q 268 243 251 238 l 267 246 q 263 263 263 254 q 261 279 263 271 q 290 358 261 318 l 294 364 q 369 415 322 413 q 447 378 407 415 q 486 290 486 340 q 481 263 486 276 q 422 192 461 219 q 279 140 356 140 q 244 143 261 140 q 63 276 125 169 q 29 394 29 332 q 38 451 29 424 q 136 582 61 532 q 108 619 121 599 q 82 713 82 664 q 111 801 82 764 l 0 801 l -22 864 l 678 864 l 701 801 l 625 801 l 625 136 q 624 129 625 131 q 582 105 599 124 q 565 64 565 86 q 568 46 565 54 q 618 8 581 13 q 653 21 636 8 q 667 53 667 35 q 655 79 667 68 q 632 90 643 90 q 604 64 610 90 q 619 49 604 50 q 626 50 624 49 q 629 56 629 51 q 628 58 629 58 q 625 58 626 58 q 628 63 625 63 q 636 56 636 61 q 619 39 633 39 q 603 47 611 39 q 596 65 596 54 q 607 88 596 78 q 633 97 618 97 q 662 85 650 97 q 675 54 674 72 q 647 7 675 26 q 618 0 633 0 m 511 510 l 511 801 l 244 801 q 249 791 247 796 q 253 774 251 786 q 250 765 253 768 q 240 757 249 760 q 179 654 182 721 q 181 636 179 644 q 186 622 183 628 q 192 613 189 615 l 194 608 q 275 621 235 621 l 310 618 q 463 556 396 608 q 511 510 490 535 z "},"য":{"ha":704,"x_min":-24,"x_max":728,"o":"m 643 0 q 594 29 614 0 q 583 69 583 49 l 583 78 l 574 82 q 547 90 557 86 q 540 92 542 90 q 503 115 519 99 q 412 196 468 156 q 314 256 356 236 l 294 264 q 246 282 274 274 q 103 314 179 304 q 92 317 97 314 q 51 344 69 328 q 29 390 29 368 q 30 395 29 392 q 31 400 31 399 q 39 408 32 401 q 335 613 204 511 q 276 694 328 660 q 108 747 196 747 l 94 747 q 63 763 82 747 l 60 764 q 26 801 38 779 l 0 801 l -24 864 l 704 864 l 728 801 l 651 801 l 651 136 q 649 129 651 132 q 608 106 625 124 q 592 64 592 88 q 594 46 592 56 q 643 8 608 13 q 677 22 663 8 q 692 53 692 35 q 679 82 692 68 q 658 90 669 90 q 631 72 642 90 l 629 64 q 646 49 629 50 q 656 54 656 49 q 654 58 656 58 q 651 58 653 58 q 654 63 651 63 q 663 56 663 61 q 644 39 660 39 q 628 47 636 39 q 621 65 621 54 q 632 89 621 78 q 660 97 644 97 q 687 85 675 97 q 700 54 699 72 q 674 7 700 26 q 643 0 658 0 m 538 169 l 538 801 l 225 801 q 351 704 293 768 q 433 563 408 640 q 436 547 436 556 q 426 531 436 536 q 211 375 326 451 q 538 169 400 313 z "},"র":{"ha":713,"x_min":-24,"x_max":736,"o":"m 653 0 q 636 3 644 0 q 603 30 615 11 q 592 69 592 49 l 592 78 q 546 93 582 82 q 499 133 518 104 q 485 161 489 147 q 474 200 481 181 q 449 249 453 243 q 413 300 432 275 l 399 314 q 324 372 379 338 q 272 399 300 388 q 257 406 264 401 q 171 431 204 424 q 107 440 131 439 q 93 443 100 440 q 44 479 65 454 q 29 515 29 500 q 39 535 29 531 q 546 768 319 671 l 546 801 l 0 801 l -24 864 l 713 864 l 736 801 l 660 801 l 660 136 q 657 129 660 132 q 617 106 633 124 q 600 64 600 88 q 603 46 600 56 q 653 8 615 13 q 688 21 671 8 q 701 53 701 36 q 689 82 701 68 q 667 90 678 90 q 639 64 644 90 q 649 49 639 54 l 654 49 q 664 54 664 49 q 663 58 664 58 q 660 58 661 58 q 663 63 660 63 q 671 56 671 61 q 654 39 668 39 q 638 47 646 39 q 631 65 631 54 q 640 88 631 78 q 668 97 649 97 q 696 85 685 97 q 708 53 707 72 q 682 7 708 26 q 653 0 667 0 m 546 213 l 546 642 q 228 496 389 574 q 460 339 363 444 q 546 213 511 282 m 304 71 q 272 82 286 71 q 254 111 258 93 l 251 126 q 201 151 225 133 q 147 217 167 176 q 140 247 140 233 q 161 294 140 278 q 200 313 182 310 l 219 314 q 261 306 240 314 q 331 253 303 289 q 358 183 356 222 q 354 158 358 171 q 350 156 354 156 q 311 171 333 171 q 264 124 265 167 q 282 90 264 104 q 303 83 292 83 q 318 86 310 83 q 338 117 338 97 q 335 129 338 122 q 313 143 328 143 q 292 126 294 142 q 295 116 292 121 q 303 111 299 111 q 308 115 306 111 l 307 124 q 313 126 307 126 q 322 115 322 126 l 322 113 q 301 99 317 99 q 281 124 282 101 q 290 147 281 138 q 314 156 300 156 l 322 154 q 349 115 347 143 q 329 79 349 94 q 304 71 317 71 z "},"ল":{"ha":800,"x_min":-24,"x_max":822,"o":"m 739 0 q 690 29 710 0 q 679 69 679 49 l 679 78 q 632 93 669 82 l 632 540 q 599 529 614 538 q 525 425 549 496 q 514 414 519 414 q 506 413 508 414 q 481 421 496 413 l 475 425 q 439 463 451 440 q 429 493 429 476 q 419 549 429 510 q 388 590 408 571 q 350 611 367 608 q 317 614 333 614 q 232 590 272 613 q 150 510 181 561 q 126 424 128 471 q 128 397 126 410 q 140 373 131 385 q 160 357 149 361 l 178 356 q 213 363 211 358 q 188 422 189 389 q 222 488 188 463 q 286 519 256 519 q 354 490 325 517 q 401 397 401 447 q 386 349 401 369 q 340 297 368 319 q 236 258 288 258 q 97 322 158 258 q 29 479 29 390 l 29 488 q 133 669 36 603 q 261 711 193 711 q 332 700 297 711 q 478 585 422 668 q 569 638 515 629 l 592 639 q 632 632 619 636 l 632 801 l 0 801 l -24 864 l 800 864 l 822 801 l 747 801 l 747 136 q 744 129 747 132 q 704 106 721 124 q 688 64 688 88 q 690 46 688 56 q 739 8 703 13 q 773 22 758 8 q 788 53 788 35 q 775 82 788 68 q 754 90 765 90 q 726 72 738 90 l 725 64 q 742 49 725 50 q 751 54 751 49 q 750 58 751 58 q 747 58 749 58 q 750 63 747 63 q 758 56 758 61 q 740 39 756 39 q 724 47 732 39 q 717 65 717 54 q 728 89 717 78 q 756 97 740 97 q 783 85 771 97 q 796 54 794 72 q 768 7 796 26 q 739 0 754 0 z "},"শ":{"ha":781,"x_min":-22,"x_max":803,"o":"m 719 0 q 703 3 711 0 q 670 31 682 11 q 658 71 658 50 l 658 78 q 613 93 649 82 l 613 653 q 579 734 607 701 q 524 767 551 767 q 363 668 418 757 q 339 579 340 626 q 342 549 339 564 q 343 541 342 543 q 344 538 344 539 q 346 533 344 538 q 365 518 351 522 q 396 524 383 518 q 375 578 378 547 q 406 643 375 618 q 463 672 432 672 q 482 669 472 672 q 543 624 519 657 q 571 553 571 593 q 567 531 569 543 q 557 506 564 519 l 553 499 q 443 422 514 436 l 429 422 q 285 506 347 422 q 235 454 265 476 q 150 419 189 419 q 54 472 92 422 q 29 536 29 503 q 49 590 29 568 q 93 624 68 611 q 147 638 118 638 q 211 614 181 638 q 225 678 224 644 q 210 735 225 710 q 176 767 194 760 l 126 768 q 68 801 99 768 l 0 801 l -22 864 l 94 865 q 158 856 126 865 q 281 760 235 828 q 306 792 292 776 q 476 864 382 864 q 613 811 553 864 l 613 864 l 781 864 l 803 801 l 728 801 l 728 136 l 725 129 q 683 106 700 124 q 667 65 667 88 q 671 46 667 56 q 719 8 682 13 q 753 22 738 8 q 768 53 768 35 q 756 79 768 68 q 733 90 744 90 q 706 64 711 90 q 721 49 706 50 q 732 56 732 49 q 731 58 732 58 q 728 58 729 58 q 731 63 728 63 q 738 56 736 61 q 721 39 735 39 q 705 47 713 39 q 697 65 697 54 q 707 88 697 78 q 735 97 717 97 q 763 85 751 97 q 776 54 775 72 q 749 7 776 26 q 719 0 735 0 z "},"ষ":{"ha":704,"x_min":-22,"x_max":728,"o":"m 644 0 q 628 3 636 0 q 595 30 607 11 q 583 69 583 49 l 583 78 l 547 90 q 540 92 542 90 q 503 115 519 99 q 469 150 489 133 q 442 174 457 163 q 411 199 428 186 q 314 256 360 235 l 294 264 q 246 282 274 274 q 103 314 181 304 q 86 319 100 314 q 80 321 81 321 q 79 322 79 321 q 51 344 64 332 q 29 390 29 368 q 29 397 29 392 q 33 406 29 403 l 88 438 q 335 613 200 508 q 333 614 335 614 q 265 694 318 653 q 174 740 219 729 q 108 747 140 747 l 96 747 q 61 763 82 747 l 60 764 q 28 799 40 778 l 28 801 l 0 801 l -22 864 l 704 864 l 728 801 l 651 801 l 651 136 q 649 129 651 132 q 608 106 625 124 q 592 64 592 88 q 594 46 592 56 q 643 8 608 13 q 679 21 663 8 q 693 53 693 36 q 681 82 693 68 q 658 90 669 90 q 631 72 640 90 l 629 65 q 640 49 629 54 l 646 49 q 656 54 656 49 q 654 58 656 58 q 651 58 653 58 q 654 63 651 63 q 663 56 663 61 q 644 39 660 39 q 629 47 636 39 q 622 64 622 54 q 660 97 622 97 q 688 85 676 97 q 700 54 699 72 q 674 7 700 26 q 644 0 658 0 m 538 528 l 538 801 l 226 801 q 288 764 258 785 q 414 610 368 701 q 538 528 482 581 m 538 169 l 538 428 l 528 443 q 500 479 519 460 l 489 489 q 474 501 476 499 q 449 515 472 503 l 422 528 q 211 375 317 444 q 538 169 400 313 z "},"স":{"ha":792,"x_min":-24,"x_max":815,"o":"m 731 0 q 682 29 701 0 q 671 69 671 49 l 671 78 q 664 81 667 81 q 625 93 661 82 l 625 417 q 619 464 624 442 q 585 529 610 501 q 540 557 561 557 l 538 557 q 404 478 475 547 l 394 469 q 250 375 333 407 q 208 369 229 369 q 56 443 122 369 q 29 492 29 471 q 35 506 29 500 q 49 513 40 513 q 64 510 56 513 q 82 500 72 507 q 98 487 92 493 q 113 476 104 481 q 132 469 122 471 q 151 467 142 467 q 224 489 190 469 l 229 493 q 300 604 292 538 q 292 663 300 633 q 242 717 275 692 q 178 750 208 743 q 129 756 154 756 l 104 754 q 81 763 92 757 q 40 801 53 781 l 0 801 l -24 864 l 792 864 l 815 801 l 739 801 l 739 136 q 736 129 739 132 q 696 106 713 124 q 679 64 679 88 q 682 46 679 56 q 731 8 696 13 q 767 21 750 8 q 781 53 781 36 q 768 82 781 68 q 746 90 757 90 q 717 64 722 90 q 733 49 717 50 q 743 54 743 49 q 742 58 743 58 q 739 58 740 58 q 742 63 739 63 q 750 56 750 61 q 732 39 747 39 q 717 47 724 39 q 710 65 710 56 q 719 89 710 78 q 747 97 732 97 q 775 85 764 97 q 788 54 786 72 q 761 7 788 26 q 731 0 746 0 m 625 585 l 625 801 l 243 801 q 388 619 354 728 q 489 653 440 653 q 600 607 550 651 l 625 585 z "},"হ":{"ha":686,"x_min":-24,"x_max":710,"o":"m 635 -46 l 632 -46 q 583 -19 607 -46 q 399 161 511 60 q 125 393 238 303 q 86 424 104 407 q 85 425 86 425 q 29 507 29 476 q 34 520 29 513 q 49 528 39 528 q 61 525 56 528 q 163 451 140 494 l 167 444 q 188 435 175 439 q 304 414 251 414 l 336 415 q 543 518 481 425 q 561 588 560 550 q 547 672 561 628 l 544 681 q 526 724 533 713 q 504 764 506 761 q 500 768 503 767 q 456 824 479 801 l 432 846 q 385 885 401 874 l 374 893 l 304 804 q 233 704 254 738 q 214 649 219 679 q 222 628 214 639 q 244 613 231 617 l 272 611 q 307 615 296 611 q 306 617 306 615 q 299 642 299 629 q 313 703 300 674 l 317 710 q 374 756 336 756 q 431 732 404 756 q 467 693 451 717 q 482 643 482 669 q 471 594 482 617 q 443 557 460 572 q 328 514 399 514 q 256 528 290 514 q 143 624 183 558 q 118 703 118 660 l 121 729 q 154 801 131 768 l 0 801 l -24 864 l 197 864 q 299 994 247 931 q 311 1000 304 1000 q 339 992 325 1000 q 503 864 436 932 l 686 864 l 710 801 l 556 801 l 560 794 q 657 560 639 690 l 658 535 q 629 431 658 475 q 540 356 596 382 q 361 317 461 317 q 310 321 335 317 q 454 192 383 258 l 471 176 q 542 110 507 144 q 556 115 547 115 q 569 113 564 115 q 607 89 590 106 q 653 -25 653 40 q 635 -46 653 -44 z "},"ড়":{"ha":824,"x_min":-24,"x_max":847,"o":"m 467 25 q 363 44 414 25 q 201 154 271 83 q 40 479 75 293 q 29 592 29 535 l 29 608 q 44 706 29 658 q 64 718 51 718 q 89 711 76 718 q 138 656 125 692 q 149 608 149 632 q 125 568 149 568 l 124 543 q 165 332 124 443 q 269 188 196 253 q 415 122 342 122 q 501 146 461 124 q 619 275 575 196 q 696 526 683 393 l 697 535 q 511 468 614 478 q 470 443 486 461 q 454 404 454 425 q 458 385 454 394 q 507 349 468 353 q 542 360 526 349 q 556 392 556 375 q 544 419 556 408 q 521 429 532 429 q 493 404 499 429 q 504 388 493 394 l 508 388 q 519 394 519 388 q 519 397 519 396 q 518 399 519 399 q 515 399 517 399 q 518 403 515 403 q 525 396 522 401 q 508 378 522 378 q 492 386 500 378 q 485 404 485 394 q 497 426 485 417 q 524 436 508 436 q 551 424 539 436 q 564 393 563 411 q 536 347 564 364 q 507 340 522 340 q 458 368 476 340 q 447 408 447 388 l 447 417 l 400 432 l 400 801 l 0 801 l -24 864 l 824 864 l 847 801 l 515 801 l 515 578 q 688 696 629 610 l 689 699 q 698 709 692 707 q 708 711 704 711 q 722 708 714 711 q 746 696 735 706 q 785 636 779 668 q 790 600 789 618 q 794 519 794 560 q 746 271 794 392 q 664 129 715 193 q 539 36 615 64 q 467 25 504 25 m 558 -211 q 514 -186 532 -211 l 506 -175 q 379 -121 428 -175 q 360 -75 360 -97 q 372 -37 360 -54 q 449 -1 401 -1 q 540 -28 499 -3 q 586 -78 571 -46 q 593 -106 593 -92 q 593 -111 593 -108 q 590 -114 593 -114 q 568 -108 579 -108 q 536 -119 551 -108 q 517 -156 517 -135 q 530 -188 517 -176 q 557 -200 543 -200 q 582 -190 571 -200 q 593 -165 593 -179 q 584 -146 593 -154 q 564 -137 575 -137 l 556 -139 q 543 -158 543 -143 q 549 -168 544 -164 q 558 -172 553 -172 q 564 -165 563 -172 q 562 -162 564 -164 q 560 -157 560 -160 q 567 -153 561 -154 q 578 -164 575 -153 q 558 -185 578 -183 q 536 -172 544 -185 q 532 -157 532 -164 q 541 -135 532 -144 q 564 -125 550 -126 q 600 -147 589 -126 q 604 -165 604 -156 q 594 -193 604 -179 q 558 -211 578 -211 z "},"ঢ়":{"ha":714,"x_min":-24,"x_max":736,"o":"m 306 44 q 54 197 71 44 l 53 197 l 53 801 l 0 801 l -24 864 l 714 864 l 736 801 l 168 801 l 168 249 q 190 178 168 200 q 241 149 213 156 q 288 143 269 143 l 303 143 q 553 299 468 163 q 589 429 586 356 q 568 503 589 478 q 532 529 553 524 l 529 531 l 497 532 q 410 510 450 531 q 347 426 360 479 l 351 433 q 406 468 368 464 q 453 453 431 468 q 492 415 475 438 q 510 368 510 393 q 507 352 510 360 q 500 337 504 344 q 490 324 496 329 q 422 294 458 294 q 356 312 389 294 q 301 354 324 329 q 265 408 279 379 q 250 469 250 438 q 290 569 251 526 q 359 615 319 600 q 439 629 399 629 l 467 628 q 658 486 599 606 q 685 372 685 433 q 672 286 685 329 q 567 131 643 193 q 396 51 492 69 q 306 44 367 44 m 446 -211 q 401 -186 419 -211 l 393 -175 q 267 -121 315 -175 q 247 -75 247 -97 q 260 -37 247 -54 q 336 -1 289 -1 q 428 -28 386 -3 q 474 -78 458 -46 q 481 -106 481 -92 q 479 -114 481 -114 q 456 -108 468 -108 q 424 -119 439 -108 q 404 -157 404 -135 q 417 -188 404 -176 q 446 -200 431 -200 q 469 -190 458 -200 q 481 -165 481 -179 q 472 -146 481 -154 q 453 -137 463 -137 l 444 -139 q 432 -158 432 -143 q 436 -168 432 -164 q 446 -172 440 -172 q 451 -165 450 -172 q 449 -162 451 -164 q 447 -157 447 -160 q 454 -153 449 -154 q 465 -164 463 -153 q 446 -185 465 -183 q 424 -172 433 -185 q 419 -157 419 -164 q 428 -135 419 -144 q 451 -125 438 -126 q 488 -147 476 -126 q 492 -165 492 -156 q 482 -193 492 -179 q 446 -211 465 -211 z "},"য়":{"ha":704,"x_min":-22,"x_max":728,"o":"m 335 -19 q 303 -8 317 -19 q 285 21 289 3 q 283 28 283 25 q 282 35 282 31 q 179 126 208 60 q 172 158 172 143 q 192 203 172 186 q 250 222 218 222 q 292 215 272 222 q 360 165 333 197 q 389 92 388 132 q 385 67 389 79 q 384 65 385 65 q 382 64 383 65 q 343 81 365 81 l 328 78 q 294 33 296 67 q 313 -1 294 14 q 333 -8 322 -8 q 349 -6 340 -8 q 368 25 368 7 q 365 39 368 32 q 343 51 358 51 q 322 38 326 50 q 326 26 322 32 q 333 21 329 21 q 339 25 336 21 l 338 33 q 343 36 338 36 q 353 25 353 36 l 353 22 q 332 7 347 7 q 311 33 313 11 q 321 55 311 46 q 344 64 331 64 l 353 63 q 381 26 379 51 q 360 -11 381 4 q 335 -19 347 -19 m 643 0 q 594 29 614 0 q 583 69 583 49 l 583 78 l 547 90 q 540 92 542 90 q 503 115 519 99 q 469 150 489 133 l 444 174 l 388 215 q 328 247 371 226 l 285 268 q 246 282 267 276 q 103 314 181 304 q 92 316 97 314 q 81 321 88 318 l 79 322 q 51 344 64 332 q 29 390 29 368 q 29 397 29 392 q 33 406 29 403 q 108 451 74 426 q 335 613 225 526 q 278 696 328 661 q 108 747 199 747 l 96 747 q 61 763 82 747 l 60 764 q 26 801 36 781 l 0 801 l -22 864 l 704 864 l 728 801 l 651 801 l 651 136 q 649 129 651 132 q 608 106 625 124 q 592 64 592 88 q 594 46 592 56 q 643 8 608 13 q 679 21 663 8 q 693 53 693 36 q 681 82 693 68 q 658 90 669 90 q 629 64 635 90 q 646 49 629 50 q 656 54 656 49 q 654 58 656 58 q 651 58 653 58 q 654 63 651 63 q 663 56 663 61 q 644 39 660 39 q 629 47 636 39 q 622 64 622 54 q 660 97 622 97 q 688 85 676 97 q 700 54 699 72 q 674 7 700 26 q 643 0 658 0 m 538 169 l 538 801 l 225 801 q 351 704 293 768 q 433 563 408 640 q 436 547 436 556 q 426 531 436 536 q 211 375 326 451 q 538 169 400 313 z "},"ৎ":{"ha":553,"x_min":29,"x_max":525,"o":"m 390 -57 q 371 -51 381 -57 q 331 -18 349 -42 q 314 21 318 -1 q 321 38 314 28 q 336 60 328 47 q 374 108 351 86 q 388 114 382 114 l 401 111 q 408 147 407 129 q 401 209 408 186 q 369 258 393 232 l 353 275 l 325 296 q 271 333 290 322 l 221 365 q 82 496 135 422 q 29 647 29 569 q 79 771 29 715 q 147 829 107 807 q 260 864 199 864 q 426 790 350 864 q 525 590 514 711 q 475 461 525 519 q 365 411 428 411 q 276 453 313 415 q 243 522 243 485 q 254 560 243 544 q 304 600 272 583 l 314 606 q 368 625 347 621 q 392 617 381 625 q 419 596 408 610 q 425 621 424 608 l 428 633 q 424 683 428 671 q 397 733 413 714 l 392 740 q 378 750 383 747 q 365 758 374 753 q 306 768 343 768 q 238 746 268 764 q 144 657 179 713 q 125 592 125 619 q 131 546 125 561 l 138 529 q 153 506 149 510 q 167 488 157 501 l 178 478 q 272 410 201 454 q 333 368 297 394 q 467 231 415 313 q 506 103 506 172 q 464 -21 506 32 q 390 -57 436 -57 z "},"ং":{"ha":450,"x_min":0,"x_max":476,"o":"m 219 471 q 86 534 143 471 q 29 675 29 597 q 81 800 29 747 q 200 863 133 853 l 226 865 q 359 805 296 865 q 422 665 422 744 q 364 532 422 590 q 219 471 297 471 m 169 568 q 307 653 257 581 q 325 711 321 681 l 324 742 q 314 758 321 751 q 299 767 307 765 q 283 768 292 768 q 175 723 219 764 q 126 615 131 682 q 146 568 129 571 l 169 568 m 447 33 q 357 86 396 33 q 342 125 342 104 q 351 142 342 136 q 353 144 353 142 q 336 172 353 150 q 75 306 240 290 q 8 357 38 311 l 7 361 q 0 385 0 376 q 8 399 3 396 q 22 403 13 403 q 333 264 207 389 q 469 81 408 189 q 476 56 476 68 q 447 33 476 33 z "},"ঃ":{"ha":450,"x_min":29,"x_max":421,"o":"m 219 514 q 154 526 185 514 q 39 638 75 560 q 29 685 29 661 q 44 744 29 717 q 106 804 68 782 q 228 838 158 835 l 254 835 q 315 815 288 831 q 411 713 382 779 q 421 664 421 689 q 415 629 421 647 q 363 561 400 588 q 219 514 292 514 m 172 611 q 267 642 222 617 q 325 719 318 671 q 320 732 325 726 q 305 739 315 738 q 282 740 294 740 l 264 740 q 136 665 175 726 q 125 632 128 650 q 129 619 125 624 q 139 613 133 614 l 172 611 m 219 92 q 154 104 185 92 q 39 215 75 138 q 29 263 29 239 q 44 322 29 294 q 106 382 68 360 q 228 415 158 413 l 254 413 q 315 393 288 408 q 411 290 382 357 q 421 242 421 267 q 415 207 421 225 q 363 139 400 165 q 219 92 292 92 m 172 189 q 267 219 222 194 q 325 297 318 249 q 320 310 325 304 q 305 317 315 315 q 282 318 294 318 l 264 318 q 136 243 175 304 q 125 210 128 228 q 129 197 125 201 q 139 190 133 192 l 172 189 z "},"ঁ":{"ha":0,"x_min":-356,"x_max":65,"o":"m -131 1065 q -148 1072 -140 1065 q -158 1088 -156 1078 q -160 1092 -160 1090 q -161 1096 -160 1094 q -206 1126 -186 1104 q -225 1167 -225 1147 q -212 1193 -225 1183 q -190 1204 -200 1203 l -181 1204 q -126 1183 -149 1204 q -99 1128 -103 1161 q -100 1118 -99 1122 q -103 1113 -101 1114 q -125 1122 -112 1122 q -145 1115 -139 1121 q -153 1093 -151 1108 q -145 1078 -153 1085 q -129 1071 -137 1071 q -110 1090 -110 1074 l -111 1092 q -115 1102 -112 1099 q -124 1106 -117 1106 q -136 1096 -136 1106 q -131 1088 -136 1088 l -128 1090 l -128 1096 l -126 1096 l -124 1097 q -119 1090 -119 1097 q -131 1081 -119 1081 q -143 1093 -143 1081 q -137 1108 -143 1103 q -124 1113 -132 1113 q -108 1105 -112 1111 q -103 1088 -104 1099 q -112 1072 -103 1078 q -131 1065 -121 1065 m -94 940 q -246 994 -174 940 q -354 1128 -318 1049 l -356 1139 q -337 1160 -356 1160 q -265 1104 -289 1154 l -257 1088 q -154 1035 -222 1035 l -135 1036 q -32 1143 -32 1053 q -42 1171 -42 1157 q -22 1190 -42 1188 q 39 1150 11 1190 q 59 1114 54 1129 q 65 1075 64 1099 q 12 972 58 1003 q -94 940 -35 940 z "},"া":{"ha":219,"x_min":-24,"x_max":242,"o":"m 158 -131 q 110 -101 129 -131 q 99 -61 99 -82 l 99 -53 q 92 -49 94 -50 q 53 -37 89 -49 l 53 801 l 0 801 l -24 864 l 53 864 l 167 935 l 167 864 l 219 864 l 242 801 l 167 801 l 167 6 q 164 -1 167 1 q 124 -25 140 -7 q 107 -67 107 -43 q 110 -85 107 -75 q 158 -122 124 -118 q 194 -110 178 -122 q 208 -78 208 -94 q 196 -49 208 -62 q 174 -40 185 -40 q 144 -67 150 -40 q 160 -82 144 -81 q 171 -76 171 -82 q 169 -72 171 -72 q 167 -72 168 -72 q 169 -68 167 -68 q 178 -75 178 -69 q 160 -92 175 -92 q 144 -84 151 -92 q 138 -67 138 -76 q 175 -33 138 -33 q 203 -46 192 -33 q 215 -76 214 -58 q 189 -124 215 -104 q 158 -131 174 -131 z "},"ি":{"ha":221,"x_min":-22,"x_max":846,"o":"m 161 -131 q 108 -97 128 -131 q 99 -53 99 -79 q 93 -50 96 -51 q 90 -49 90 -49 q 53 -37 89 -49 l 53 801 l 0 801 l -22 864 l 51 864 l 51 865 q 44 923 50 894 q 28 982 38 951 q 1 1133 1 1068 q 24 1243 1 1190 q 229 1421 92 1372 q 385 1450 307 1450 q 517 1429 450 1450 q 768 1249 671 1378 q 843 1089 824 1178 q 846 1057 846 1072 q 804 951 846 999 q 785 947 797 947 q 749 960 768 947 q 697 1022 713 983 q 692 1051 692 1038 q 729 1113 692 1094 q 728 1151 729 1140 q 700 1214 719 1183 q 657 1264 683 1238 q 588 1307 625 1289 q 446 1333 526 1333 q 260 1282 354 1333 q 118 1083 132 1207 q 124 999 118 1031 q 149 911 135 954 l 160 864 l 221 864 l 244 801 l 168 801 l 168 419 q 165 -1 168 4 q 118 -32 135 -8 q 107 -65 107 -47 q 111 -85 107 -75 q 147 -121 121 -111 l 160 -122 q 193 -110 178 -122 q 208 -79 208 -97 q 197 -51 208 -60 q 175 -42 186 -42 q 163 -43 171 -42 q 147 -58 154 -44 q 146 -65 146 -61 q 157 -82 146 -78 l 168 -82 q 172 -76 172 -79 q 171 -72 172 -72 l 168 -72 q 169 -68 168 -69 l 171 -68 l 174 -69 q 178 -74 178 -71 l 176 -81 q 163 -92 172 -90 q 144 -84 151 -92 q 138 -65 138 -76 q 149 -43 138 -53 q 174 -33 160 -33 q 202 -44 190 -33 q 217 -74 214 -56 q 189 -124 217 -106 q 161 -131 175 -131 z "},"ী":{"ha":219,"x_min":-337,"x_max":310,"o":"m 160 -131 q 143 -128 151 -131 q 109 -99 119 -118 q 99 -61 99 -81 l 99 -53 q 92 -50 94 -51 q 90 -49 90 -49 q 53 -37 89 -49 l 53 801 l -69 801 l -74 814 q -121 864 -101 828 q -131 893 -131 882 q -129 903 -131 899 q -83 1063 -93 979 l -82 1088 q -86 1138 -82 1113 q -99 1172 -92 1156 q -121 1208 -101 1179 q -228 1276 -162 1250 l -236 1281 l -264 1293 q -318 1338 -297 1308 q -336 1375 -332 1354 l -337 1385 q -326 1408 -337 1400 q -283 1431 -306 1425 q -65 1463 -181 1463 q 25 1458 -31 1463 q 149 1417 81 1453 q 278 1294 231 1374 q 310 1179 310 1238 q 275 1040 310 1104 q 246 992 261 1015 q 183 864 204 926 l 219 864 l 243 801 l 168 801 l 168 797 q 167 778 167 790 l 167 189 q 165 -1 167 1 q 118 -32 135 -8 q 107 -67 107 -49 q 110 -85 107 -75 q 147 -121 121 -111 l 160 -122 q 192 -110 178 -122 q 208 -79 207 -97 q 197 -51 208 -61 q 174 -42 185 -42 q 163 -43 171 -42 q 147 -58 154 -44 q 144 -67 144 -62 q 147 -76 144 -69 q 163 -82 150 -82 q 171 -76 171 -82 l 171 -72 l 167 -72 q 171 -68 167 -68 q 172 -69 172 -68 l 174 -69 q 178 -74 176 -71 l 176 -81 q 160 -92 171 -92 q 144 -84 151 -92 q 138 -65 138 -76 q 149 -43 138 -53 q 174 -33 160 -33 q 203 -45 190 -33 q 215 -76 215 -57 q 189 -124 215 -107 q 160 -131 175 -131 m 53 864 q 61 924 54 894 q 140 1092 88 1013 l 157 1119 q 193 1246 193 1183 l 192 1276 q 175 1308 185 1300 l 167 1315 l 149 1324 q -1 1349 93 1349 q -153 1329 -78 1349 q 1 1160 -44 1256 q 33 1019 33 1093 q 3 864 33 943 l 53 864 z "},"ু":{"ha":0,"x_min":-421,"x_max":454,"o":"m 408 -350 q 374 -339 390 -350 q 329 -303 349 -325 q 306 -246 306 -275 q 310 -223 306 -233 q 326 -210 314 -212 l 338 -208 l 329 -189 q 296 -153 321 -178 q 139 -56 222 -94 q -53 -3 33 -11 l -54 -67 q -66 -157 -54 -114 q -107 -235 -78 -200 q -219 -285 -153 -285 q -267 -278 -243 -285 q -361 -218 -322 -261 q -419 -110 -407 -172 l -421 -86 q -408 -28 -421 -56 q -343 53 -385 21 q -168 114 -265 111 q -167 221 -167 167 l -167 224 q -151 246 -167 239 q -142 247 -147 247 q -112 238 -132 247 q -57 181 -78 218 q -50 136 -50 167 l -51 103 l -40 100 q 258 -31 114 67 q 428 -200 376 -110 q 454 -290 454 -247 l 454 -292 q 450 -321 454 -306 q 408 -350 440 -350 m -282 -169 q -194 -108 -226 -161 q -171 -15 -172 -64 q -290 -107 -247 -39 q -306 -151 -301 -128 l -304 -168 l -282 -169 z "},"ূ":{"ha":0,"x_min":-290,"x_max":576,"o":"m 535 -336 q 506 -328 524 -336 q 475 -306 489 -319 q 433 -249 446 -282 q 431 -231 431 -239 q 438 -207 431 -215 q 444 -200 438 -203 q 224 -58 368 -124 q 138 -36 174 -36 q 133 -37 135 -36 q 129 -42 131 -39 q 126 -50 128 -46 l 126 -78 l 128 -99 q 122 -160 128 -131 q 68 -257 110 -217 q -62 -310 13 -310 l -76 -310 q -246 -207 -182 -293 q -290 -86 -290 -151 q -244 28 -290 -21 q -211 60 -231 44 q -165 153 -169 104 l -167 222 q -143 249 -167 249 q -131 246 -139 249 q -71 201 -96 235 l -67 194 q -60 174 -64 186 q -49 124 -49 140 l -50 100 l -50 89 q -54 49 -50 68 q -124 -58 -71 -12 q -131 -65 -128 -61 q -161 -103 -149 -82 q -176 -147 -174 -124 q -169 -183 -176 -175 q -167 -185 -169 -185 q -160 -188 -165 -186 q -146 -192 -154 -190 q -128 -194 -137 -194 l -118 -194 q -7 -118 -50 -187 q 13 -21 13 -81 q 11 18 11 -15 q 29 67 11 51 q 72 81 49 81 l 83 79 q 264 15 179 64 q 489 -140 396 -50 q 557 -231 531 -179 q 576 -293 576 -268 q 574 -311 576 -299 q 553 -332 572 -324 q 535 -336 544 -336 z "},"ৃ":{"ha":0,"x_min":-451,"x_max":132,"o":"m 106 -415 q 69 -404 86 -415 q 13 -349 33 -385 q 1 -310 1 -328 q 7 -287 1 -299 l 4 -286 q -49 -256 -10 -272 q -362 -206 -157 -208 q -433 -158 -399 -201 q -451 -111 -451 -133 q -450 -103 -451 -107 q -446 -96 -449 -100 q -168 111 -303 17 l -167 222 q -164 241 -167 232 q -144 250 -161 250 q -131 246 -139 250 q -72 201 -94 232 q -53 160 -53 178 l -53 39 l -51 29 q -64 6 -51 11 q -160 -61 -76 1 q -222 -107 -190 -85 l -175 -117 q 63 -240 -25 -151 q 132 -389 125 -303 q 106 -415 132 -415 z "},"ে":{"ha":415,"x_min":-22,"x_max":583,"o":"m 436 -43 l 431 -43 q 276 -6 350 -43 q 146 94 201 31 q 28 386 28 222 q 68 579 28 486 q 247 801 125 710 l 0 801 l -22 864 l 510 864 l 533 801 l 486 801 q 399 758 442 783 q 185 551 263 679 q 125 333 125 446 q 143 218 125 268 l 150 199 q 166 171 160 183 q 176 154 172 158 l 192 133 q 215 111 208 117 l 218 108 q 239 94 229 100 l 244 89 l 276 72 q 375 53 325 53 l 394 54 q 388 75 388 67 q 415 122 388 89 q 475 156 443 156 q 494 153 485 156 q 563 101 536 138 q 583 53 583 76 q 578 31 583 42 q 517 -26 557 -8 q 436 -43 478 -43 z "},"ৈ":{"ha":415,"x_min":-162,"x_max":586,"o":"m 457 864 l 510 864 l 533 801 l 486 801 q 399 758 442 783 q 346 724 372 743 q 185 551 247 654 q 126 367 136 465 q 132 257 122 311 q 143 218 136 238 q 150 199 147 208 l 156 190 q 167 169 161 179 q 172 160 169 164 q 176 154 174 157 l 188 140 q 192 133 190 138 l 203 122 q 215 111 208 117 l 215 110 q 218 108 217 110 q 233 97 226 101 q 238 94 235 96 q 243 90 242 92 l 244 89 q 268 76 257 82 q 272 74 271 75 q 276 72 275 74 q 292 67 283 69 q 322 58 307 61 q 386 53 354 51 q 394 54 390 54 q 390 64 392 60 q 393 92 385 79 q 417 124 404 108 q 449 150 431 140 q 494 153 471 160 q 563 101 536 138 q 581 67 575 86 q 578 31 586 49 q 517 -26 557 -8 q 436 -43 478 -43 q 278 -7 353 -44 q 146 94 201 31 q 51 249 83 163 q 29 415 24 329 q 68 579 35 501 q 157 718 101 656 q 247 801 197 764 l 0 801 l -22 864 l 346 864 l 347 868 q 356 894 354 881 q 357 921 360 911 q 350 936 354 931 q 341 944 346 942 q 333 946 336 946 l 333 947 q 283 949 308 950 q 200 933 242 943 q 190 932 196 932 q 83 917 138 919 q -101 989 -25 914 q -158 1097 -147 1035 q -136 1176 -162 1142 q -76 1219 -114 1207 q -35 1225 -56 1226 q 13 1209 -10 1224 q 49 1174 35 1194 q 69 1126 65 1153 q 67 1110 71 1118 q 51 1089 61 1097 q -26 1071 15 1067 q -51 1079 -40 1072 q -58 1056 -56 1068 l -58 1054 q -58 1047 -58 1051 q -53 1036 -57 1042 q -37 1025 -49 1031 q -10 1018 -24 1019 q 39 1017 15 1015 q 126 1032 83 1022 l 149 1038 q 253 1049 200 1050 q 368 1008 317 1046 q 450 900 426 967 q 457 864 456 882 z "},"ো":{"ha":1535,"x_min":-22,"x_max":1557,"o":"m 436 -43 l 431 -43 q 276 -6 350 -43 q 146 94 201 31 q 28 386 28 222 q 68 579 28 486 q 247 801 125 710 l 0 801 l -22 864 l 510 864 l 533 801 l 486 801 q 399 758 442 783 q 185 551 263 679 q 125 333 125 446 q 143 218 125 268 l 150 199 q 166 171 160 183 q 176 154 172 158 l 192 133 q 215 111 208 117 l 218 108 q 239 94 229 100 l 244 89 l 276 72 q 375 53 325 53 l 394 54 q 388 75 388 67 q 415 122 388 89 q 475 156 443 156 q 494 153 485 156 q 563 101 536 138 q 583 53 583 76 q 578 31 583 42 q 517 -26 557 -8 q 436 -43 478 -43 m 1071 200 q 1076 169 1076 190 q 1062 128 1076 147 q 1019 108 1047 108 q 977 125 997 108 q 957 168 957 142 q 975 210 957 192 q 1018 229 993 229 q 1047 222 1032 229 q 1071 200 1063 214 m 639 200 q 663 221 647 213 q 692 229 678 229 q 734 210 717 229 q 751 167 751 190 q 732 124 751 140 q 690 108 713 108 q 647 127 663 108 q 632 168 632 146 q 634 177 632 169 q 639 200 636 185 m 1107 665 q 1136 675 1121 675 q 1178 658 1161 675 q 1196 615 1196 642 q 1180 573 1196 590 q 1136 556 1164 556 q 1095 571 1114 556 q 1076 617 1076 586 q 1107 665 1076 647 m 794 776 q 813 820 794 803 q 856 838 831 838 q 896 820 879 838 q 913 776 913 803 q 896 734 913 751 q 856 717 879 717 q 813 734 831 717 q 794 776 794 751 m 967 764 q 989 786 974 778 q 1019 794 1004 794 q 1062 775 1047 794 q 1076 732 1076 756 q 1058 690 1076 704 q 1018 675 1039 675 q 976 691 994 675 q 957 735 957 707 q 967 764 957 750 m 744 764 l 751 736 q 734 693 751 711 q 692 675 717 675 q 651 691 669 675 q 632 735 632 707 q 647 776 632 757 q 690 794 663 794 q 744 764 726 794 m 529 392 q 487 408 504 392 q 469 450 469 425 q 487 494 469 478 q 529 510 504 510 q 572 494 554 510 q 589 450 589 478 q 572 408 589 425 q 529 392 554 392 m 601 665 q 632 615 632 651 q 614 572 632 589 q 571 556 596 556 q 530 573 547 556 q 513 617 513 590 q 531 657 513 639 q 572 675 549 675 q 601 665 592 675 m 1181 392 q 1139 408 1157 392 q 1121 450 1121 425 q 1139 494 1121 478 q 1181 510 1157 510 q 1223 494 1206 510 q 1240 450 1240 478 q 1223 408 1240 425 q 1181 392 1206 392 m 1167 340 q 1196 289 1196 321 q 1178 246 1196 263 q 1136 229 1161 229 q 1092 247 1108 229 q 1076 288 1076 265 q 1095 331 1076 315 q 1136 347 1114 347 l 1167 340 m 794 125 q 813 168 794 150 q 856 186 831 186 q 896 168 879 186 q 913 125 913 150 q 896 83 913 100 q 856 67 879 67 q 813 83 831 67 q 794 125 794 100 m 542 340 q 571 347 572 347 q 614 330 596 347 q 632 289 632 313 q 615 247 632 265 q 572 229 597 229 q 531 247 549 229 q 513 288 513 264 q 542 340 513 319 m 1474 -131 q 1425 -101 1444 -131 q 1414 -61 1414 -82 l 1414 -53 q 1407 -49 1410 -50 q 1368 -37 1404 -49 l 1368 801 l 1315 801 l 1292 864 l 1368 864 l 1482 935 l 1482 864 l 1535 864 l 1557 801 l 1482 801 l 1482 6 q 1479 -1 1482 1 q 1439 -25 1456 -7 q 1422 -67 1422 -43 q 1425 -85 1422 -75 q 1474 -122 1439 -118 q 1510 -110 1493 -122 q 1524 -78 1524 -94 q 1511 -49 1524 -62 q 1489 -40 1500 -40 q 1460 -67 1465 -40 q 1475 -82 1460 -81 q 1486 -76 1486 -82 q 1485 -72 1486 -72 q 1482 -72 1483 -72 q 1485 -68 1482 -68 q 1493 -75 1493 -69 q 1475 -92 1490 -92 q 1460 -84 1467 -92 q 1453 -67 1453 -76 q 1490 -33 1453 -33 q 1518 -46 1507 -33 q 1531 -76 1529 -58 q 1504 -124 1531 -104 q 1474 -131 1489 -131 z "},"ৌ":{"ha":1535,"x_min":-22,"x_max":1558,"o":"m 436 -43 l 431 -43 q 276 -6 350 -43 q 146 94 201 31 q 28 386 28 222 q 68 579 28 486 q 247 801 125 710 l 0 801 l -22 864 l 510 864 l 533 801 l 486 801 q 399 758 442 783 q 185 551 263 679 q 125 333 125 446 q 143 218 125 268 l 150 199 q 166 171 160 183 q 176 154 172 158 l 192 133 q 215 111 208 117 l 218 108 q 239 94 229 100 l 244 89 l 276 72 q 375 53 325 53 l 394 54 q 388 75 388 67 q 415 122 388 89 q 475 156 443 156 q 494 153 485 156 q 563 101 536 138 q 583 53 583 76 q 578 31 583 42 q 517 -26 557 -8 q 436 -43 478 -43 m 1071 200 q 1076 169 1076 190 q 1062 128 1076 147 q 1019 108 1047 108 q 977 125 997 108 q 957 168 957 142 q 975 210 957 192 q 1018 229 993 229 q 1047 222 1032 229 q 1071 200 1063 214 m 639 200 q 663 221 647 213 q 692 229 678 229 q 734 210 717 229 q 751 167 751 190 q 732 124 751 140 q 690 108 713 108 q 647 127 663 108 q 632 168 632 146 q 634 177 632 169 q 639 200 636 185 m 1107 665 q 1136 675 1121 675 q 1178 658 1161 675 q 1196 615 1196 642 q 1180 573 1196 590 q 1136 556 1164 556 q 1095 571 1114 556 q 1076 617 1076 586 q 1107 665 1076 647 m 794 776 q 813 820 794 803 q 856 838 831 838 q 896 820 879 838 q 913 776 913 803 q 896 734 913 751 q 856 717 879 717 q 813 734 831 717 q 794 776 794 751 m 967 764 q 989 786 974 778 q 1019 794 1004 794 q 1062 775 1047 794 q 1076 732 1076 756 q 1058 690 1076 704 q 1018 675 1039 675 q 976 691 994 675 q 957 735 957 707 q 967 764 957 750 m 744 764 l 751 736 q 734 693 751 711 q 692 675 717 675 q 651 691 669 675 q 632 735 632 707 q 647 776 632 757 q 690 794 663 794 q 744 764 726 794 m 529 392 q 487 408 504 392 q 469 450 469 425 q 487 494 469 478 q 529 510 504 510 q 572 494 554 510 q 589 450 589 478 q 572 408 589 425 q 529 392 554 392 m 601 665 q 632 615 632 651 q 614 572 632 589 q 571 556 596 556 q 530 573 547 556 q 513 617 513 590 q 531 657 513 639 q 572 675 549 675 q 601 665 592 675 m 1181 392 q 1139 408 1157 392 q 1121 450 1121 425 q 1139 494 1121 478 q 1181 510 1157 510 q 1223 494 1206 510 q 1240 450 1240 478 q 1223 408 1240 425 q 1181 392 1206 392 m 1167 340 q 1196 289 1196 321 q 1178 246 1196 263 q 1136 229 1161 229 q 1092 247 1108 229 q 1076 288 1076 265 q 1095 331 1076 315 q 1136 347 1114 347 l 1167 340 m 794 125 q 813 168 794 150 q 856 186 831 186 q 896 168 879 186 q 913 125 913 150 q 896 83 913 100 q 856 67 879 67 q 813 83 831 67 q 794 125 794 100 m 542 340 q 571 347 572 347 q 614 330 596 347 q 632 289 632 313 q 615 247 632 265 q 572 229 597 229 q 531 247 549 229 q 513 288 513 264 q 542 340 513 319 m 1475 -131 q 1458 -128 1467 -131 q 1424 -99 1435 -118 q 1414 -61 1414 -81 l 1414 -53 q 1408 -50 1410 -51 q 1405 -49 1406 -49 q 1368 -37 1404 -49 l 1368 801 l 1315 801 l 1292 864 l 1365 864 q 1381 946 1369 906 q 1401 1047 1401 1007 q 1372 1163 1401 1113 q 1360 1176 1367 1169 q 1340 1189 1354 1182 q 1285 1199 1314 1199 q 1215 1175 1249 1193 q 1142 1121 1176 1150 q 990 1023 1065 1057 q 838 989 914 989 q 597 1090 697 989 q 568 1135 578 1110 q 565 1151 565 1143 q 588 1174 565 1174 q 654 1136 617 1174 q 769 1103 697 1103 l 790 1104 q 940 1154 871 1114 q 1022 1211 982 1179 q 1096 1268 1061 1243 q 1226 1314 1161 1314 q 1379 1257 1307 1314 q 1467 1158 1432 1215 q 1517 976 1517 1074 q 1499 874 1517 925 l 1496 864 l 1535 864 l 1558 801 l 1482 801 l 1482 6 q 1479 -1 1482 1 q 1433 -32 1450 -8 q 1422 -67 1422 -49 q 1425 -85 1422 -75 q 1463 -121 1435 -111 l 1475 -122 q 1508 -110 1493 -122 q 1524 -79 1522 -97 q 1512 -51 1524 -61 q 1489 -42 1500 -42 q 1477 -43 1486 -42 q 1463 -58 1468 -44 q 1460 -67 1460 -62 q 1463 -76 1460 -69 q 1476 -82 1465 -82 q 1486 -76 1486 -82 l 1486 -72 l 1482 -72 l 1485 -68 l 1489 -69 q 1492 -73 1492 -71 q 1493 -76 1493 -75 l 1492 -81 q 1475 -92 1486 -92 q 1460 -84 1467 -92 q 1453 -65 1453 -76 q 1463 -42 1453 -53 q 1489 -33 1475 -33 q 1518 -45 1506 -33 q 1531 -76 1531 -57 q 1504 -124 1531 -107 q 1475 -131 1490 -131 z "},"্":{"ha":0,"x_min":-233,"x_max":43,"o":"m 21 -269 q -28 -250 -6 -267 q -85 -178 -71 -219 q -89 -156 -89 -167 q -86 -139 -89 -147 q -91 -133 -89 -135 q -94 -131 -93 -131 l -94 -129 l -110 -118 q -121 -111 -115 -114 q -130 -107 -126 -108 q -136 -104 -133 -106 l -128 -108 l -129 -107 q -135 -105 -132 -106 q -140 -103 -137 -104 q -167 -94 -154 -97 q -190 -85 -181 -92 q -231 -33 -221 -62 q -233 -19 -233 -26 q -215 0 -233 0 q -201 -3 -208 0 l -200 -3 q -133 -28 -165 -11 q -19 -121 -67 -62 q 40 -236 22 -172 q 43 -249 43 -242 q 40 -260 43 -254 q 21 -269 33 -269 z "},"।":{"ha":201,"x_min":53,"x_max":149,"o":"m 129 -11 q 117 -8 122 -11 q 68 28 88 3 l 65 33 q 53 64 53 53 l 53 840 q 72 863 53 858 q 85 860 79 863 q 132 825 115 847 q 149 788 149 803 l 149 11 q 129 -11 149 -7 z "},"॥":{"ha":392,"x_min":53,"x_max":339,"o":"m 129 -11 q 117 -8 122 -11 q 68 28 88 3 l 65 33 q 53 64 53 53 l 53 840 q 72 863 53 858 q 85 860 79 863 q 132 825 115 847 q 149 788 149 803 l 149 11 q 129 -11 149 -7 m 319 -11 q 307 -8 313 -11 q 258 28 278 3 l 256 33 q 243 64 243 53 l 243 840 q 263 863 243 858 q 275 860 269 863 q 322 825 306 847 q 339 788 339 803 l 339 11 q 319 -11 339 -7 z "},"ৗ":{"ha":219,"x_min":-750,"x_max":243,"o":"m 160 -131 q 143 -128 151 -131 q 109 -99 119 -118 q 99 -61 99 -81 l 99 -53 q 92 -50 94 -51 q 90 -49 90 -49 q 53 -37 89 -49 l 53 801 l 0 801 l -24 864 l 50 864 q 65 946 54 906 q 86 1047 86 1007 q 57 1163 86 1113 q 45 1176 51 1169 q 25 1189 39 1182 q -31 1199 -1 1199 q -100 1175 -67 1193 q -174 1121 -139 1150 q -326 1023 -250 1057 q -478 989 -401 989 q -718 1090 -618 989 q -747 1135 -737 1110 q -750 1151 -750 1143 q -728 1174 -750 1174 q -661 1136 -699 1174 q -546 1103 -618 1103 l -525 1104 q -375 1154 -444 1114 q -294 1211 -333 1179 q -219 1268 -254 1243 q -89 1314 -154 1314 q 64 1257 -8 1314 q 151 1158 117 1215 q 201 976 201 1074 q 183 874 201 925 l 181 864 l 219 864 l 243 801 l 167 801 l 167 6 q 164 -1 167 1 q 118 -32 135 -8 q 107 -67 107 -49 q 110 -85 107 -75 q 147 -121 119 -111 l 160 -122 q 192 -110 178 -122 q 208 -79 207 -97 q 197 -51 208 -61 q 174 -42 185 -42 q 162 -43 171 -42 q 147 -58 153 -44 q 144 -67 144 -62 q 147 -76 144 -69 q 161 -82 150 -82 q 171 -76 171 -82 l 171 -72 l 167 -72 l 169 -68 l 174 -69 q 177 -73 176 -71 q 178 -76 178 -75 l 176 -81 q 160 -92 171 -92 q 144 -84 151 -92 q 138 -65 138 -76 q 147 -42 138 -53 q 174 -33 160 -33 q 203 -45 190 -33 q 215 -76 215 -57 q 189 -124 215 -107 q 160 -131 175 -131 z "},"়":{"ha":0,"x_min":-151,"x_max":67,"o":"m 8 -217 q -39 -176 -28 -217 l -42 -162 q -144 -71 -112 -142 q -151 -39 -151 -53 q -124 10 -151 -10 q -72 25 -100 25 q -32 18 -51 25 q 38 -35 10 0 q 65 -97 60 -62 l 67 -107 q 61 -131 67 -118 q 58 -133 61 -132 q 19 -118 40 -118 l 4 -119 q -29 -161 -25 -129 q -11 -199 -29 -183 q 11 -206 -1 -206 q 25 -203 18 -206 q 44 -172 44 -192 q 41 -159 44 -165 q 32 -149 38 -153 q 21 -146 26 -146 q -1 -158 6 -146 q 2 -170 -1 -164 q 10 -176 6 -176 q 15 -172 13 -176 l 14 -164 q 19 -161 14 -161 q 27 -164 25 -161 q 29 -172 29 -167 l 29 -175 q 8 -190 24 -190 q -12 -164 -12 -186 q -2 -142 -12 -150 q 19 -133 8 -133 l 29 -135 q 57 -167 51 -143 l 57 -172 q 36 -208 57 -194 q 8 -217 22 -217 z "},"৺":{"ha":678,"x_min":38,"x_max":597,"o":"m 392 447 q 312 412 357 424 q 220 401 267 400 q 131 415 174 403 q 57 451 88 426 l 53 453 q 42 524 44 501 q 38 560 40 546 l 40 581 q 115 544 72 556 q 203 531 157 532 q 354 575 250 531 q 597 1035 458 619 q 492 576 542 671 q 392 447 443 481 m 322 617 l 290 599 q 267 590 285 594 q 231 585 250 586 q 192 588 211 583 q 164 608 174 593 q 158 632 158 617 q 159 663 157 647 q 165 693 161 679 q 169 713 168 707 l 172 725 q 197 772 183 758 q 234 790 213 781 q 278 803 256 799 q 320 801 300 807 q 351 778 340 796 q 359 763 361 764 q 358 758 357 761 l 361 757 l 350 678 q 341 642 349 657 q 322 617 333 628 z "},"঍":{"ha":1003,"x_min":18,"x_max":1026,"o":"m 103 651 q 101 651 101 651 q 100 649 100 650 q 103 641 100 643 q 111 640 107 639 q 122 651 119 643 q 122 667 125 658 q 101 680 114 679 q 78 671 89 681 q 71 633 64 654 q 104 608 81 613 q 133 615 119 607 q 151 636 146 622 q 156 667 158 651 q 104 711 144 707 q 53 690 74 714 q 38 641 35 668 q 61 594 40 614 q 156 592 107 560 q 183 682 197 628 q 166 712 178 700 q 140 735 154 724 q 136 739 138 736 q 138 749 136 743 l 138 753 q 149 786 144 772 q 151 793 150 790 q 153 797 151 796 l 153 799 q 154 796 154 797 q 168 754 157 774 q 222 701 189 722 q 321 674 268 678 q 453 685 388 669 q 576 718 515 699 q 611 728 593 722 q 688 747 649 739 q 765 760 725 757 q 839 753 803 763 q 848 746 846 751 q 850 733 850 740 q 845 716 850 725 q 835 700 840 707 q 803 671 822 682 q 788 665 796 668 q 772 665 779 663 q 746 671 760 669 q 657 661 701 672 q 542 631 599 649 q 428 600 485 614 q 300 582 365 585 q 183 601 240 581 q 174 593 178 597 q 165 588 169 592 q 113 568 142 569 q 58 585 83 567 q 31 669 18 619 q 71 715 40 701 q 117 719 94 725 q 156 692 140 713 q 165 649 168 671 q 146 613 163 628 q 112 599 131 600 q 78 610 93 597 q 61 661 53 631 q 92 689 68 682 q 126 679 111 693 q 133 647 138 665 q 120 633 129 638 q 101 631 111 628 q 94 637 97 633 q 90 644 90 640 q 92 654 89 650 q 100 658 94 658 q 103 658 101 658 q 106 656 106 657 q 106 653 106 654 q 104 651 106 653 l 104 653 l 103 651 m 1003 864 l 1026 801 l 972 801 q 949 778 963 788 q 933 768 942 772 q 915 763 925 764 q 913 764 914 763 l 907 764 q 897 774 899 767 q 882 788 890 782 q 846 797 864 796 q 771 793 808 799 q 690 781 731 789 l 599 758 q 508 736 554 746 q 408 717 458 724 q 306 721 357 711 q 173 822 218 743 q 138 986 128 900 q 250 1167 154 1101 q 304 1196 275 1185 q 349 1208 325 1204 q 432 1204 390 1217 q 556 1100 517 1179 q 568 1007 575 1056 q 508 903 556 946 q 460 869 488 883 q 403 857 433 856 q 363 867 381 857 q 329 893 343 876 q 314 938 315 914 q 336 999 314 972 q 376 1035 353 1021 q 411 1044 393 1044 q 442 1035 428 1044 q 457 1014 451 1026 q 463 967 465 992 l 463 964 q 458 946 463 956 q 472 950 468 946 q 478 958 476 954 q 479 963 479 960 q 481 988 481 975 q 463 1043 476 1017 q 403 1101 440 1079 q 339 1122 374 1118 q 300 1119 319 1122 q 278 1111 289 1117 q 264 1104 269 1108 q 254 1097 258 1101 l 249 1092 l 243 1083 q 236 1072 239 1078 q 229 1049 232 1060 q 225 994 224 1022 q 256 899 231 943 q 326 826 282 854 q 396 806 358 810 q 533 821 465 804 q 626 843 581 831 q 717 865 672 854 q 817 883 767 876 q 911 885 864 889 q 949 875 931 883 q 967 864 958 871 l 1003 864 z "},"঎":{"ha":1003,"x_min":-24,"x_max":975,"o":"m 638 715 q 403 758 561 715 l 311 781 q 232 793 272 789 q 172 797 201 797 l 157 797 q 106 774 124 794 q 90 764 101 764 l 88 763 q 69 768 78 764 q 31 801 46 781 l 0 801 l -24 864 l 36 864 q 54 875 44 871 q 132 886 79 886 q 286 865 190 886 l 376 843 q 596 806 514 806 l 607 806 q 747 899 699 815 q 778 1013 778 953 q 774 1049 778 1031 q 761 1082 768 1074 q 748 1097 754 1090 q 725 1111 742 1104 q 664 1122 703 1122 q 599 1101 629 1118 q 522 988 533 1061 q 525 958 522 961 q 544 946 529 946 q 540 963 540 956 q 539 974 539 969 q 546 1014 539 994 q 590 1044 560 1044 q 667 999 632 1044 q 689 938 689 972 q 672 893 688 914 q 594 857 644 857 q 542 869 567 857 q 435 1007 454 915 q 432 1035 432 1021 q 447 1100 432 1068 q 571 1204 486 1179 q 621 1211 596 1211 q 654 1208 638 1211 q 753 1167 710 1199 q 865 986 847 1101 l 867 956 q 826 815 867 886 q 697 721 785 743 q 638 715 667 715 m 894 568 q 877 569 893 568 q 838 588 861 569 q 829 594 833 592 q 819 601 825 597 q 710 582 767 582 q 575 600 649 582 q 461 631 517 614 q 267 671 333 671 q 231 665 247 671 l 222 664 q 200 671 218 664 q 158 717 174 686 q 153 738 153 726 q 164 753 153 750 q 221 760 192 760 q 392 728 282 760 q 426 718 408 722 q 653 672 569 672 q 835 754 782 672 q 849 799 849 782 l 854 786 q 867 739 867 750 q 863 735 865 736 q 837 712 849 724 q 820 684 825 700 q 815 654 815 668 q 847 592 815 618 q 892 576 869 576 q 941 597 917 576 q 965 644 965 617 q 948 690 965 669 q 904 711 931 711 q 847 667 860 711 l 846 657 q 851 634 846 646 q 869 615 857 622 q 893 608 881 608 l 897 608 q 932 633 922 613 q 935 646 935 640 q 924 670 935 660 q 901 681 914 681 q 881 667 889 679 l 879 658 q 892 640 879 644 l 894 640 q 903 649 903 640 q 903 651 903 650 q 901 651 903 651 q 900 653 900 651 l 899 651 q 897 656 897 653 q 903 658 897 658 q 913 649 913 658 q 908 635 913 642 q 893 629 903 629 q 881 633 888 629 q 868 657 868 640 q 878 680 868 669 q 901 690 888 690 l 911 689 q 943 647 943 679 q 925 610 943 626 q 894 599 910 599 q 881 599 892 599 q 857 613 871 600 q 838 657 838 629 q 847 692 838 675 q 906 721 868 721 q 932 715 918 721 q 971 669 961 701 q 975 644 975 657 q 944 585 975 611 q 894 568 921 568 z "},"০":{"ha":711,"x_min":31,"x_max":682,"o":"m 367 79 q 318 83 343 79 q 125 192 203 106 q 32 396 47 279 l 31 432 q 69 594 31 511 q 193 729 107 676 q 350 775 267 775 l 374 774 q 572 678 489 760 q 676 482 654 596 q 682 418 682 450 q 632 239 682 322 q 499 113 582 156 q 367 79 436 79 m 304 175 q 433 210 369 175 q 561 357 517 261 q 586 476 585 417 q 568 576 586 533 l 551 608 q 544 617 547 613 q 538 625 542 622 l 538 626 l 535 628 q 525 638 531 633 q 513 649 514 649 q 510 650 511 649 l 488 661 l 488 663 l 485 663 l 472 668 q 400 678 438 678 q 279 643 344 678 q 168 531 210 601 q 126 400 135 469 l 126 386 q 133 317 126 351 q 160 249 140 283 l 161 246 q 168 236 165 240 q 175 228 171 232 l 201 204 l 224 192 l 225 192 q 230 190 226 192 q 240 186 233 188 q 304 175 268 175 z "},"১":{"ha":621,"x_min":29,"x_max":592,"o":"m 278 69 q 106 140 183 69 q 29 304 29 210 q 83 443 29 383 q 179 488 122 485 q 247 467 217 486 q 317 406 289 443 q 350 313 350 363 q 317 226 350 263 q 276 206 296 206 q 243 215 260 206 q 183 282 201 238 q 179 301 179 292 q 182 319 179 311 q 231 360 193 347 q 238 361 233 361 q 254 357 243 361 l 254 379 l 251 388 l 250 388 l 250 389 q 231 392 244 392 q 201 381 215 389 q 147 323 168 360 q 126 250 126 286 q 154 192 126 217 q 222 167 182 167 q 318 194 268 167 q 458 331 404 246 q 496 446 488 385 l 496 457 q 492 500 496 479 q 421 596 481 554 q 299 651 361 638 q 215 663 257 660 l 215 653 q 213 641 215 649 q 174 633 210 633 q 58 686 104 633 q 32 728 39 704 l 32 736 q 43 754 32 753 q 135 758 81 758 q 340 721 240 758 q 533 572 458 674 q 592 403 592 496 q 585 342 592 372 q 388 99 543 183 q 278 69 336 69 z "},"২":{"ha":686,"x_min":29,"x_max":658,"o":"m 635 -106 q 583 -79 606 -106 q 335 157 476 35 q 128 332 185 285 q 36 422 67 371 q 29 444 29 438 q 46 468 29 467 q 63 465 54 468 q 132 428 99 450 q 167 385 158 408 q 197 372 176 379 q 306 354 244 354 l 336 356 q 543 458 483 367 q 561 528 561 494 q 556 579 561 554 q 493 710 540 651 q 390 768 446 768 l 388 768 q 278 708 321 760 q 215 590 222 636 q 234 561 215 572 q 278 550 253 550 q 307 556 292 550 q 306 557 306 556 q 299 582 299 569 l 299 590 q 329 669 303 632 q 374 696 346 696 q 393 693 383 696 q 444 660 422 683 q 482 579 482 625 q 461 519 481 547 q 328 454 415 454 q 258 467 293 454 q 146 558 189 494 q 119 640 119 597 q 131 695 119 667 q 160 749 142 724 l 161 751 q 192 794 175 774 q 343 864 250 864 q 447 838 396 864 q 544 756 504 807 q 612 648 583 706 q 653 525 640 590 q 658 476 658 500 q 589 326 658 382 q 367 257 504 260 q 310 261 339 257 q 542 50 429 158 q 556 56 547 56 q 590 43 571 56 q 646 -36 628 18 q 653 -87 653 -60 q 635 -106 653 -106 z "},"৩":{"ha":883,"x_min":29,"x_max":853,"o":"m 554 89 q 404 114 478 89 q 172 239 276 156 q 32 404 67 322 q 29 417 29 411 q 30 425 29 419 q 38 434 31 431 q 51 438 44 438 q 74 431 60 438 q 161 363 133 403 q 172 333 172 349 q 169 321 172 324 q 214 285 190 301 l 219 282 q 243 265 224 281 q 493 185 385 185 l 524 186 q 732 300 669 197 q 757 401 757 349 q 725 563 757 476 q 626 681 689 660 q 592 683 608 683 l 579 683 q 444 592 490 672 q 406 490 415 544 q 408 462 406 475 q 420 438 410 449 q 442 426 431 428 q 464 424 453 424 q 504 431 485 424 l 499 440 q 492 465 492 453 l 492 474 q 526 576 496 524 q 568 599 540 599 q 619 579 592 599 q 671 513 654 553 q 676 478 676 496 q 636 376 676 421 q 522 326 590 326 l 511 326 q 353 418 413 339 q 308 540 308 476 q 374 703 308 606 q 538 781 438 781 q 676 735 611 781 q 833 479 781 661 q 853 347 853 415 l 853 331 q 807 197 850 250 q 703 118 764 143 q 554 89 632 89 z "},"৪":{"ha":646,"x_min":29,"x_max":617,"o":"m 360 63 l 349 63 q 261 72 304 63 q 69 183 147 97 q 29 283 31 226 q 40 328 31 307 q 147 429 75 396 q 117 453 131 440 q 31 590 36 518 q 82 691 31 653 q 199 744 133 729 q 331 758 264 758 q 460 732 397 757 q 583 636 535 701 q 617 542 617 593 q 614 510 617 526 q 544 424 596 453 q 538 419 542 421 q 492 399 515 407 q 535 371 515 388 q 601 294 576 340 q 617 229 617 263 q 586 140 617 179 q 451 74 543 90 q 360 63 406 64 m 301 461 q 499 546 414 461 q 522 593 518 565 q 504 629 518 615 q 447 654 482 649 l 444 656 q 375 661 410 661 q 186 618 272 661 q 136 571 156 600 q 131 546 131 563 q 135 519 131 535 q 225 467 146 479 l 231 467 q 301 461 257 461 m 296 158 q 464 193 390 158 q 513 271 513 224 q 476 329 513 307 l 475 329 q 346 371 406 371 q 206 328 275 371 q 142 265 167 303 q 133 238 133 253 q 192 178 133 206 q 296 158 236 158 z "},"৫":{"ha":681,"x_min":29,"x_max":651,"o":"m 379 96 q 272 115 326 96 q 154 182 207 138 q 54 300 92 231 q 29 399 29 349 q 32 436 29 418 q 88 541 47 496 q 174 625 128 586 q 265 750 254 693 q 264 763 265 757 q 285 785 264 785 l 296 783 q 344 746 324 774 q 361 710 357 729 l 367 690 q 394 644 375 668 q 433 608 414 619 l 435 608 l 450 624 q 492 682 485 656 l 492 683 q 486 706 486 694 q 488 715 486 710 q 494 723 489 721 q 503 725 499 725 q 526 721 515 725 q 574 674 557 706 q 588 626 588 651 q 569 572 588 596 q 529 529 550 549 q 421 419 451 453 l 401 399 l 364 361 l 382 361 q 479 374 418 361 q 560 406 531 382 q 574 411 567 411 q 589 408 582 411 q 640 367 619 399 q 651 336 646 358 q 647 303 651 319 q 511 126 624 181 q 379 96 446 96 m 324 192 q 447 225 388 192 q 503 271 479 243 q 440 264 471 264 q 257 369 303 264 q 253 394 253 382 q 256 415 253 404 q 314 485 268 442 l 389 561 q 333 617 358 586 q 250 531 297 568 l 238 518 q 147 417 185 475 q 125 344 125 379 q 169 251 125 293 q 324 192 235 192 z "},"৬":{"ha":654,"x_min":29,"x_max":625,"o":"m 374 94 q 296 110 335 94 q 167 197 222 140 q 39 450 67 306 q 29 547 29 499 q 42 624 29 588 q 60 636 49 636 q 86 628 72 636 q 136 572 121 608 q 143 539 143 556 q 126 500 143 503 l 126 488 q 156 332 126 410 q 229 233 179 274 q 325 192 279 192 q 383 208 353 192 q 472 306 439 246 q 519 436 506 367 l 492 414 q 369 351 436 369 l 364 351 q 324 367 346 351 q 265 500 278 403 q 253 646 253 572 l 253 683 q 260 746 253 715 q 269 771 263 760 q 294 782 276 782 q 314 778 304 782 q 361 731 344 763 q 369 707 369 719 q 358 688 369 690 q 350 647 351 669 q 349 592 349 625 q 358 469 349 531 q 365 474 361 472 q 479 567 418 504 q 521 617 503 589 l 521 618 l 522 618 q 542 631 524 631 q 554 628 547 631 q 597 599 579 618 q 618 556 614 579 q 625 468 625 515 q 588 279 625 371 q 525 172 564 221 q 374 94 465 94 z "},"৭":{"ha":575,"x_min":29,"x_max":526,"o":"m 501 83 q 491 86 497 83 q 478 92 485 89 q 441 124 456 104 q 426 158 426 143 l 426 424 l 411 425 q 322 407 378 425 q 232 390 278 392 q 83 457 147 397 q 29 578 29 510 q 35 622 29 600 q 117 731 57 690 q 249 772 176 772 l 253 772 q 476 653 389 765 q 526 503 526 588 q 525 458 526 476 q 522 401 522 429 l 522 106 q 510 85 522 92 l 501 83 m 190 486 q 242 500 226 493 q 349 521 294 518 q 428 506 390 521 l 428 507 l 429 513 l 431 563 q 358 667 429 633 q 301 676 336 676 q 214 651 258 676 q 143 583 169 625 q 126 528 126 551 q 146 494 126 506 q 183 486 160 486 l 190 486 z "},"৮":{"ha":533,"x_min":51,"x_max":542,"o":"m 261 90 q 97 169 164 90 q 53 288 53 225 l 51 763 q 72 785 51 785 l 83 783 q 132 744 111 775 q 149 710 149 724 l 149 504 q 375 625 282 542 q 446 726 435 675 l 444 735 q 465 757 444 757 l 476 756 q 525 717 504 747 q 542 678 542 700 q 517 600 542 635 q 389 485 467 528 q 447 436 422 465 q 506 303 506 378 q 469 196 506 242 q 354 111 424 138 q 261 90 308 90 m 213 188 q 315 222 267 194 q 390 293 363 249 q 408 360 408 324 q 383 409 408 394 q 322 424 358 424 l 307 424 q 201 404 253 417 q 149 394 163 394 l 149 247 q 168 205 150 222 q 208 188 186 188 l 213 188 z "},"৯":{"ha":672,"x_min":29,"x_max":643,"o":"m 421 92 l 415 92 q 400 94 408 92 q 358 124 378 100 q 338 167 338 147 q 342 183 338 175 q 382 290 375 224 q 353 365 382 340 q 292 390 324 390 q 213 366 254 390 q 146 300 171 342 q 125 231 125 263 q 129 208 125 219 q 140 190 133 196 l 139 206 q 176 282 139 253 q 217 297 194 296 q 250 288 235 297 q 299 239 281 269 q 310 196 310 217 q 300 154 310 175 q 251 103 285 121 q 206 93 229 93 l 186 94 q 93 144 132 107 q 38 231 54 181 q 29 283 29 257 q 32 314 29 299 q 171 475 57 432 q 239 486 204 486 q 275 483 257 486 q 406 411 351 468 q 475 289 456 360 q 547 458 535 363 l 547 469 q 543 518 547 493 q 490 602 528 564 q 417 654 451 640 q 344 676 382 668 q 267 686 307 685 l 268 681 q 265 665 268 674 q 226 657 261 657 q 110 711 157 657 q 83 753 90 729 l 83 761 l 85 771 q 174 785 88 785 q 550 636 407 785 q 643 426 635 547 q 575 221 643 313 q 421 92 513 139 z "},"৳":{"ha":675,"x_min":-107,"x_max":697,"o":"m 314 156 q 111 238 197 157 q 29 425 29 314 q 32 464 29 444 q 97 682 50 578 q 146 801 119 726 l -85 801 l -107 864 l 163 864 q 168 917 168 890 q 163 960 168 939 q 138 1001 158 982 q 98 1025 118 1021 q 58 1029 78 1029 q 1 1021 26 1029 l -4 1021 q -31 1028 -18 1021 q -76 1076 -62 1047 q -82 1099 -82 1088 q -69 1117 -82 1111 q -1 1126 -35 1126 q 96 1107 47 1126 q 247 956 203 1063 q 264 864 264 911 l 675 864 l 697 801 l 258 801 q 249 756 254 778 q 178 572 231 697 q 126 389 139 483 l 125 368 q 129 326 125 347 q 160 284 136 306 q 211 256 183 263 q 253 253 232 253 l 267 253 q 389 293 332 261 q 529 425 485 350 q 550 494 550 461 q 547 519 550 506 q 532 547 544 532 q 506 564 519 561 q 482 567 493 567 q 449 563 465 567 l 451 561 q 476 542 465 553 q 503 494 503 515 q 493 464 500 481 q 389 392 460 392 q 321 418 351 396 q 264 496 279 447 q 260 525 260 511 q 287 599 260 563 q 364 653 314 635 q 422 664 393 664 q 456 660 439 664 q 572 597 522 646 q 635 501 614 557 q 646 439 646 471 q 589 300 646 364 q 314 156 468 165 z "},"₹":{"ha":654,"x_min":28,"x_max":608,"o":"m 361 99 l 353 99 q 328 106 340 99 q 100 364 119 203 l 100 368 q 201 535 100 467 l 51 535 l 28 597 l 294 597 q 364 696 357 642 l 363 718 q 360 726 360 724 l 356 733 l 346 742 q 344 743 344 742 l 325 753 q 264 767 290 767 l 257 767 q 196 801 225 767 l 75 801 l 53 864 l 528 864 l 551 801 l 371 801 q 435 728 411 769 q 460 644 460 688 q 453 597 460 622 l 585 597 l 608 535 l 410 535 q 332 478 374 503 q 213 372 261 443 q 196 324 200 350 q 199 297 196 310 q 207 271 201 283 l 211 264 q 213 260 211 263 q 218 254 215 258 l 218 253 l 226 246 q 253 225 239 235 l 256 224 q 322 186 272 211 q 356 158 343 175 q 374 119 369 140 q 361 99 374 104 z "},"ৰ":{"ha":713,"x_min":-24,"x_max":736,"o":"m 344 551 l 228 496 q 460 339 363 444 q 546 213 511 282 l 546 399 q 542 406 544 401 q 528 424 536 414 q 515 440 521 433 l 489 467 l 481 474 l 461 490 l 438 506 q 426 513 432 510 q 378 538 403 526 l 372 540 q 360 546 367 543 l 344 551 m 546 497 l 546 642 q 514 628 529 635 l 428 589 q 546 497 492 550 m 713 864 l 736 801 l 660 801 l 660 136 q 658 129 660 132 q 611 98 628 122 q 603 46 594 74 q 640 10 614 19 q 688 21 665 4 q 701 51 700 33 q 689 82 701 69 q 661 89 675 92 q 640 72 647 86 q 640 58 638 65 q 649 49 642 51 q 660 49 656 47 q 664 57 665 51 q 663 58 664 58 q 662 58 663 58 q 660 58 661 58 q 661 62 660 61 q 664 63 663 63 q 665 61 665 63 l 667 61 q 670 57 669 60 q 669 50 671 54 q 656 39 665 40 q 639 46 646 38 q 631 67 629 56 q 642 89 632 79 q 667 97 653 97 q 695 85 683 97 q 710 57 707 74 q 682 7 710 25 q 636 3 658 -4 q 601 33 613 13 q 592 78 589 54 l 583 81 q 582 82 583 82 q 564 88 571 85 q 550 92 554 90 l 549 92 l 546 93 q 513 115 526 101 q 498 133 506 124 q 488 153 490 143 q 474 200 482 176 l 468 213 l 457 235 l 446 254 q 439 265 444 256 q 426 283 433 274 q 413 300 418 293 l 386 326 l 378 333 l 358 350 l 335 365 q 324 372 329 369 q 275 397 300 386 l 269 400 q 257 406 264 403 q 228 415 242 411 q 172 431 200 424 q 108 440 140 438 q 94 443 101 440 q 81 449 86 446 q 44 479 60 461 q 35 497 39 488 q 29 515 31 506 q 32 529 29 524 q 39 535 35 533 l 42 536 q 163 594 103 565 q 546 768 353 685 l 546 801 l 0 801 l -24 864 l 713 864 z "},"ৱ":{"ha":713,"x_min":-24,"x_max":736,"o":"m 653 0 q 636 3 644 0 q 602 31 613 13 q 592 69 592 50 l 592 78 l 582 82 l 546 93 q 513 115 526 101 q 488 153 490 142 q 474 200 482 176 l 457 235 l 439 265 l 413 300 l 386 326 l 358 350 l 324 372 q 228 415 274 401 q 108 440 160 436 q 94 443 101 440 q 44 479 67 453 q 29 515 32 499 q 40 536 29 532 l 163 594 q 546 768 353 685 l 546 801 l 0 801 l -24 864 l 713 864 l 736 801 l 660 801 l 660 318 q 658 129 660 132 q 611 99 628 122 q 600 64 600 82 q 603 46 600 56 q 640 10 614 19 l 653 8 q 685 21 671 8 q 701 51 700 33 q 690 79 701 69 q 667 89 678 89 q 656 88 664 89 q 640 72 647 86 q 639 63 639 68 q 656 49 639 49 q 664 54 664 49 l 664 58 l 660 58 q 664 63 660 63 q 665 61 665 63 l 667 61 q 671 57 669 60 l 669 50 q 653 39 664 39 q 638 47 644 39 q 631 65 631 54 q 642 88 631 78 q 667 97 653 97 q 695 85 683 97 q 710 57 707 74 q 682 7 710 25 q 653 0 668 0 m 546 213 l 546 642 q 228 496 385 571 q 460 339 363 444 q 546 213 511 282 m 465 135 q 411 67 488 93 q 397 114 406 90 l 392 126 l 381 149 l 369 168 q 363 178 368 169 q 349 197 357 188 q 336 214 342 207 l 310 240 l 301 247 l 282 264 l 258 279 q 247 286 253 283 q 199 311 224 300 l 193 314 q 181 319 188 317 q 151 329 165 325 q 96 344 124 338 q 158 407 92 424 q 383 253 289 356 q 465 135 432 200 z "},"◌":{"ha":900,"x_min":54,"x_max":825,"o":"m 656 200 q 661 169 661 190 q 647 128 661 147 q 604 108 632 108 q 562 125 582 108 q 542 168 542 142 q 560 210 542 192 q 603 229 578 229 q 632 222 617 229 q 656 200 647 214 m 224 200 q 247 221 232 213 q 276 229 263 229 q 319 210 301 229 q 336 167 336 190 q 317 124 336 140 q 275 108 297 108 q 232 127 247 108 q 217 168 217 146 q 219 177 217 169 q 224 200 221 185 m 692 665 q 721 675 706 675 q 763 658 746 675 q 781 615 781 642 q 765 573 781 590 q 721 556 749 556 q 680 571 699 556 q 661 617 661 586 q 692 665 661 647 m 379 776 q 397 820 379 803 q 440 838 415 838 q 481 820 464 838 q 497 776 497 803 q 481 734 497 751 q 440 717 464 717 q 397 734 415 717 q 379 776 379 751 m 551 764 q 574 786 558 778 q 604 794 589 794 q 647 775 632 794 q 661 732 661 756 q 642 690 661 704 q 603 675 624 675 q 560 691 579 675 q 542 735 542 707 q 551 764 542 750 m 329 764 l 336 736 q 319 693 336 711 q 276 675 301 675 q 235 691 254 675 q 217 735 217 707 q 232 776 217 757 q 275 794 247 794 q 329 764 311 794 m 114 392 q 72 408 89 392 q 54 450 54 425 q 72 494 54 478 q 114 510 89 510 q 156 494 139 510 q 174 450 174 478 q 156 408 174 425 q 114 392 139 392 m 186 665 q 217 615 217 651 q 199 572 217 589 q 156 556 181 556 q 115 573 132 556 q 97 617 97 590 q 115 657 97 639 q 157 675 133 675 q 186 665 176 675 m 765 392 q 724 408 742 392 q 706 450 706 425 q 724 494 706 478 q 765 510 742 510 q 808 494 790 510 q 825 450 825 478 q 808 408 825 425 q 765 392 790 392 m 751 340 q 781 289 781 321 q 763 246 781 263 q 721 229 746 229 q 677 247 693 229 q 661 288 661 265 q 680 331 661 315 q 721 347 699 347 l 751 340 m 379 125 q 397 168 379 150 q 440 186 415 186 q 481 168 464 186 q 497 125 497 150 q 481 83 497 100 q 440 67 464 67 q 397 83 415 67 q 379 125 379 100 m 126 340 q 156 347 157 347 q 199 330 181 347 q 217 289 217 313 q 199 247 217 265 q 157 229 182 229 q 115 247 133 229 q 97 288 97 264 q 126 340 97 319 z "},"ﷺ":{"ha":1318,"x_min":29,"x_max":1279,"o":"m 986 633 q 972 651 985 649 q 974 681 974 654 q 1010 703 989 696 q 1053 711 1032 711 l 1067 710 q 1110 671 1094 686 q 1071 678 1093 678 q 1021 665 1044 678 q 986 633 997 651 m 1167 569 q 1156 574 1161 569 q 1140 599 1140 583 q 1150 617 1140 611 q 1147 635 1150 628 q 1158 632 1153 632 q 1171 640 1167 632 q 1183 600 1183 618 q 1172 571 1183 583 l 1167 569 m 990 265 q 976 273 981 265 q 972 288 972 281 l 960 292 l 960 528 l 942 528 q 913 513 929 515 q 931 454 928 485 q 922 424 931 436 q 847 392 900 392 q 832 393 839 392 q 897 333 853 375 q 901 335 899 335 q 915 328 910 335 q 929 296 929 314 q 924 289 929 290 q 910 297 917 289 q 857 347 899 310 q 781 414 806 393 q 769 422 774 417 l 767 425 q 753 446 753 438 q 758 451 753 451 l 763 450 q 792 428 783 442 q 831 419 810 419 q 878 431 857 419 q 903 465 900 443 q 896 500 903 485 q 883 523 896 506 q 850 554 869 540 q 806 486 807 500 q 809 476 806 479 q 825 474 813 474 l 831 476 q 829 485 829 478 q 834 503 829 492 q 850 515 839 515 q 867 508 858 515 q 881 483 881 499 q 869 458 881 469 q 838 447 857 447 q 785 478 806 447 q 778 500 778 489 q 789 528 778 515 l 731 528 q 729 301 731 303 q 713 283 713 299 q 728 268 713 269 q 738 272 733 268 q 742 281 742 276 q 732 292 742 292 q 724 283 725 292 q 728 279 724 279 q 731 281 731 279 l 731 283 q 733 281 733 283 q 728 276 732 276 q 722 283 722 276 q 732 293 722 293 q 743 281 743 293 q 738 269 743 274 q 728 265 732 265 q 715 272 719 265 q 711 283 711 279 q 710 288 711 288 q 697 292 708 289 l 697 528 l 668 528 l 668 339 q 651 321 651 335 q 665 304 651 307 q 675 308 671 304 q 679 317 679 313 q 676 325 679 322 q 669 328 674 328 q 664 325 665 328 q 663 321 663 322 q 667 317 663 317 q 669 318 669 317 l 668 319 l 669 319 q 671 318 671 319 q 667 314 671 314 q 660 321 660 314 q 671 329 660 329 q 682 318 681 329 q 676 306 682 310 q 665 303 669 303 q 653 310 657 303 q 649 325 649 317 l 636 329 l 636 454 q 606 422 615 451 q 603 419 604 419 q 600 418 601 419 l 592 422 q 579 444 579 429 q 567 468 579 458 q 547 475 560 475 q 522 468 535 475 q 501 448 508 461 q 493 422 493 435 q 508 403 493 404 l 518 404 q 510 421 511 413 q 519 441 510 433 q 538 449 529 449 q 557 440 549 449 q 571 414 571 429 q 555 388 571 400 q 524 375 539 375 q 484 394 503 375 q 465 439 465 413 q 494 492 468 472 q 531 503 513 503 q 592 467 568 503 q 625 482 606 482 l 636 481 l 636 528 l 443 528 l 443 304 l 442 301 q 425 283 425 299 q 440 268 425 269 q 450 272 446 268 q 454 281 454 275 q 451 288 454 285 q 444 292 447 292 q 438 288 440 292 q 436 283 436 285 q 440 279 436 281 q 444 281 444 279 l 443 283 q 446 281 446 283 q 440 276 444 276 q 433 283 433 276 q 444 293 433 293 q 457 281 456 293 q 451 269 457 274 q 440 265 444 265 q 428 272 432 265 q 424 288 424 279 l 410 292 l 410 528 l 381 528 l 381 339 q 369 332 374 338 q 364 321 364 326 q 378 304 364 307 q 392 317 392 304 q 389 325 392 322 q 382 328 386 328 q 375 321 376 328 q 378 315 375 318 q 382 318 382 315 l 381 319 q 383 318 383 319 q 379 314 383 314 q 372 321 372 314 q 375 327 372 325 q 383 329 378 329 q 394 318 393 329 q 389 306 394 310 q 378 303 383 303 l 374 303 q 361 325 361 310 l 349 329 l 349 403 q 332 415 343 408 l 328 399 q 247 357 306 357 q 196 368 221 357 q 101 446 124 397 l 101 450 q 107 456 101 456 q 114 453 110 456 q 142 426 142 440 l 140 422 l 143 419 q 157 408 154 408 l 158 408 q 231 385 200 385 q 276 396 256 385 q 307 446 304 411 q 282 519 307 479 l 268 538 q 251 553 260 547 q 207 471 211 492 q 211 454 207 463 q 226 451 218 451 q 235 454 231 451 q 231 464 231 460 q 238 490 232 479 q 253 501 243 501 q 273 491 263 501 q 283 467 283 481 q 272 439 283 451 q 239 424 261 426 q 213 431 226 424 q 181 483 181 450 q 193 522 181 503 l 197 528 l 93 528 l 86 546 l 207 546 q 235 585 232 585 q 246 579 242 583 q 283 546 268 564 l 410 546 l 443 565 l 443 546 l 697 546 l 731 565 l 731 546 l 800 546 q 832 585 829 585 q 840 582 836 585 q 893 539 871 564 q 926 574 922 546 q 916 597 926 586 q 876 607 906 607 q 835 603 857 607 q 783 596 801 596 q 707 631 736 596 q 703 642 703 636 q 708 647 703 647 q 724 645 717 647 q 735 642 731 643 q 747 637 740 642 q 756 624 754 632 l 767 622 q 813 628 783 622 q 863 635 843 635 q 883 632 872 635 q 901 624 890 624 l 907 625 q 947 586 933 613 q 954 560 954 574 q 951 546 954 551 l 960 546 q 952 581 958 563 q 946 617 946 600 q 963 608 953 608 q 979 615 974 608 l 978 608 l 979 583 l 990 546 l 1063 546 q 1094 585 1092 585 q 1103 582 1099 585 q 1149 546 1131 565 l 1200 546 l 1207 528 l 1164 528 l 1165 526 q 1193 453 1190 494 q 1185 424 1193 436 q 1110 392 1163 392 q 1094 393 1101 392 q 1160 333 1133 360 q 1164 335 1161 335 q 1178 328 1171 335 q 1192 296 1192 314 q 1186 289 1192 290 q 1172 297 1178 289 q 1043 414 1129 344 q 1032 422 1036 417 l 1031 422 q 1015 446 1015 436 q 1021 451 1015 451 l 1025 450 q 1053 429 1047 442 q 1060 425 1056 426 q 1093 419 1078 419 q 1160 449 1142 421 q 1165 468 1165 457 q 1156 507 1165 490 l 1150 518 q 1113 554 1140 533 q 1074 501 1081 514 q 1068 485 1069 494 q 1083 475 1068 475 q 1093 476 1090 475 l 1093 478 q 1092 483 1092 479 q 1097 503 1092 492 q 1113 515 1101 515 q 1128 510 1121 515 q 1139 498 1135 504 q 1143 483 1143 492 q 1140 469 1143 476 q 1100 447 1129 447 q 1079 451 1089 447 q 1047 478 1058 460 q 1040 500 1040 489 q 1050 528 1042 515 l 993 528 l 992 301 q 975 283 975 299 l 976 279 q 990 268 981 269 q 999 272 994 268 q 1004 281 1004 275 q 994 290 1004 290 q 986 283 986 290 q 989 279 986 281 q 993 281 993 279 l 993 283 q 994 281 994 283 q 990 276 993 276 q 983 283 983 276 q 987 290 983 288 q 994 293 990 293 q 1006 282 1004 293 q 1000 269 1006 272 q 990 265 994 265 m 349 426 l 349 528 l 297 528 q 333 436 329 485 l 349 426 m 179 -17 q 63 53 115 -17 q 39 92 47 72 q 29 125 31 113 q 35 131 29 129 q 64 104 47 129 l 65 96 l 65 93 q 61 90 64 92 q 110 28 76 54 l 115 25 q 165 11 138 11 q 196 19 181 11 q 213 46 211 28 q 209 65 213 58 q 201 74 206 71 l 197 75 q 174 82 185 81 q 146 96 154 82 l 143 104 q 145 109 143 108 q 150 110 147 110 l 158 108 q 190 115 178 108 q 213 154 211 126 q 192 200 213 174 q 187 205 189 203 q 183 208 185 207 q 181 210 182 210 q 179 211 181 211 q 161 225 171 219 q 122 175 128 185 q 115 156 115 165 q 117 153 115 154 q 124 151 119 151 q 132 150 128 150 q 142 151 139 150 q 139 157 139 154 q 144 175 140 168 q 161 189 150 189 l 169 188 q 192 157 192 178 q 179 133 192 143 q 147 122 167 122 q 97 149 117 122 q 88 175 88 161 q 103 207 90 192 q 143 256 138 256 q 151 253 147 256 q 210 206 185 235 q 238 153 229 182 q 240 136 240 144 q 213 89 240 106 l 211 89 q 233 63 225 78 q 240 33 240 47 q 214 -8 240 4 q 179 -17 197 -17 m 343 -32 q 329 -21 331 -32 l 328 -17 q 299 10 307 -10 l 297 18 q 303 31 297 26 q 318 36 310 36 q 331 35 325 36 q 358 0 357 22 q 358 -8 358 -8 q 356 -8 357 -8 q 344 -4 351 -4 q 331 -17 332 -6 q 335 -26 331 -22 q 342 -29 339 -29 q 351 -19 351 -29 q 344 -12 351 -12 q 339 -15 340 -12 q 342 -21 339 -21 l 344 -19 l 343 -17 l 344 -17 q 347 -19 347 -17 q 342 -25 346 -25 q 336 -17 336 -24 q 346 -8 336 -8 q 356 -19 354 -11 q 351 -28 356 -25 q 343 -32 346 -32 m 1064 -64 q 1051 -57 1056 -64 q 1047 -45 1047 -50 q 1046 -40 1047 -40 q 1035 -37 1044 -40 l 1035 200 l 1004 200 l 1004 -12 q 988 -29 988 -15 l 989 -36 q 1003 -46 993 -46 q 1011 -42 1007 -46 q 1015 -35 1015 -39 q 1015 -31 1015 -32 q 1007 -24 1015 -24 q 999 -31 999 -24 l 999 -32 q 1002 -34 999 -33 q 1006 -32 1006 -35 l 1004 -32 l 1004 -31 l 1007 -32 q 1003 -37 1007 -37 q 996 -29 996 -37 q 999 -24 996 -26 q 1006 -21 1003 -21 q 1015 -24 1011 -21 q 1018 -32 1018 -28 q 1003 -49 1018 -49 q 995 -47 1000 -49 q 988 -39 990 -44 q 985 -26 985 -33 l 983 -26 q 981 -24 983 -25 q 976 -24 978 -24 q 974 -22 974 -24 l 972 -22 l 972 21 l 969 19 q 954 -1 960 14 q 946 -6 953 -6 l 942 -3 q 928 17 928 4 q 907 38 921 38 q 869 0 875 32 q 872 -8 869 -4 q 881 -11 874 -11 q 876 1 876 -4 q 886 18 876 15 q 899 24 890 24 q 912 19 904 24 q 924 7 919 15 q 928 -7 928 -1 q 926 -17 928 -12 q 892 -39 913 -39 q 858 -24 874 -39 q 842 15 843 -8 q 854 44 843 32 q 865 56 858 51 q 879 63 871 60 q 894 65 888 65 q 940 40 921 65 q 963 50 949 49 q 972 47 968 50 l 972 143 q 942 114 950 138 q 939 110 940 110 q 936 110 938 110 q 933 110 935 110 q 932 111 932 110 l 929 111 q 923 117 926 114 q 917 123 919 119 q 915 132 915 126 q 906 153 915 144 q 879 163 897 163 q 855 154 867 161 q 836 135 843 147 q 829 113 829 124 q 834 101 829 106 q 846 96 839 96 l 853 99 q 847 115 847 104 q 856 132 847 125 q 872 139 864 139 q 892 133 885 139 q 907 103 907 122 q 890 80 904 90 q 858 69 876 69 q 821 86 839 69 q 801 129 803 103 q 815 165 803 150 q 849 188 828 179 l 865 189 q 926 158 904 189 l 928 156 l 936 164 q 960 171 946 171 q 972 168 967 171 l 972 200 l 779 200 q 778 -26 779 -26 q 763 -50 763 -29 q 776 -61 767 -60 q 786 -57 782 -61 q 790 -49 790 -53 q 787 -41 790 -44 q 781 -37 783 -37 q 772 -46 774 -37 q 776 -50 772 -49 q 781 -49 781 -50 q 779 -47 781 -47 l 779 -46 q 782 -47 782 -46 q 776 -53 781 -53 q 773 -51 775 -53 q 771 -46 771 -49 q 781 -36 771 -36 q 793 -49 790 -36 q 787 -60 793 -56 q 776 -64 781 -64 q 764 -57 768 -64 q 760 -45 760 -50 q 758 -40 760 -40 q 747 -37 757 -40 l 747 200 l 717 200 l 717 10 q 700 -8 700 7 l 701 -14 q 714 -24 704 -24 q 729 -11 729 -24 q 719 -1 729 -1 q 711 -8 713 -1 q 715 -12 711 -12 q 718 -11 718 -12 l 717 -10 q 718 -8 717 -8 l 719 -11 q 715 -15 719 -15 q 708 -8 708 -15 q 719 1 708 1 q 727 -2 724 1 q 731 -11 731 -6 q 725 -23 731 -19 q 714 -26 719 -26 q 702 -19 707 -26 q 697 -6 697 -12 q 696 -3 697 -4 q 685 0 694 -3 l 685 90 q 676 121 685 111 q 661 131 667 131 q 621 107 643 128 q 567 78 592 78 q 524 99 543 78 q 517 113 517 106 q 522 118 517 118 q 527 117 524 118 q 535 111 531 117 q 546 106 539 106 q 574 113 563 106 q 593 144 590 125 q 590 160 593 151 q 558 185 579 181 q 538 186 551 186 q 519 200 524 193 l 493 200 l 493 -26 q 481 -33 486 -28 q 476 -46 476 -39 l 478 -50 q 492 -61 482 -60 q 501 -57 497 -61 q 506 -49 506 -53 q 502 -41 506 -44 q 496 -37 499 -37 q 488 -46 489 -37 q 492 -50 488 -49 l 494 -47 l 493 -47 q 494 -46 493 -46 q 497 -47 497 -46 q 492 -53 496 -53 q 486 -46 486 -53 q 496 -36 486 -36 q 507 -49 507 -36 q 501 -60 507 -56 q 492 -64 496 -64 q 479 -57 483 -64 q 475 -45 475 -50 q 474 -40 475 -40 q 463 -37 472 -40 l 461 -37 l 461 200 l 432 200 q 431 10 432 11 q 415 -14 415 6 q 429 -24 419 -24 q 440 -21 435 -24 q 443 -11 443 -17 q 440 -4 443 -7 q 433 -1 438 -1 q 425 -8 428 -1 q 431 -12 425 -12 q 433 -11 433 -12 q 432 -10 433 -10 l 432 -8 q 435 -11 435 -10 q 431 -15 435 -15 q 426 -13 428 -15 q 424 -8 424 -11 q 435 1 424 1 q 442 -2 439 1 q 446 -11 446 -6 q 438 -25 446 -19 l 429 -26 q 417 -19 421 -26 q 413 -4 413 -12 q 398 0 401 -1 q 390 6 394 1 q 381 15 386 11 q 357 35 369 26 l 335 46 q 318 53 324 51 q 274 63 290 63 l 271 64 q 257 83 257 74 l 257 88 q 343 146 275 96 q 326 169 340 160 q 278 185 304 185 q 265 189 271 185 q 256 200 258 193 l 249 200 l 242 217 l 461 217 l 493 238 l 493 217 l 747 217 l 779 238 l 779 217 l 1035 217 l 1067 238 l 1067 217 l 1272 217 l 1279 200 l 1257 200 l 1257 10 q 1240 -8 1240 7 q 1256 -24 1240 -24 q 1269 -11 1269 -24 q 1266 -4 1269 -7 q 1260 -1 1263 -1 q 1251 -8 1253 -1 q 1256 -12 1251 -12 l 1257 -12 q 1258 -11 1258 -12 l 1257 -10 q 1258 -8 1257 -8 l 1260 -11 q 1256 -15 1260 -15 q 1249 -8 1249 -15 q 1252 -1 1249 -4 q 1260 1 1256 1 q 1267 -2 1264 1 q 1271 -11 1271 -6 q 1265 -23 1271 -19 q 1256 -26 1260 -26 q 1242 -19 1246 -26 q 1238 -4 1238 -12 l 1225 0 l 1225 63 q 1188 119 1215 119 q 1169 121 1181 121 q 1117 69 1122 117 q 1126 49 1117 58 q 1147 40 1136 40 l 1157 42 l 1156 43 q 1154 53 1156 50 q 1163 76 1154 63 q 1185 90 1172 90 q 1207 80 1196 90 q 1218 56 1218 69 q 1200 28 1218 39 q 1160 13 1182 13 q 1150 14 1154 13 q 1099 51 1117 21 q 1089 85 1089 67 q 1119 138 1089 117 q 1104 175 1104 153 q 1113 200 1104 189 l 1067 200 q 1065 -26 1067 -26 q 1050 -50 1050 -29 q 1064 -61 1054 -60 q 1074 -57 1069 -61 q 1078 -49 1078 -53 q 1074 -41 1078 -44 q 1068 -37 1071 -37 q 1060 -46 1061 -37 q 1064 -50 1060 -49 l 1067 -47 l 1067 -46 q 1069 -47 1069 -46 q 1064 -53 1068 -53 q 1060 -51 1063 -53 q 1058 -46 1058 -49 q 1068 -36 1058 -36 q 1079 -49 1079 -36 q 1074 -60 1079 -56 q 1064 -64 1068 -64 m 400 21 l 400 200 l 311 200 q 347 172 331 190 q 371 132 364 154 l 371 128 q 308 79 371 121 q 400 21 361 61 m 685 139 l 685 200 l 578 200 q 618 149 608 179 q 646 157 633 157 q 678 144 664 157 l 685 139 m 1225 117 l 1225 200 l 1150 200 l 1153 192 q 1152 189 1153 190 q 1149 188 1151 188 q 1132 158 1132 176 q 1136 144 1132 150 q 1158 149 1147 149 l 1168 147 q 1225 117 1203 144 m 963 617 q 950 624 954 617 q 946 639 946 631 l 933 643 l 933 879 l 903 879 l 903 668 q 886 651 886 665 l 888 644 q 901 635 892 635 q 910 638 906 635 q 915 646 914 642 q 906 657 915 657 q 901 656 904 657 q 897 650 897 656 q 900 646 897 646 q 904 649 904 646 l 903 649 l 904 650 l 904 649 l 906 649 q 901 643 906 643 q 894 651 894 643 q 906 660 899 660 q 913 656 910 660 q 917 649 917 653 q 903 632 917 632 q 883 654 883 632 l 882 654 q 879 656 882 656 q 875 656 876 656 q 872 658 874 657 l 871 658 l 871 701 l 868 700 q 858 690 861 696 q 853 679 856 683 q 844 675 851 675 l 835 681 q 826 697 826 693 q 819 712 825 706 q 806 718 813 718 q 788 712 797 717 q 774 698 779 707 q 768 681 769 689 q 770 673 768 676 q 779 669 772 669 q 775 682 775 676 q 783 698 775 692 q 797 704 790 704 q 810 700 803 704 q 822 688 818 696 q 826 674 826 679 q 825 664 826 668 q 790 642 814 642 q 757 657 772 642 q 740 696 742 672 q 753 725 742 713 q 763 736 757 732 q 777 742 769 740 q 790 744 785 744 q 839 719 819 744 q 858 729 843 726 q 871 728 868 729 l 871 824 q 847 805 854 819 q 838 790 839 790 q 835 790 836 790 q 832 790 833 790 q 831 792 831 790 l 828 792 q 817 804 824 794 q 814 813 814 807 q 778 843 814 843 q 728 796 733 832 q 744 776 728 776 l 751 778 q 746 793 746 785 q 754 812 746 804 q 771 819 763 819 q 790 813 782 819 q 806 788 806 801 l 806 783 q 788 759 801 768 q 757 750 775 750 q 720 767 739 750 q 700 810 701 783 q 715 846 701 831 q 731 859 722 854 q 749 867 739 864 q 767 869 758 869 q 825 839 801 869 l 826 836 q 858 851 840 850 q 871 849 865 851 l 871 879 l 678 879 q 676 653 678 654 q 665 647 669 651 q 661 631 661 642 q 675 619 665 621 q 689 632 689 619 q 685 640 689 636 q 679 643 682 643 q 671 635 672 643 q 675 631 671 631 q 679 632 679 631 q 678 633 679 633 l 678 635 q 681 633 681 635 q 675 628 681 628 q 672 630 674 628 q 669 635 669 632 q 681 644 669 644 q 692 632 689 644 q 685 621 692 625 q 675 617 679 617 q 663 624 667 617 q 658 639 658 631 q 657 640 657 640 l 646 643 l 646 879 l 615 879 l 615 668 q 599 651 599 665 l 600 644 q 614 635 604 635 q 622 638 618 635 q 628 646 626 642 q 618 657 628 657 q 613 656 617 657 q 610 650 610 656 q 613 646 610 646 q 617 649 617 646 l 615 649 l 617 649 l 619 647 q 614 643 619 643 q 607 651 607 643 q 618 660 611 660 q 626 656 622 660 q 629 649 629 653 q 615 632 629 632 q 596 654 596 632 l 594 654 l 594 656 q 588 656 589 656 q 585 658 586 657 l 583 658 l 583 701 l 581 700 q 571 690 574 696 q 566 679 568 683 q 557 675 564 675 l 549 681 q 538 698 539 690 q 531 712 538 706 q 518 718 525 718 q 501 712 510 717 q 487 698 492 707 q 481 681 482 689 q 483 673 481 676 q 492 669 485 669 q 488 682 488 676 q 495 698 488 692 q 510 704 503 704 q 523 700 515 704 q 535 688 531 696 q 540 674 540 681 q 538 664 540 669 q 503 642 526 642 q 469 657 485 642 q 454 696 454 672 q 465 725 454 713 q 476 736 469 732 q 490 742 482 740 q 503 744 497 744 q 551 719 532 744 q 571 729 556 726 q 583 728 581 729 l 583 824 q 559 805 567 819 q 550 790 551 790 q 547 790 549 790 q 544 790 546 790 q 543 792 543 790 l 540 792 q 529 804 536 794 q 526 813 526 807 q 490 843 526 843 q 440 796 446 832 q 457 776 440 776 l 464 778 q 458 793 460 785 q 468 812 458 804 q 483 819 478 819 q 503 813 494 819 q 518 788 518 801 q 514 772 518 778 q 501 760 510 765 q 469 750 488 750 q 433 767 451 750 q 414 810 414 783 q 428 846 414 831 q 443 859 435 854 q 461 867 451 864 q 479 869 471 869 q 538 839 514 869 l 539 836 q 571 851 553 850 q 583 849 578 851 l 583 879 l 390 879 q 387 653 390 654 q 378 647 383 651 q 374 631 374 642 q 388 619 378 621 q 399 622 393 619 q 401 632 401 628 q 392 643 401 643 q 383 635 386 643 q 388 631 383 631 q 392 632 392 631 q 390 633 392 633 l 390 635 q 393 633 393 635 q 388 628 393 628 q 384 630 386 628 q 382 635 382 632 q 393 644 382 644 q 404 632 401 644 q 398 621 404 625 q 388 617 392 617 q 375 624 379 617 q 371 639 371 631 q 369 640 369 640 l 358 643 l 358 879 l 328 879 l 328 690 q 316 684 321 689 q 311 672 311 679 l 313 667 q 326 656 317 657 q 336 660 332 656 q 340 668 340 664 q 337 676 340 674 q 331 679 333 679 q 322 672 324 679 q 326 668 322 668 l 329 671 l 328 671 l 329 671 q 332 669 332 671 q 326 665 331 665 q 319 672 319 665 q 323 678 319 676 q 331 681 326 681 q 338 677 335 681 q 342 669 342 674 q 336 658 342 661 q 326 654 331 654 q 314 661 318 654 q 310 676 310 668 l 307 676 l 296 681 l 296 771 q 287 801 296 792 q 272 811 278 811 q 232 788 254 808 q 179 758 206 758 q 136 779 154 758 q 128 793 128 786 q 130 797 128 794 q 133 799 132 799 q 139 798 136 799 q 151 788 142 797 q 163 785 157 785 q 185 793 174 786 q 204 824 203 806 l 203 840 q 154 867 185 867 q 143 869 146 867 q 132 879 135 874 l 119 879 l 114 897 l 358 897 l 390 917 l 390 897 l 646 897 l 678 917 l 678 897 l 933 897 l 965 917 l 965 897 l 1025 897 l 1033 906 l 1035 906 q 1051 913 1039 913 q 1071 901 1063 910 q 1090 911 1079 911 q 1121 897 1107 911 l 1174 897 l 1181 879 l 1136 879 q 1165 806 1165 839 q 1142 760 1165 776 q 1082 743 1118 743 l 1067 744 q 1132 685 1101 715 q 1140 686 1133 686 q 1164 646 1164 672 q 1158 640 1164 640 q 1144 649 1150 642 q 1092 699 1122 672 q 1015 764 1049 738 l 1004 774 q 990 790 996 781 l 988 796 q 994 803 988 803 l 1017 792 q 1025 782 1022 788 q 1046 772 1028 776 l 1068 771 q 1115 784 1093 771 q 1138 819 1138 797 l 1136 833 q 1121 874 1132 860 q 1107 883 1114 883 l 1101 882 q 1092 868 1093 876 q 1086 860 1092 860 q 1063 885 1072 860 l 1056 879 q 1024 835 1028 853 q 1039 824 1024 824 l 1038 824 q 1036 833 1036 828 q 1042 851 1038 844 l 1043 851 q 1057 864 1049 864 q 1077 855 1068 864 q 1088 835 1086 846 l 1089 831 q 1081 810 1089 819 q 1050 796 1068 796 q 1015 812 1028 797 q 997 843 1001 826 q 1008 878 997 861 l 1010 879 l 965 879 q 964 653 965 654 q 953 647 957 651 q 949 631 949 642 q 963 619 953 621 q 976 632 976 619 q 973 640 976 636 q 967 643 969 643 q 958 635 960 643 q 963 631 958 631 q 967 632 967 631 q 965 633 967 633 l 965 635 q 968 633 968 635 q 963 628 967 628 q 959 630 961 628 q 957 635 957 632 q 967 644 957 644 q 979 632 976 644 q 973 621 979 625 q 963 617 967 617 m 296 818 l 296 879 l 189 879 q 229 828 219 858 q 258 838 244 838 q 289 825 275 838 l 296 818 z "},"ॐ":{"ha":806,"x_min":29,"x_max":778,"o":"m 561 35 q 494 42 528 35 q 144 281 301 79 q 57 426 92 349 q 38 478 46 454 q 29 538 31 503 q 47 556 29 554 q 76 547 65 554 q 150 461 111 525 q 158 435 158 449 q 156 427 157 432 q 150 419 154 422 q 140 415 146 417 q 174 350 160 372 l 176 346 q 228 275 189 324 l 258 243 q 317 193 286 217 q 335 181 326 188 q 371 161 353 169 l 382 157 q 510 132 439 132 q 618 161 567 133 q 664 203 646 176 q 681 258 678 229 q 677 297 681 279 q 667 329 674 314 q 655 342 661 336 q 642 351 649 347 l 624 361 q 622 363 622 361 q 542 383 582 378 q 486 394 506 383 q 444 436 460 408 q 443 438 443 436 q 435 463 435 450 q 436 473 435 467 q 443 479 438 479 q 457 483 449 483 l 489 479 l 524 479 q 600 503 565 483 q 679 639 675 544 q 676 666 679 651 q 669 693 674 681 q 661 714 665 706 q 606 801 646 750 q 594 813 600 807 q 584 824 589 818 q 574 833 579 829 q 567 841 569 838 q 561 844 564 844 l 561 846 q 529 871 546 858 q 494 894 513 883 l 413 792 q 351 707 379 750 q 335 646 335 679 l 338 638 l 364 626 l 393 625 q 428 629 418 625 q 419 653 419 640 q 436 713 424 690 q 475 760 447 743 q 496 765 485 765 q 528 757 513 765 q 600 681 581 733 q 604 651 604 667 q 565 568 603 603 q 447 528 518 528 q 376 542 411 528 q 269 624 311 567 q 238 713 238 664 q 288 826 244 775 q 421 994 350 914 q 433 1000 426 1000 q 460 992 446 1000 q 668 822 579 926 q 768 638 739 742 q 776 579 776 608 q 764 511 776 544 q 676 410 738 446 q 672 407 675 410 q 751 314 724 369 q 778 211 778 264 q 683 63 778 107 q 561 35 624 35 m 333 1065 q 316 1072 324 1065 q 306 1088 308 1078 q 304 1092 304 1090 q 303 1096 304 1094 q 258 1126 278 1104 q 239 1167 239 1147 q 251 1193 239 1183 q 274 1204 264 1203 l 283 1204 q 338 1183 315 1204 q 365 1128 361 1161 q 364 1118 365 1122 q 361 1113 363 1114 q 339 1122 351 1122 q 319 1115 325 1121 q 311 1093 313 1108 q 319 1078 311 1085 q 335 1071 326 1071 q 354 1090 354 1074 l 353 1092 q 349 1102 351 1099 q 340 1106 347 1106 q 328 1096 328 1106 q 333 1088 328 1088 l 336 1090 l 336 1096 l 338 1096 l 340 1097 q 344 1090 344 1097 q 333 1081 344 1081 q 321 1093 321 1081 q 326 1108 321 1103 q 340 1113 332 1113 q 356 1105 351 1111 q 361 1088 360 1099 q 352 1072 361 1078 q 333 1065 343 1065 m 369 940 q 218 994 290 940 q 110 1128 146 1049 l 108 1139 q 126 1160 108 1160 q 199 1104 175 1154 l 207 1088 q 310 1035 242 1035 l 329 1036 q 432 1143 432 1053 q 422 1171 422 1157 q 442 1190 422 1188 q 503 1150 475 1190 q 523 1114 518 1129 q 529 1075 528 1099 q 476 972 522 1003 q 369 940 429 940 z "},"ঽ":{"ha":686,"x_min":-24,"x_max":658,"o":"m 635 -46 l 632 -46 q 583 -19 607 -46 q 399 161 511 60 q 125 393 238 303 q 86 424 104 407 q 85 425 86 425 q 29 507 29 476 q 34 520 29 513 q 49 528 39 528 q 61 525 56 528 q 163 451 140 494 l 167 444 q 188 435 175 439 q 304 414 251 414 l 336 415 q 543 518 481 425 q 561 588 560 550 q 547 672 561 628 l 544 681 q 526 724 533 713 q 504 764 506 761 q 500 768 503 767 q 456 824 479 801 l 432 846 q 385 885 401 874 l 374 893 l 304 804 q 233 704 254 738 q 214 649 219 679 q 222 628 214 639 q 244 613 231 617 l 272 611 q 307 615 296 611 q 306 617 306 615 q 299 642 299 629 q 313 703 300 674 l 317 710 q 374 756 336 756 q 431 732 404 756 q 467 693 451 717 q 482 643 482 669 q 471 594 482 617 q 443 557 460 572 q 328 514 399 514 q 256 528 290 514 q 143 624 183 558 q 118 703 118 660 l 121 729 q 154 801 131 768 l 0 801 l -24 864 l 197 864 q 299 994 247 931 q 311 1000 304 1000 q 327 997 319 1000 q 364 976 335 994 q 529 833 463 914 q 657 560 636 707 l 658 535 q 629 431 658 475 q 540 356 596 382 q 361 317 461 317 q 310 321 335 317 q 454 192 383 258 l 471 176 q 542 110 507 144 q 556 115 547 115 q 569 113 564 115 q 607 89 590 106 q 653 -25 653 40 q 635 -46 653 -44 z "},"ঀ":{"ha":575,"x_min":29,"x_max":526,"o":"m 383 513 l 367 510 q 324 497 344 504 q 236 481 282 481 l 232 481 q 83 547 146 488 q 29 671 29 601 q 35 713 29 692 q 115 821 57 782 q 246 863 175 863 l 253 863 q 410 808 339 863 q 476 743 447 781 q 518 663 504 707 q 526 594 526 628 l 526 575 q 525 544 525 560 q 522 492 522 518 l 522 22 q 510 1 522 8 l 503 0 q 490 3 496 0 q 478 8 483 6 q 442 40 456 21 q 431 57 436 47 q 426 75 426 67 l 429 603 l 431 653 q 382 743 431 707 q 358 757 369 751 q 342 763 346 763 q 292 767 317 767 q 213 740 249 761 q 143 674 169 715 q 126 624 131 651 l 125 617 l 128 607 q 144 585 132 594 q 182 576 157 576 l 190 576 q 242 590 217 582 q 349 611 296 608 l 357 611 l 383 513 z "},"‌":{"ha":0,"x_min":0,"x_max":0,"o":""},"‍":{"ha":0,"x_min":0,"x_max":0,"o":""},"$":{"ha":794,"x_min":89,"x_max":703,"o":"m 703 304 q 633 152 703 213 q 440 76 564 92 l 440 -81 l 353 -81 l 353 71 q 206 83 276 71 q 89 115 135 94 l 89 221 q 218 180 144 196 q 353 164 292 164 l 353 463 q 158 565 214 507 q 101 715 101 624 q 170 861 101 804 q 353 931 239 918 l 353 1054 l 440 1054 l 440 932 q 681 882 565 928 l 646 793 q 440 840 544 833 l 440 546 q 600 480 547 513 q 678 406 653 447 q 703 304 703 364 m 588 296 q 557 375 588 344 q 440 435 526 406 l 440 171 q 588 296 588 192 m 217 717 q 247 634 217 665 q 353 575 278 603 l 353 838 q 251 795 286 826 q 217 717 217 764 z "},"&":{"ha":1014,"x_min":76,"x_max":1011,"o":"m 281 794 q 305 705 281 747 q 389 603 329 663 q 510 697 476 654 q 544 796 544 740 q 510 881 544 849 q 417 914 475 914 q 318 881 356 914 q 281 794 281 849 m 386 88 q 657 192 550 88 l 361 479 q 255 403 286 433 q 208 339 224 374 q 193 260 193 304 q 246 134 193 181 q 386 88 299 88 m 76 257 q 124 413 76 346 q 293 550 171 481 q 215 647 235 614 q 182 717 194 681 q 169 792 169 753 q 236 950 169 893 q 421 1007 303 1007 q 594 951 531 1007 q 657 793 657 894 q 611 659 657 721 q 458 535 565 597 l 735 269 q 795 368 772 311 q 833 492 818 425 l 947 492 q 808 197 901 297 l 1011 0 l 856 0 l 731 121 q 567 17 650 49 q 383 -14 485 -14 q 157 58 238 -14 q 76 257 76 131 z "},"A":{"ha":879,"x_min":0,"x_max":879,"o":"m 760 0 l 636 315 l 239 315 l 117 0 l 0 0 l 392 996 l 489 996 l 879 0 l 760 0 m 600 419 l 485 726 q 439 869 463 785 q 396 726 424 804 l 279 419 l 600 419 z "},"B":{"ha":900,"x_min":136,"x_max":824,"o":"m 136 992 l 417 992 q 702 933 614 992 q 790 746 790 874 q 741 601 790 658 q 597 526 692 543 l 597 519 q 824 282 824 481 q 733 74 824 149 q 482 0 643 0 l 136 0 l 136 992 m 251 567 l 442 567 q 617 605 564 567 q 671 735 671 643 q 611 855 671 818 q 421 892 551 892 l 251 892 l 251 567 m 251 469 l 251 99 l 458 99 q 640 145 579 99 q 700 290 700 192 q 638 426 700 382 q 449 469 576 469 l 251 469 z "},"C":{"ha":876,"x_min":85,"x_max":835,"o":"m 561 903 q 303 794 397 903 q 208 496 208 685 q 299 195 208 301 q 560 89 390 89 q 796 126 664 89 l 796 25 q 542 -14 693 -14 q 203 119 322 -14 q 85 497 85 253 q 142 765 85 650 q 308 943 200 881 q 563 1006 415 1006 q 835 949 718 1006 l 786 850 q 561 903 674 903 z "},"D":{"ha":1013,"x_min":136,"x_max":928,"o":"m 928 506 q 794 130 928 260 q 411 0 661 0 l 136 0 l 136 992 l 440 992 q 799 863 671 992 q 928 506 928 735 m 806 501 q 708 793 806 694 q 419 892 611 892 l 251 892 l 251 100 l 392 100 q 702 201 599 100 q 806 501 806 303 z "},"E":{"ha":772,"x_min":136,"x_max":689,"o":"m 689 0 l 136 0 l 136 992 l 689 992 l 689 889 l 251 889 l 251 569 l 663 569 l 663 468 l 251 468 l 251 103 l 689 103 l 689 0 z "},"F":{"ha":717,"x_min":136,"x_max":689,"o":"m 251 0 l 136 0 l 136 992 l 689 992 l 689 889 l 251 889 l 251 526 l 663 526 l 663 424 l 251 424 l 251 0 z "},"G":{"ha":1011,"x_min":85,"x_max":910,"o":"m 572 519 l 910 519 l 910 38 q 749 -1 831 13 q 561 -14 668 -14 q 210 120 336 -14 q 85 496 85 254 q 147 767 85 650 q 325 944 208 883 q 599 1006 442 1006 q 894 947 757 1006 l 850 846 q 592 903 715 903 q 308 795 410 903 q 207 496 207 688 q 305 191 207 294 q 593 88 403 88 q 794 111 696 88 l 794 417 l 572 417 l 572 519 z "},"H":{"ha":1025,"x_min":136,"x_max":889,"o":"m 889 0 l 774 0 l 774 467 l 251 467 l 251 0 l 136 0 l 136 992 l 251 992 l 251 569 l 774 569 l 774 992 l 889 992 l 889 0 z "},"I":{"ha":463,"x_min":57,"x_max":406,"o":"m 406 0 l 57 0 l 57 67 l 174 90 l 174 900 l 57 925 l 57 992 l 406 992 l 406 925 l 289 900 l 289 90 l 406 67 l 406 0 z "},"J":{"ha":371,"x_min":-108,"x_max":244,"o":"m -8 -261 q -108 -243 -72 -261 l -108 -144 q -8 -158 -60 -158 q 94 -117 58 -158 q 129 0 129 -76 l 129 992 l 244 992 l 244 10 q 179 -190 244 -119 q -8 -261 114 -261 z "},"K":{"ha":853,"x_min":136,"x_max":853,"o":"m 853 0 l 717 0 l 356 481 l 251 389 l 251 0 l 136 0 l 136 992 l 251 992 l 251 500 l 701 992 l 838 992 l 439 561 l 853 0 z "},"L":{"ha":721,"x_min":136,"x_max":689,"o":"m 136 0 l 136 992 l 251 992 l 251 104 l 689 104 l 689 0 l 136 0 z "},"M":{"ha":1254,"x_min":136,"x_max":1118,"o":"m 575 0 l 239 879 l 233 879 q 243 631 243 775 l 243 0 l 136 0 l 136 992 l 310 992 l 624 174 l 629 174 l 946 992 l 1118 992 l 1118 0 l 1003 0 l 1003 639 q 1013 878 1003 749 l 1007 878 l 668 0 l 575 0 z "},"N":{"ha":1047,"x_min":136,"x_max":911,"o":"m 911 0 l 779 0 l 238 832 l 232 832 q 243 564 243 686 l 243 0 l 136 0 l 136 992 l 267 992 l 807 163 l 813 163 q 806 280 811 181 q 803 422 801 379 l 803 992 l 911 992 l 911 0 z "},"O":{"ha":1082,"x_min":85,"x_max":997,"o":"m 997 497 q 876 123 997 260 q 542 -14 756 -14 q 203 120 322 -14 q 85 499 85 254 q 204 874 85 740 q 543 1007 324 1007 q 877 872 757 1007 q 997 497 997 736 m 207 497 q 292 192 207 296 q 542 88 378 88 q 791 191 707 88 q 875 497 875 294 q 791 801 875 697 q 543 904 707 904 q 292 800 378 904 q 207 497 207 696 z "},"P":{"ha":836,"x_min":136,"x_max":765,"o":"m 765 703 q 663 471 765 551 q 368 390 560 390 l 251 390 l 251 0 l 136 0 l 136 992 l 393 992 q 765 703 765 992 m 251 489 l 356 489 q 577 538 508 489 q 646 697 646 588 q 581 844 646 796 q 381 892 517 892 l 251 892 l 251 489 z "},"Q":{"ha":1082,"x_min":85,"x_max":997,"o":"m 997 497 q 920 181 997 307 q 704 10 843 54 l 940 -236 l 772 -236 l 579 -12 l 542 -14 q 203 120 322 -14 q 85 499 85 254 q 204 874 85 740 q 543 1007 324 1007 q 877 872 757 1007 q 997 497 997 736 m 207 497 q 292 192 207 296 q 542 88 378 88 q 791 191 707 88 q 875 497 875 294 q 791 801 875 697 q 543 904 707 904 q 292 800 378 904 q 207 497 207 696 z "},"R":{"ha":858,"x_min":136,"x_max":835,"o":"m 251 413 l 251 0 l 136 0 l 136 992 l 408 992 q 678 922 590 992 q 765 711 765 851 q 565 446 765 515 l 835 0 l 699 0 l 458 413 l 251 413 m 251 511 l 410 511 q 589 560 532 511 q 646 706 646 608 q 588 847 646 804 q 401 890 529 890 l 251 890 l 251 511 z "},"S":{"ha":763,"x_min":72,"x_max":696,"o":"m 696 264 q 601 60 696 133 q 343 -14 506 -14 q 72 32 167 -14 l 72 143 q 205 102 133 117 q 347 88 276 88 q 521 131 463 88 q 579 253 579 175 q 558 338 579 304 q 489 399 538 371 q 342 461 440 426 q 144 578 203 511 q 85 756 85 646 q 171 938 85 869 q 399 1006 257 1006 q 671 951 547 1006 l 635 851 q 396 903 513 903 q 253 863 304 903 q 201 754 201 824 q 220 669 201 703 q 284 609 239 636 q 422 549 329 582 q 638 429 579 493 q 696 264 696 365 z "},"T":{"ha":768,"x_min":13,"x_max":756,"o":"m 442 0 l 326 0 l 326 889 l 13 889 l 13 992 l 756 992 l 756 889 l 442 889 l 442 0 z "},"U":{"ha":1011,"x_min":126,"x_max":885,"o":"m 885 992 l 885 350 q 783 83 885 181 q 501 -14 681 -14 q 224 84 322 -14 q 126 353 126 182 l 126 992 l 242 992 l 242 344 q 309 154 242 221 q 508 88 376 88 q 702 154 635 88 q 769 346 769 221 l 769 992 l 885 992 z "},"V":{"ha":826,"x_min":0,"x_max":826,"o":"m 703 992 l 826 992 l 469 0 l 356 0 l 0 992 l 122 992 l 350 350 q 413 135 389 239 q 476 354 436 244 l 703 992 z "},"W":{"ha":1286,"x_min":18,"x_max":1267,"o":"m 1001 0 l 888 0 l 688 664 q 656 775 674 708 q 638 856 638 842 q 590 660 622 767 l 396 0 l 282 0 l 18 992 l 140 992 l 297 379 q 344 146 329 250 q 399 389 363 269 l 576 992 l 699 992 l 885 383 q 940 146 918 278 q 989 381 953 242 l 1144 992 l 1267 992 l 1001 0 z "},"X":{"ha":801,"x_min":6,"x_max":796,"o":"m 796 0 l 665 0 l 399 436 l 128 0 l 6 0 l 335 518 l 28 992 l 156 992 l 401 599 l 650 992 l 772 992 l 465 522 l 796 0 z "},"Y":{"ha":778,"x_min":0,"x_max":778,"o":"m 389 496 l 653 992 l 778 992 l 447 385 l 447 0 l 331 0 l 331 379 l 0 992 l 126 992 l 389 496 z "},"Z":{"ha":793,"x_min":56,"x_max":738,"o":"m 738 0 l 56 0 l 56 90 l 582 888 l 72 888 l 72 992 l 722 992 l 722 901 l 196 104 l 738 104 l 738 0 z "},"a":{"ha":772,"x_min":64,"x_max":660,"o":"m 576 0 l 554 106 l 549 106 q 438 11 493 36 q 300 -14 382 -14 q 126 43 189 -14 q 64 206 64 100 q 424 442 64 431 l 550 446 l 550 492 q 513 621 550 579 q 392 663 475 663 q 182 606 299 663 l 147 692 q 268 739 203 722 q 399 756 333 756 q 596 697 532 756 q 660 507 660 638 l 660 0 l 576 0 m 322 79 q 488 137 428 79 q 547 299 547 194 l 547 365 l 435 361 q 241 319 300 356 q 182 204 182 282 q 219 111 182 143 q 322 79 256 79 z "},"b":{"ha":851,"x_min":119,"x_max":774,"o":"m 465 756 q 692 656 611 756 q 774 372 774 556 q 692 88 774 189 q 465 -14 610 -14 q 333 13 393 -14 q 232 96 272 40 l 224 96 l 200 0 l 119 0 l 119 1056 l 232 1056 l 232 799 q 226 644 232 713 l 232 644 q 465 756 311 756 m 449 661 q 283 595 333 661 q 232 372 232 529 q 284 148 232 215 q 451 81 336 81 q 606 156 556 81 q 657 374 657 232 q 606 590 657 519 q 449 661 556 661 z "},"c":{"ha":661,"x_min":78,"x_max":615,"o":"m 417 -14 q 167 85 256 -14 q 78 367 78 185 q 168 655 78 553 q 424 757 258 757 q 531 745 478 757 q 615 718 585 733 l 581 622 q 499 647 543 638 q 421 657 456 657 q 194 368 194 657 q 250 158 194 232 q 414 85 306 85 q 604 125 507 85 l 604 25 q 417 -14 529 -14 z "},"d":{"ha":851,"x_min":78,"x_max":732,"o":"m 625 100 l 619 100 q 386 -14 542 -14 q 159 86 240 -14 q 78 369 78 186 q 159 655 78 553 q 386 757 240 757 q 618 647 538 757 l 626 647 l 622 700 l 619 753 l 619 1056 l 732 1056 l 732 0 l 640 0 l 625 100 m 400 81 q 567 143 515 81 q 619 346 619 206 l 619 369 q 567 595 619 528 q 399 663 514 663 q 247 585 300 663 q 194 368 194 508 q 247 153 194 226 q 400 81 299 81 z "},"e":{"ha":779,"x_min":78,"x_max":707,"o":"m 433 -14 q 173 87 268 -14 q 78 365 78 188 q 167 651 78 546 q 404 757 256 757 q 626 665 544 757 q 707 422 707 574 l 707 351 l 194 351 q 261 153 199 221 q 438 85 324 85 q 675 135 557 85 l 675 35 q 562 -3 615 8 q 433 -14 508 -14 m 403 663 q 260 604 314 663 q 197 443 207 546 l 586 443 q 539 606 586 550 q 403 663 492 663 z "},"f":{"ha":471,"x_min":19,"x_max":531,"o":"m 454 656 l 265 656 l 265 0 l 153 0 l 153 656 l 19 656 l 19 707 l 153 747 l 153 789 q 392 1063 153 1063 q 531 1039 451 1063 l 501 949 q 390 969 436 969 q 296 927 326 969 q 265 792 265 885 l 265 743 l 454 743 l 454 656 z "},"g":{"ha":761,"x_min":26,"x_max":728,"o":"m 728 743 l 728 672 l 590 656 q 624 594 608 632 q 639 507 639 556 q 565 333 639 399 q 360 268 490 268 q 297 274 326 268 q 225 178 225 235 q 250 133 225 147 q 336 118 275 118 l 468 118 q 653 67 589 118 q 718 -81 718 17 q 619 -269 718 -204 q 331 -333 521 -333 q 106 -279 185 -333 q 26 -126 26 -225 q 70 -9 26 -58 q 192 58 114 40 q 144 98 164 71 q 125 161 125 125 q 147 233 125 203 q 215 292 168 263 q 121 372 157 315 q 85 503 85 429 q 158 691 85 625 q 365 757 232 757 q 471 743 424 757 l 728 743 m 135 -125 q 185 -216 135 -185 q 332 -247 236 -247 q 542 -205 474 -247 q 610 -90 610 -162 q 572 -6 610 -29 q 432 17 535 17 l 297 17 q 178 -20 221 17 q 135 -125 135 -57 m 196 506 q 240 388 196 428 q 363 347 285 347 q 528 507 528 347 q 361 675 528 675 q 239 632 282 675 q 196 506 196 589 z "},"h":{"ha":853,"x_min":119,"x_max":740,"o":"m 628 0 l 628 481 q 587 617 628 572 q 457 661 546 661 q 286 597 340 661 q 232 389 232 533 l 232 0 l 119 0 l 119 1056 l 232 1056 l 232 736 q 226 640 232 678 l 233 640 q 328 725 267 694 q 468 756 389 756 q 672 691 604 756 q 740 485 740 626 l 740 0 l 628 0 z "},"i":{"ha":351,"x_min":110,"x_max":243,"o":"m 232 0 l 119 0 l 119 743 l 232 743 l 232 0 m 110 944 q 128 1001 110 983 q 176 1019 147 1019 q 223 1001 203 1019 q 243 944 243 983 q 223 888 243 907 q 176 869 203 869 q 128 888 147 869 q 110 944 110 907 z "},"j":{"ha":351,"x_min":-75,"x_max":243,"o":"m 29 -333 q -75 -317 -35 -333 l -75 -225 q 17 -239 -29 -239 q 94 -210 69 -239 q 119 -122 119 -181 l 119 743 l 232 743 l 232 -114 q 29 -333 232 -333 m 110 944 q 128 1001 110 983 q 176 1019 147 1019 q 223 1001 203 1019 q 243 944 243 983 q 223 888 243 907 q 176 869 203 869 q 128 888 147 869 q 110 944 110 907 z "},"k":{"ha":729,"x_min":119,"x_max":714,"o":"m 231 381 q 319 489 260 422 l 560 743 l 693 743 l 392 426 l 714 0 l 578 0 l 315 351 l 231 278 l 231 0 l 119 0 l 119 1056 l 231 1056 l 231 496 q 225 381 231 458 l 231 381 z "},"l":{"ha":351,"x_min":119,"x_max":232,"o":"m 232 0 l 119 0 l 119 1056 l 232 1056 l 232 0 z "},"m":{"ha":1292,"x_min":119,"x_max":1179,"o":"m 1067 0 l 1067 483 q 1028 617 1067 572 q 911 661 990 661 q 756 601 806 661 q 706 415 706 540 l 706 0 l 593 0 l 593 483 q 555 617 593 572 q 436 661 517 661 q 281 598 331 661 q 232 390 232 535 l 232 0 l 119 0 l 119 743 l 211 743 l 229 642 l 235 642 q 324 726 267 696 q 454 757 382 757 q 682 631 629 757 l 688 631 q 784 723 721 689 q 928 757 847 757 q 1117 692 1054 757 q 1179 485 1179 628 l 1179 0 l 1067 0 z "},"n":{"ha":853,"x_min":119,"x_max":740,"o":"m 628 0 l 628 481 q 587 617 628 572 q 457 661 546 661 q 286 598 340 661 q 232 390 232 535 l 232 0 l 119 0 l 119 743 l 211 743 l 229 642 l 235 642 q 332 726 269 696 q 471 757 394 757 q 673 692 606 757 q 740 485 740 628 l 740 0 l 628 0 z "},"o":{"ha":839,"x_min":78,"x_max":761,"o":"m 761 372 q 669 88 761 190 q 417 -14 578 -14 q 240 33 317 -14 q 120 168 163 81 q 78 372 78 256 q 169 656 78 554 q 421 757 260 757 q 669 653 578 757 q 761 372 761 550 m 194 372 q 251 156 194 231 q 419 81 308 81 q 587 155 529 81 q 644 372 644 229 q 587 588 644 514 q 418 661 529 661 q 251 589 307 661 q 194 372 194 517 z "},"p":{"ha":851,"x_min":119,"x_max":774,"o":"m 465 -14 q 333 13 393 -14 q 232 96 272 40 l 224 96 q 232 -28 232 31 l 232 -333 l 119 -333 l 119 743 l 211 743 l 226 642 l 232 642 q 333 730 275 703 q 465 757 390 757 q 693 656 613 757 q 774 372 774 554 q 692 88 774 189 q 465 -14 610 -14 m 449 661 q 284 598 335 661 q 232 397 233 535 l 232 372 q 284 148 232 215 q 451 81 336 81 q 603 158 549 81 q 657 374 657 236 q 603 587 657 513 q 449 661 549 661 z "},"q":{"ha":851,"x_min":78,"x_max":732,"o":"m 400 81 q 564 141 513 81 q 619 344 615 201 l 619 369 q 567 594 619 525 q 399 663 514 663 q 247 585 300 663 q 194 368 194 508 q 247 154 194 228 q 400 81 299 81 m 383 -14 q 158 88 239 -14 q 78 369 78 189 q 159 654 78 551 q 386 757 240 757 q 621 642 539 757 l 626 642 l 643 743 l 732 743 l 732 -333 l 619 -333 l 619 -15 q 626 100 619 53 l 618 100 q 383 -14 540 -14 z "},"r":{"ha":567,"x_min":119,"x_max":547,"o":"m 458 757 q 547 749 508 757 l 532 644 q 450 654 486 654 q 296 581 360 654 q 232 399 232 508 l 232 0 l 119 0 l 119 743 l 213 743 l 225 606 l 231 606 q 331 717 272 678 q 458 757 389 757 z "},"s":{"ha":663,"x_min":72,"x_max":599,"o":"m 599 203 q 522 42 599 99 q 304 -14 444 -14 q 74 33 157 -14 l 74 138 q 189 95 128 111 q 307 79 250 79 q 443 108 396 79 q 490 193 490 136 q 453 267 490 236 q 306 340 415 299 q 159 408 203 379 q 94 473 115 436 q 72 561 72 510 q 146 704 72 651 q 349 757 219 757 q 583 708 468 757 l 543 617 q 340 663 432 663 q 220 638 261 663 q 179 568 179 613 q 194 517 179 539 q 244 477 210 496 q 374 422 278 458 q 552 326 506 375 q 599 203 599 276 z "},"t":{"ha":490,"x_min":21,"x_max":461,"o":"m 360 79 q 417 83 389 79 q 461 93 444 88 l 461 7 q 408 -8 443 -1 q 343 -14 372 -14 q 128 214 128 -14 l 128 656 l 21 656 l 21 710 l 128 757 l 175 915 l 240 915 l 240 743 l 456 743 l 456 656 l 240 656 l 240 218 q 272 115 240 151 q 360 79 304 79 z "},"u":{"ha":853,"x_min":111,"x_max":733,"o":"m 225 743 l 225 261 q 267 126 225 171 q 396 81 308 81 q 567 144 513 81 q 621 353 621 208 l 621 743 l 733 743 l 733 0 l 640 0 l 624 100 l 618 100 q 522 15 583 44 q 382 -14 461 -14 q 178 51 246 -14 q 111 257 111 115 l 111 743 l 225 743 z "},"v":{"ha":696,"x_min":0,"x_max":696,"o":"m 282 0 l 0 743 l 121 743 l 281 303 q 344 101 335 147 l 350 101 q 397 251 357 138 q 575 743 436 364 l 696 743 l 414 0 l 282 0 z "},"w":{"ha":1081,"x_min":15,"x_max":1065,"o":"m 726 0 l 590 436 q 542 618 578 476 l 536 618 q 489 435 510 499 l 349 0 l 218 0 l 15 743 l 133 743 q 243 317 206 463 q 286 119 281 171 l 292 119 q 315 219 299 158 q 344 317 332 281 l 481 743 l 603 743 l 736 317 q 788 121 774 200 l 793 121 q 808 196 796 144 q 949 743 819 247 l 1065 743 l 860 0 l 726 0 z "},"x":{"ha":728,"x_min":26,"x_max":700,"o":"m 299 381 l 40 743 l 168 743 l 364 458 l 560 743 l 686 743 l 428 381 l 700 0 l 572 0 l 364 301 l 154 0 l 26 0 l 299 381 z "},"y":{"ha":700,"x_min":1,"x_max":699,"o":"m 1 743 l 122 743 l 285 319 q 351 110 339 174 l 357 110 q 394 228 365 144 q 578 743 422 313 l 699 743 l 379 -103 q 268 -281 332 -229 q 113 -333 204 -333 q 11 -322 61 -333 l 11 -232 q 94 -240 49 -240 q 260 -110 210 -240 l 301 -4 l 1 743 z "},"z":{"ha":650,"x_min":56,"x_max":594,"o":"m 594 0 l 56 0 l 56 76 l 461 656 l 81 656 l 81 743 l 585 743 l 585 656 l 185 88 l 594 88 l 594 0 z "}}}
